<?xml version="1.0" standalone="no"?>
<!DOCTYPE svg PUBLIC "-//W3C//DTD SVG 20010904//EN"
 "http://www.w3.org/TR/2001/REC-SVG-20010904/DTD/svg10.dtd">
<svg version="1.0" xmlns="http://www.w3.org/2000/svg"
 width="728.000000pt" height="728.000000pt" viewBox="0 0 728.000000 728.000000"
 preserveAspectRatio="xMidYMid meet">
<metadata>
Created by potrace 1.14, written by Peter Selinger 2001-2017
</metadata>
<g transform="translate(0.000000,728.000000) scale(0.100000,-0.100000)"
fill="#000000" stroke="none">
<path d="M6772 4395 c-90 -39 -132 -98 -132 -188 0 -96 69 -173 172 -192 78
-15 179 38 217 112 16 31 14 139 -3 172 -46 88 -167 134 -254 96z"/>
<path d="M207 4254 c-4 -4 -7 -324 -7 -711 l0 -703 213 2 212 3 3 188 2 187
129 0 c160 0 264 19 359 65 93 46 161 114 206 207 126 256 37 574 -194 697
-120 64 -120 64 -535 68 -209 3 -384 1 -388 -3z m653 -347 c83 -44 116 -165
71 -262 -35 -77 -91 -104 -218 -105 l-83 0 0 195 0 195 93 0 c79 0 101 -4 137
-23z"/>
<path d="M2710 3550 l0 -710 205 0 205 0 0 710 0 710 -205 0 -205 0 0 -710z"/>
<path d="M5540 3550 l0 -710 213 2 212 3 1 70 c1 39 2 150 3 248 l1 177 260 0
260 0 0 160 0 160 -260 0 -260 0 0 130 0 130 285 0 285 0 0 170 0 170 -500 0
-500 0 0 -710z"/>
<path d="M3540 3929 c-100 -26 -166 -59 -217 -110 -61 -60 -86 -117 -91 -210
-6 -97 14 -161 69 -223 61 -69 135 -100 339 -140 110 -22 184 -42 200 -54 62
-46 17 -102 -82 -102 -76 0 -125 22 -146 67 l-16 33 -193 0 -193 0 0 -30 c0
-50 38 -133 86 -188 53 -60 169 -122 269 -143 92 -19 296 -16 380 5 87 23 174
66 223 111 81 72 125 206 103 312 -29 147 -121 203 -416 258 -77 14 -154 30
-171 36 -73 23 -83 83 -20 113 73 35 174 5 197 -58 l13 -36 186 2 185 3 -3 45
c-7 103 -86 211 -195 267 -127 64 -351 83 -507 42z"/>
<path d="M4701 3929 c-101 -26 -152 -52 -215 -110 -57 -52 -99 -130 -111 -206
l-7 -43 185 0 184 0 11 25 c18 39 66 58 134 53 71 -5 97 -27 105 -86 l5 -40
-43 -6 c-24 -3 -91 -7 -149 -10 -312 -16 -480 -134 -482 -340 -1 -95 22 -163
77 -224 139 -154 406 -161 551 -15 l44 45 0 -66 0 -66 206 0 205 0 -3 413 -3
412 -29 58 c-53 104 -160 178 -303 211 -100 22 -267 20 -362 -5z m289 -686 c0
-47 -30 -97 -69 -118 -35 -18 -129 -20 -165 -4 -37 17 -51 60 -32 97 23 44 67
58 199 61 l67 1 0 -37z"/>
<path d="M1470 3539 c0 -324 3 -402 16 -452 21 -84 48 -132 100 -183 64 -61
135 -86 254 -87 85 -2 102 1 157 27 67 31 135 94 158 149 14 30 14 27 15 -60
l0 -93 204 0 205 0 3 533 c2 292 1 538 -1 545 -2 10 -49 12 -205 10 l-201 -3
-5 -340 c-4 -242 -9 -346 -17 -361 -7 -12 -27 -34 -45 -49 -29 -24 -38 -27
-90 -23 -44 3 -64 10 -84 29 -52 48 -54 62 -54 419 l0 330 -205 0 -205 0 0
-391z"/>
<path d="M6635 3918 c-3 -7 -4 -251 -3 -543 l3 -530 208 -3 207 -2 0 545 0
545 -205 0 c-155 0 -207 -3 -210 -12z"/>
</g>
</svg>
