<?xml version="1.0" encoding="utf-8"?>
<!-- Generator: Adobe Illustrator 27.5.0, SVG Export Plug-In . SVG Version: 6.00 Build 0)  -->
<svg version="1.1" xmlns="http://www.w3.org/2000/svg" xmlns:xlink="http://www.w3.org/1999/xlink" x="0px" y="0px"
	 viewBox="0 0 800 500" style="enable-background:new 0 0 800 500;" xml:space="preserve">
<g id="_x31_09">
	<g>
		<g>
			<defs>
				<rect id="SVGID_1_" width="800" height="500"/>
			</defs>
			<use xlink:href="#SVGID_1_"  style="overflow:visible;fill:#000422;"/>
			<clipPath id="SVGID_00000088133963066201225990000009774104544153459861_">
				<use xlink:href="#SVGID_1_"  style="overflow:visible;"/>
			</clipPath>
			<g style="clip-path:url(#SVGID_00000088133963066201225990000009774104544153459861_);">
				<g>
					<g>
						<g>
							
								<linearGradient id="SVGID_00000029014788425660417880000009354575986439016869_" gradientUnits="userSpaceOnUse" x1="146.9478" y1="307.8123" x2="579.5574" y2="307.8123">
								<stop  offset="0" style="stop-color:#FF25B6"/>
								<stop  offset="0.013" style="stop-color:#F720C0"/>
								<stop  offset="0.0526" style="stop-color:#E112DB"/>
								<stop  offset="0.093" style="stop-color:#D208EE"/>
								<stop  offset="0.1345" style="stop-color:#C902F9"/>
								<stop  offset="0.1787" style="stop-color:#C600FD"/>
								<stop  offset="0.475" style="stop-color:#432AF3"/>
								<stop  offset="0.6457" style="stop-color:#2747ED"/>
								<stop  offset="1" style="stop-color:#000422"/>
							</linearGradient>
							<path style="fill:url(#SVGID_00000029014788425660417880000009354575986439016869_);" d="M394.605,635.019
								c-3.101,0-5.251-0.753-6.485-2.247c-8.707-10.539,30.481-56.601,75.858-109.935
								c58.106-68.294,130.419-153.29,111.455-178.444c-6.813-9.036-25.284-10.04-54.9-2.978
								c-33.019,7.872-81.056,26.069-142.775,54.086c-70.105,31.823-123.814,53.17-159.633,63.446
								c-32.786,9.406-51.531,10.007-57.307,1.835c-12.903-18.255,43.061-76.395,97.182-132.619
								c46.549-48.359,90.516-94.036,82.431-106.241c-4.16-6.282-22.877-3.106-55.628,9.434
								c-46.355,17.748-75.194,20.209-88.162,7.52c-18.78-18.377-1.991-65.253,15.785-114.882
								c18.73-52.293,38.097-106.366,16.605-130.027c-13.065-14.383-39.832-16.206-81.836-5.572l-0.245-0.97
								c42.394-10.731,69.485-8.813,82.821,5.869c21.896,24.105,2.426,78.466-16.403,131.037
								c-17.664,49.318-34.349,95.902-16.027,113.83c12.659,12.386,41.152,9.855,87.105-7.739
								c33.719-12.911,52.305-15.87,56.819-9.052c8.528,12.873-35.71,58.83-82.544,107.486
								c-51.331,53.326-109.511,113.769-97.085,131.348c11.631,16.46,82.19-5.004,215.71-65.613
								c118.907-53.977,183.965-70.598,198.887-50.8c19.446,25.794-50.117,107.557-111.492,179.694
								c-43.209,50.786-84.022,98.756-75.849,108.649c6.078,7.354,38.766-5.902,99.936-40.53l0.492,0.871
								C438.627,621.172,407.895,635.019,394.605,635.019z"/>
						</g>
					</g>
					<g>
						<g>
							
								<linearGradient id="SVGID_00000070087498418163293300000013326271862591716261_" gradientUnits="userSpaceOnUse" x1="147.1343" y1="305.5033" x2="581.7659" y2="305.5033">
								<stop  offset="0" style="stop-color:#FF25B6"/>
								<stop  offset="0.013" style="stop-color:#F720C0"/>
								<stop  offset="0.0526" style="stop-color:#E112DB"/>
								<stop  offset="0.093" style="stop-color:#D208EE"/>
								<stop  offset="0.1345" style="stop-color:#C902F9"/>
								<stop  offset="0.1787" style="stop-color:#C600FD"/>
								<stop  offset="0.475" style="stop-color:#432AF3"/>
								<stop  offset="0.6457" style="stop-color:#2747ED"/>
								<stop  offset="1" style="stop-color:#000422"/>
							</linearGradient>
							<path style="fill:url(#SVGID_00000070087498418163293300000013326271862591716261_);" d="M403.754,637.95
								c-3.211,0.001-5.446-0.781-6.745-2.332c-8.956-10.696,29.11-56.645,73.186-109.848
								c56.451-68.141,126.706-152.945,107.195-178.572c-6.984-9.171-25.33-10.45-54.533-3.795
								c-32.545,7.416-79.722,24.967-140.217,52.166c-101.539,45.65-166.342,68.208-196.239,68.21
								c-8.825,0.001-14.605-1.964-17.395-5.88c-13.247-18.592,41.228-76.46,93.909-132.422
								c45.287-48.107,88.063-93.548,79.77-105.998c-4.26-6.395-22.73-3.503-54.9,8.594c-45.268,17.021-73.683,19.108-86.869,6.383
								c-19.359-18.683-3.461-66.007,13.371-116.109c17.726-52.765,36.056-107.326,13.922-131.463
								c-13.282-14.484-39.726-16.686-80.839-6.732l-0.235-0.972c41.501-10.048,68.262-7.749,81.812,7.028
								c22.533,24.572,4.108,79.417-13.71,132.458c-16.728,49.794-32.528,96.827-13.624,115.071
								c12.879,12.431,40.953,10.271,85.822-6.6c33.123-12.454,51.469-15.141,56.084-8.212
								c8.734,13.111-34.306,58.833-79.874,107.238c-49.963,53.075-106.593,113.232-93.822,131.156
								c11.923,16.732,81.401-3.764,212.409-62.662c116.577-52.413,180.675-68.136,195.955-48.064
								c19.993,26.259-47.592,107.839-107.221,179.816c-41.969,50.659-81.61,98.51-73.189,108.567
								c6.238,7.449,38.362-5.403,98.208-39.282l0.492,0.87C447.18,624.472,417.081,637.949,403.754,637.95z"/>
						</g>
					</g>
					<g>
						<g>
							
								<linearGradient id="SVGID_00000055676938091296153860000008273770291054985350_" gradientUnits="userSpaceOnUse" x1="147.1748" y1="303.2277" x2="584.0161" y2="303.2277">
								<stop  offset="0" style="stop-color:#FF25B6"/>
								<stop  offset="0.013" style="stop-color:#F720C0"/>
								<stop  offset="0.0526" style="stop-color:#E112DB"/>
								<stop  offset="0.093" style="stop-color:#D208EE"/>
								<stop  offset="0.1345" style="stop-color:#C902F9"/>
								<stop  offset="0.1787" style="stop-color:#C600FD"/>
								<stop  offset="0.475" style="stop-color:#432AF3"/>
								<stop  offset="0.6457" style="stop-color:#2747ED"/>
								<stop  offset="1" style="stop-color:#000422"/>
							</linearGradient>
							<path style="fill:url(#SVGID_00000055676938091296153860000008273770291054985350_);" d="M412.872,641.065
								c-3.321,0-5.645-0.811-7.009-2.418c-9.212-10.854,27.744-56.71,70.537-109.808c54.82-68.021,123.047-152.676,102.968-178.783
								c-7.157-9.308-25.39-10.858-54.186-4.605c-32.084,6.965-78.416,23.878-137.71,50.268
								c-129.042,57.434-197.864,76.868-210.402,59.412c-13.602-18.936,39.404-76.557,90.665-132.281
								c44.044-47.879,85.646-93.103,77.137-105.803c-4.36-6.509-22.593-3.899-54.192,7.759
								c-44.193,16.302-72.189,18.027-85.586,5.274c-19.955-18.996-4.949-66.798,10.938-117.407
								c16.722-53.269,34.013-108.353,11.222-132.978c-13.497-14.583-39.618-17.156-79.854-7.868l-0.225-0.975
								c40.618-9.375,67.052-6.705,80.813,8.163c23.186,25.052,5.806,80.415-11.001,133.957
								c-15.791,50.304-30.706,97.817-11.203,116.383c13.096,12.465,40.751,10.67,84.551-5.488
								c32.541-12.004,50.652-14.417,55.369-7.378c8.946,13.355-32.914,58.859-77.232,107.036
								c-48.615,52.848-103.716,112.747-90.589,131.021c12.217,17.011,80.643-2.532,209.184-59.743
								c114.282-50.866,177.446-65.704,193.095-45.358c20.559,26.731-45.074,108.169-102.981,180.02
								c-40.746,50.557-79.232,98.31-70.554,108.532c6.397,7.541,37.969-4.911,96.517-38.056l0.492,0.87
								C455.702,627.95,426.229,641.065,412.872,641.065z"/>
						</g>
					</g>
					<g>
						<g>
							
								<linearGradient id="SVGID_00000092439792008252606690000018146454559665294766_" gradientUnits="userSpaceOnUse" x1="147.0728" y1="300.9862" x2="586.3062" y2="300.9862">
								<stop  offset="0" style="stop-color:#FF25B6"/>
								<stop  offset="0.013" style="stop-color:#F720C0"/>
								<stop  offset="0.0526" style="stop-color:#E112DB"/>
								<stop  offset="0.093" style="stop-color:#D208EE"/>
								<stop  offset="0.1345" style="stop-color:#C902F9"/>
								<stop  offset="0.1787" style="stop-color:#C600FD"/>
								<stop  offset="0.475" style="stop-color:#432AF3"/>
								<stop  offset="0.6457" style="stop-color:#2747ED"/>
								<stop  offset="1" style="stop-color:#000422"/>
							</linearGradient>
							<path style="fill:url(#SVGID_00000092439792008252606690000018146454559665294766_);" d="M421.965,644.375
								c-3.434,0-5.847-0.84-7.28-2.505c-9.479-11.012,26.386-56.801,67.912-109.82c53.212-67.936,119.435-152.486,98.768-179.082
								c-7.336-9.441-25.456-11.261-53.86-5.406c-31.632,6.52-77.134,22.802-135.243,48.394
								c-126.616,55.762-194.406,74.252-207.249,56.521c-13.97-19.286,37.591-76.69,87.455-132.204
								c42.818-47.669,83.261-92.694,74.532-105.647c-4.463-6.624-22.465-4.292-53.504,6.932
								c-43.131,15.595-70.711,16.966-84.315,4.189c-20.566-19.314-6.454-67.627,8.487-118.776
								c15.717-53.807,31.969-109.446,8.504-134.574c-13.704-14.675-39.507-17.613-78.885-8.983l-0.214-0.977
								c39.752-8.714,65.865-5.678,79.829,9.277c23.854,25.545,7.521,81.462-8.275,135.538
								c-14.852,50.846-28.88,98.872-8.762,117.767c13.302,12.492,40.546,11.053,83.291-4.401
								c31.971-11.559,49.854-13.703,54.673-6.55c9.164,13.6-31.532,58.907-74.617,106.875
								c-47.288,52.646-100.886,112.316-87.389,130.948c12.523,17.291,79.919-1.307,206.036-56.85
								c112.029-49.338,174.275-63.301,190.295-42.686c21.146,27.212-42.562,108.55-98.77,180.313
								c-39.539,50.48-76.886,98.162-67.941,108.552c6.56,7.622,37.59-4.429,94.857-36.848l0.492,0.87
								C464.201,631.616,435.345,644.373,421.965,644.375z"/>
						</g>
					</g>
					<g>
						<g>
							
								<linearGradient id="SVGID_00000113315933339337346630000015725289482326931351_" gradientUnits="userSpaceOnUse" x1="146.8281" y1="298.7762" x2="588.6442" y2="298.7762">
								<stop  offset="0" style="stop-color:#FF25B6"/>
								<stop  offset="0.013" style="stop-color:#F720C0"/>
								<stop  offset="0.0526" style="stop-color:#E112DB"/>
								<stop  offset="0.093" style="stop-color:#D208EE"/>
								<stop  offset="0.1345" style="stop-color:#C902F9"/>
								<stop  offset="0.1787" style="stop-color:#C600FD"/>
								<stop  offset="0.475" style="stop-color:#432AF3"/>
								<stop  offset="0.6457" style="stop-color:#2747ED"/>
								<stop  offset="1" style="stop-color:#000422"/>
							</linearGradient>
							<path style="fill:url(#SVGID_00000113315933339337346630000015725289482326931351_);" d="M431.036,647.871
								c-3.546,0-6.05-0.868-7.555-2.592c-9.755-11.17,25.03-56.913,65.308-109.879c26.122-34.352,55.73-73.287,75.373-106.074
								c22.381-37.357,28.669-61.365,19.223-73.394c-7.518-9.573-25.536-11.658-53.553-6.196
								c-31.19,6.079-75.877,21.738-132.82,46.54c-92.888,40.459-153.668,60.48-183.92,60.483
								c-10.21,0.002-16.936-2.277-20.254-6.819c-14.353-19.643,35.784-76.858,84.27-132.188
								c41.609-47.483,80.911-92.332,71.954-105.545c-4.569-6.741-22.345-4.684-52.832,6.107
								c-42.088,14.898-69.255,15.921-83.057,3.133c-21.193-19.64-7.978-68.495,6.013-120.217
								c14.709-54.377,29.919-110.604,5.766-136.249c-13.904-14.762-39.391-18.058-77.92-10.076l-0.203-0.979
								c38.898-8.059,64.689-4.666,78.852,10.37c24.536,26.052,9.252,82.554-5.529,137.195
								c-13.91,51.422-27.048,99.993-6.298,119.223c13.504,12.513,40.34,11.421,82.043-3.342
								c31.407-11.118,49.07-12.992,53.993-5.726c9.39,13.853-30.158,58.984-72.029,106.765
								c-45.98,52.471-98.095,111.942-84.215,130.939c12.837,17.565,79.226-0.093,202.968-53.99
								c109.808-47.83,171.157-60.929,187.559-40.046c21.753,27.7-40.055,108.979-94.587,180.69
								c-38.348,50.429-74.568,98.062-65.351,108.616c6.736,7.712,37.23-3.958,93.234-35.664l0.492,0.871
								C472.68,635.463,444.432,647.871,431.036,647.871z"/>
						</g>
					</g>
					<g>
						<g>
							
								<linearGradient id="SVGID_00000151502352335729140820000008596086506501065637_" gradientUnits="userSpaceOnUse" x1="146.4414" y1="296.6003" x2="591.0233" y2="296.6003">
								<stop  offset="0" style="stop-color:#FF25B6"/>
								<stop  offset="0.013" style="stop-color:#F720C0"/>
								<stop  offset="0.0526" style="stop-color:#E112DB"/>
								<stop  offset="0.093" style="stop-color:#D208EE"/>
								<stop  offset="0.1345" style="stop-color:#C902F9"/>
								<stop  offset="0.1787" style="stop-color:#C600FD"/>
								<stop  offset="0.475" style="stop-color:#432AF3"/>
								<stop  offset="0.6457" style="stop-color:#2747ED"/>
								<stop  offset="1" style="stop-color:#000422"/>
							</linearGradient>
							<path style="fill:url(#SVGID_00000151502352335729140820000008596086506501065637_);" d="M440.091,651.565
								c-3.66,0-6.256-0.898-7.835-2.681c-10.042-11.329,23.678-57.052,62.723-109.994c25.326-34.342,54.031-73.265,72.917-106.109
								c21.521-37.426,27.254-61.577,17.525-73.832c-7.703-9.703-25.625-12.054-53.268-6.977
								c-30.759,5.645-74.645,20.688-130.44,44.709c-90.088,38.788-149.544,57.991-179.874,57.994
								c-10.708,0.001-17.78-2.392-21.295-7.16c-14.748-20.008,33.984-77.059,81.111-132.231
								c40.415-47.315,78.59-92.007,69.399-105.483c-4.676-6.855-22.232-5.075-52.184,5.294
								c-41.054,14.209-67.81,14.897-81.801,2.099c-21.835-19.973-9.519-69.403,3.521-121.735
								c13.699-54.98,27.865-111.831,3.01-138.006c-14.097-14.845-39.274-18.49-76.968-11.146l-0.191-0.981
								c38.057-7.417,63.533-3.675,77.885,11.438c25.232,26.573,10.999,83.695-2.765,138.936
								c-12.966,52.035-25.212,101.185-3.816,120.755c13.696,12.526,40.124,11.772,80.799-2.307
								c30.859-10.682,48.306-12.288,53.337-4.912c9.622,14.108-28.794,59.082-69.465,106.696
								c-44.69,52.319-95.344,111.62-81.067,130.988c13.153,17.847,78.566,1.11,199.97-51.158
								c107.621-46.336,168.1-58.581,184.886-37.436c22.384,28.198-37.546,109.461-90.421,181.157
								c-38.787,52.593-72.284,98.014-62.779,108.737c6.9,7.785,36.876-3.493,91.639-34.495l0.492,0.871
								C481.145,639.5,453.496,651.563,440.091,651.565z"/>
						</g>
					</g>
					<g>
						<g>
							
								<linearGradient id="SVGID_00000100382447921524145880000000651457148630063031_" gradientUnits="userSpaceOnUse" x1="145.9102" y1="294.4507" x2="593.4464" y2="294.4507">
								<stop  offset="0" style="stop-color:#FF25B6"/>
								<stop  offset="0.013" style="stop-color:#F720C0"/>
								<stop  offset="0.0526" style="stop-color:#E112DB"/>
								<stop  offset="0.093" style="stop-color:#D208EE"/>
								<stop  offset="0.1345" style="stop-color:#C902F9"/>
								<stop  offset="0.1787" style="stop-color:#C600FD"/>
								<stop  offset="0.475" style="stop-color:#432AF3"/>
								<stop  offset="0.6457" style="stop-color:#2747ED"/>
								<stop  offset="1" style="stop-color:#000422"/>
							</linearGradient>
							<path style="fill:url(#SVGID_00000100382447921524145880000000651457148630063031_);" d="M449.127,655.449
								c-3.773,0-6.463-0.928-8.119-2.768c-10.337-11.486,22.329-57.21,60.153-110.154c24.54-34.35,52.354-73.283,70.49-106.201
								c20.667-37.516,25.843-61.821,15.821-74.307c-7.891-9.832-25.725-12.441-52.999-7.748
								c-30.337,5.216-73.435,19.65-128.099,42.9c-119.594,50.87-184.439,66.582-198.237,48.033
								c-15.158-20.378,32.189-77.295,77.976-132.337c39.24-47.172,76.304-91.728,66.871-105.473
								c-4.784-6.972-22.129-5.465-51.55,4.481c-40.037,13.534-66.388,13.894-80.558,1.096
								c-22.491-20.312-11.079-70.349,1.004-123.323c12.686-55.617,25.803-113.126,0.232-139.848
								c-14.282-14.925-39.151-18.916-76.025-12.196l-0.18-0.983c37.233-6.784,62.395-2.699,76.927,12.488
								c25.942,27.111,12.764,84.887,0.02,140.762c-12.016,52.681-23.365,102.44-1.309,122.358
								c13.877,12.534,39.904,12.107,79.567-1.301c30.319-10.249,47.555-11.589,52.695-4.1
								c9.861,14.37-27.438,59.208-66.927,106.678c-43.419,52.195-92.631,111.355-77.943,131.101
								c13.483,18.126,77.934,2.307,197.044-48.355c105.471-44.862,165.089-56.264,182.268-34.858
								c23.037,28.703-35.039,109.994-86.278,181.716c-37.573,52.593-70.023,98.014-60.223,108.903
								c7.074,7.862,36.542-3.046,90.074-33.352l0.492,0.871C489.589,643.721,462.533,655.448,449.127,655.449z"/>
						</g>
					</g>
					<g>
						<g>
							
								<linearGradient id="SVGID_00000176042600768074458290000010712728635177953983_" gradientUnits="userSpaceOnUse" x1="145.2329" y1="292.3297" x2="595.9238" y2="292.3297">
								<stop  offset="0" style="stop-color:#FF25B6"/>
								<stop  offset="0.013" style="stop-color:#F720C0"/>
								<stop  offset="0.0526" style="stop-color:#E112DB"/>
								<stop  offset="0.093" style="stop-color:#D208EE"/>
								<stop  offset="0.1345" style="stop-color:#C902F9"/>
								<stop  offset="0.1787" style="stop-color:#C600FD"/>
								<stop  offset="0.475" style="stop-color:#432AF3"/>
								<stop  offset="0.6457" style="stop-color:#2747ED"/>
								<stop  offset="1" style="stop-color:#000422"/>
							</linearGradient>
							<path style="fill:url(#SVGID_00000176042600768074458290000010712728635177953983_);" d="M458.157,659.531
								c-3.887,0-6.672-0.958-8.407-2.857c-10.645-11.645,20.981-57.396,57.602-110.369c23.764-34.377,50.698-73.34,68.087-106.35
								c19.819-37.622,24.435-62.094,14.111-74.814c-8.081-9.957-25.83-12.819-52.749-8.508
								c-29.925,4.794-72.249,18.627-125.797,41.114c-84.608,35.533-141.441,53.142-171.859,53.144
								c-11.766,0-19.576-2.634-23.518-7.884c-15.583-20.757,30.398-77.569,74.866-132.51
								c38.079-47.048,74.045-91.485,64.363-105.503c-4.896-7.09-22.035-5.852-50.936,3.677
								c-39.034,12.869-64.979,12.907-79.32,0.115c-23.163-20.66-12.66-71.338-1.54-124.992
								c11.666-56.286,23.729-114.489-2.57-141.773c-14.459-15-39.021-19.326-75.091-13.224l-0.167-0.986
								c36.418-6.162,61.271-1.741,75.977,13.516c26.666,27.664,14.548,86.129,2.83,142.67
								c-11.059,53.363-21.506,103.766,1.226,124.043c14.051,12.532,39.676,12.428,78.341-0.318
								c29.787-9.822,46.82-10.901,52.072-3.296c10.107,14.634-26.088,59.354-64.409,106.701
								c-42.166,52.098-89.959,111.146-74.844,131.28c13.815,18.401,77.335,3.494,194.191-45.581
								c103.346-43.401,162.132-53.975,179.709-32.315c23.713,29.218-32.529,110.579-82.151,182.362
								c-36.377,52.622-67.793,98.069-57.686,109.126c7.252,7.937,36.217-2.606,88.541-32.226l0.492,0.871
								C498.029,648.134,471.558,659.53,458.157,659.531z"/>
						</g>
					</g>
					<g>
						<g>
							
								<linearGradient id="SVGID_00000160892062925084417410000007816631959539673985_" gradientUnits="userSpaceOnUse" x1="144.4131" y1="290.2383" x2="598.4482" y2="290.2383">
								<stop  offset="0" style="stop-color:#FF25B6"/>
								<stop  offset="0.013" style="stop-color:#F720C0"/>
								<stop  offset="0.0526" style="stop-color:#E112DB"/>
								<stop  offset="0.093" style="stop-color:#D208EE"/>
								<stop  offset="0.1345" style="stop-color:#C902F9"/>
								<stop  offset="0.1787" style="stop-color:#C600FD"/>
								<stop  offset="0.475" style="stop-color:#432AF3"/>
								<stop  offset="0.6457" style="stop-color:#2747ED"/>
								<stop  offset="1" style="stop-color:#000422"/>
							</linearGradient>
							<path style="fill:url(#SVGID_00000160892062925084417410000007816631959539673985_);" d="M467.173,663.813
								c-3.999,0.001-6.88-0.986-8.697-2.943c-10.961-11.802,19.636-57.602,55.064-110.635
								c22.996-34.423,49.061-73.437,65.709-106.557c18.976-37.751,23.029-62.401,12.393-75.36
								c-8.274-10.08-25.942-13.194-52.516-9.256c-29.52,4.376-71.083,17.615-123.53,39.349
								c-115.117,47.704-178.111,61.609-192.585,42.516c-16.024-21.144,28.609-77.878,71.773-132.744
								c36.933-46.946,71.818-91.289,61.879-105.587c-5.01-7.207-21.946-6.238-50.337,2.877
								c-38.046,12.214-63.589,11.94-78.089-0.838c-23.847-21.016-14.259-72.368-4.108-126.734
								c10.641-56.988,21.643-115.916-5.395-143.778c-14.628-15.073-38.887-19.728-74.167-14.229l-0.154-0.988
								c35.624-5.553,60.169-0.801,75.039,14.521c27.399,28.233,16.348,87.42,5.66,144.658c-10.098,54.08-19.635,105.16,3.786,125.8
								c14.213,12.525,39.44,12.733,77.123,0.636c29.268-9.396,46.102-10.212,51.464-2.496
								c10.361,14.905-24.746,59.531-61.915,106.776c-40.929,52.026-87.319,110.994-71.762,131.521
								c14.159,18.683,76.768,4.669,191.405-42.835c101.258-41.96,159.223-51.709,177.201-29.803
								c24.414,29.741-30.018,111.22-78.042,183.106c-35.193,52.68-65.587,98.176-55.164,109.398
								c7.431,8.001,35.902-2.176,87.034-31.122l0.492,0.87C506.454,652.739,480.56,663.812,467.173,663.813z"/>
						</g>
					</g>
					<g>
						<g>
							
								<linearGradient id="SVGID_00000010280318391922564700000002777525614566536337_" gradientUnits="userSpaceOnUse" x1="143.4551" y1="288.1742" x2="601.0251" y2="288.1742">
								<stop  offset="0" style="stop-color:#FF25B6"/>
								<stop  offset="0.013" style="stop-color:#F720C0"/>
								<stop  offset="0.0526" style="stop-color:#E112DB"/>
								<stop  offset="0.093" style="stop-color:#D208EE"/>
								<stop  offset="0.1345" style="stop-color:#C902F9"/>
								<stop  offset="0.1787" style="stop-color:#C600FD"/>
								<stop  offset="0.475" style="stop-color:#432AF3"/>
								<stop  offset="0.6457" style="stop-color:#2747ED"/>
								<stop  offset="1" style="stop-color:#000422"/>
							</linearGradient>
							<path style="fill:url(#SVGID_00000010280318391922564700000002777525614566536337_);" d="M476.185,668.297
								c-4.11,0.001-7.088-1.016-8.99-3.03c-11.289-11.959,18.29-57.834,52.54-110.953c22.237-34.488,47.44-73.577,63.352-106.823
								c18.138-37.901,21.626-62.743,10.663-75.944c-8.472-10.201-26.065-13.561-52.298-9.993
								c-29.126,3.965-69.938,16.617-121.3,37.604c-79.277,32.394-133.513,48.464-163.921,48.466
								c-12.911,0.002-21.52-2.893-25.937-8.665c-16.48-21.536,26.822-78.223,68.698-133.042
								c35.801-46.866,69.617-91.134,59.414-105.716c-5.196-7.427-21.472-6.746-49.758,2.084
								c-37.073,11.572-62.216,10.995-76.863-1.764c-24.544-21.38-15.876-73.44-6.701-128.557
								c9.61-57.726,19.548-117.417-8.241-145.875c-14.786-15.143-38.745-20.12-73.248-15.216l-0.141-0.99
								c34.839-4.951,59.08,0.121,74.104,15.507c28.143,28.822,18.164,88.767,8.512,146.738
								c-9.128,54.833-17.751,106.625,6.372,127.639c14.362,12.511,39.192,13.022,75.908,1.564
								c28.756-8.977,45.396-9.533,50.875-1.703c10.622,15.182-23.41,59.731-59.44,106.897
								c-41.648,54.521-84.714,110.897-68.698,131.826c14.506,18.96,76.228,5.835,188.684-40.118
								c99.194-40.533,156.354-49.472,174.746-27.324c25.141,30.275-27.5,111.917-73.943,183.948
								c-34.022,52.766-63.405,98.336-52.653,109.725c7.611,8.064,35.596-1.758,85.55-30.037l0.492,0.871
								C514.874,657.543,489.552,668.297,476.185,668.297z"/>
						</g>
					</g>
					<g>
						<g>
							
								<linearGradient id="SVGID_00000037664905784184400100000002357994269328661903_" gradientUnits="userSpaceOnUse" x1="142.3428" y1="286.1318" x2="603.6564" y2="286.1318">
								<stop  offset="0" style="stop-color:#FF25B6"/>
								<stop  offset="0.013" style="stop-color:#F720C0"/>
								<stop  offset="0.0526" style="stop-color:#E112DB"/>
								<stop  offset="0.093" style="stop-color:#D208EE"/>
								<stop  offset="0.1345" style="stop-color:#C902F9"/>
								<stop  offset="0.1787" style="stop-color:#C600FD"/>
								<stop  offset="0.475" style="stop-color:#432AF3"/>
								<stop  offset="0.6457" style="stop-color:#2747ED"/>
								<stop  offset="1" style="stop-color:#000422"/>
							</linearGradient>
							<path style="fill:url(#SVGID_00000037664905784184400100000002357994269328661903_);" d="M485.198,672.977
								c-4.22,0.001-7.295-1.044-9.284-3.116c-11.628-12.113,16.943-58.088,50.026-111.321
								c21.485-34.571,45.837-73.756,61.013-107.148c17.304-38.071,20.223-63.115,8.923-76.565
								c-8.669-10.317-26.191-13.926-52.097-10.717c-28.739,3.559-68.814,15.632-119.108,35.882
								c-76.666,30.869-129.606,46.189-159.969,46.191c-13.513,0.001-22.549-3.032-27.222-9.079
								c-16.954-21.939,25.036-78.605,65.643-133.407c34.684-46.809,67.445-91.022,56.97-105.894
								c-5.314-7.545-21.405-7.12-49.193,1.297c-36.118,10.941-60.86,10.07-75.645-2.665c-25.254-21.754-17.518-74.557-9.327-130.46
								C234.498,7.479,243.361-53.008,214.81-82.08c-14.936-15.208-38.597-20.503-72.34-16.18l-0.127-0.992
								c34.072-4.362,58.011,1.024,73.181,16.472c28.899,29.427,20,90.164,11.394,148.901c-8.15,55.624-15.848,108.163,8.99,129.558
								c14.501,12.493,38.938,13.298,74.702,2.465c28.253-8.56,44.708-8.859,50.301-0.916
								c10.891,15.463-22.079,59.957-56.985,107.064c-40.385,54.503-82.145,110.861-65.655,132.2
								c14.862,19.232,75.713,6.988,186.027-37.428c97.167-39.122,153.542-47.262,172.344-24.881
								c25.894,30.819-24.974,112.669-69.852,184.884c-32.863,52.879-61.244,98.547-50.154,110.101
								c7.8,8.126,35.307-1.355,84.097-28.976l0.492,0.871C523.297,662.535,498.536,672.977,485.198,672.977z"/>
						</g>
					</g>
					<g>
						<g>
							
								<linearGradient id="SVGID_00000129901696082036268130000013466755203764150406_" gradientUnits="userSpaceOnUse" x1="141.0918" y1="284.1163" x2="606.3478" y2="284.1163">
								<stop  offset="0" style="stop-color:#FF25B6"/>
								<stop  offset="0.013" style="stop-color:#F720C0"/>
								<stop  offset="0.0526" style="stop-color:#E112DB"/>
								<stop  offset="0.093" style="stop-color:#D208EE"/>
								<stop  offset="0.1345" style="stop-color:#C902F9"/>
								<stop  offset="0.1787" style="stop-color:#C600FD"/>
								<stop  offset="0.475" style="stop-color:#432AF3"/>
								<stop  offset="0.6457" style="stop-color:#2747ED"/>
								<stop  offset="1" style="stop-color:#000422"/>
							</linearGradient>
							<path style="fill:url(#SVGID_00000129901696082036268130000013466755203764150406_);" d="M494.213,677.867
								c-4.329,0-7.503-1.073-9.58-3.201c-11.979-12.27,15.596-58.37,47.525-111.75c20.741-34.676,44.249-73.979,58.694-107.532
								c16.473-38.263,18.817-63.522,7.17-77.224c-8.869-10.433-26.336-14.277-51.908-11.428
								c-28.359,3.16-67.706,14.66-116.945,34.182c-108.678,43.085-169.059,54.354-184.596,34.45
								c-17.445-22.349,23.246-79.027,62.597-133.839c33.579-46.773,65.296-90.952,54.542-106.12
								c-5.435-7.665-21.346-7.497-48.645,0.514c-35.174,10.323-59.52,9.166-74.426-3.537
								c-25.974-22.135-19.175-75.714-11.977-132.44c7.524-59.301,15.305-120.62-14.017-150.327
								c-15.076-15.273-38.444-20.875-71.441-17.125l-0.113-0.993c33.319-3.789,56.96,1.909,72.266,17.416
								c29.663,30.052,21.852,91.617,14.297,151.155c-7.163,56.45-13.928,109.769,11.634,131.553
								c14.629,12.467,38.67,13.559,73.497,3.338c27.758-8.146,44.03-8.189,49.742-0.133c11.168,15.75-20.751,60.211-54.545,107.281
								c-39.136,54.513-79.605,110.882-62.621,132.641c15.226,19.506,75.229,8.135,183.438-34.765
								c95.164-37.728,150.767-45.079,169.984-22.472c26.672,31.372-22.438,113.477-65.769,185.916
								c-31.717,53.025-59.108,98.82-47.667,110.539c7.981,8.178,35.025-0.963,82.665-27.932l0.492,0.871
								C531.718,667.732,507.514,677.867,494.213,677.867z"/>
						</g>
					</g>
					<g>
						<g>
							
								<linearGradient id="SVGID_00000066486731492901518750000013754175751971218344_" gradientUnits="userSpaceOnUse" x1="139.6909" y1="282.1243" x2="609.0945" y2="282.1243">
								<stop  offset="0" style="stop-color:#FF25B6"/>
								<stop  offset="0.013" style="stop-color:#F720C0"/>
								<stop  offset="0.0526" style="stop-color:#E112DB"/>
								<stop  offset="0.093" style="stop-color:#D208EE"/>
								<stop  offset="0.1345" style="stop-color:#C902F9"/>
								<stop  offset="0.1787" style="stop-color:#C600FD"/>
								<stop  offset="0.475" style="stop-color:#432AF3"/>
								<stop  offset="0.6457" style="stop-color:#2747ED"/>
								<stop  offset="1" style="stop-color:#000422"/>
							</linearGradient>
							<path style="fill:url(#SVGID_00000066486731492901518750000013754175751971218344_);" d="M503.233,682.965
								c-4.436,0-7.707-1.1-9.876-3.283c-12.342-12.424,14.245-58.677,45.029-112.232c20.004-34.8,42.676-74.243,56.393-107.98
								c15.644-38.477,17.41-63.965,5.401-77.922c-9.071-10.543-26.482-14.619-51.732-12.126
								c-27.988,2.767-66.618,13.702-114.817,32.502c-71.55,27.908-121.912,41.773-152.098,41.776
								c-14.787,0.001-24.727-3.324-29.956-9.955c-17.954-22.769,21.455-79.489,59.566-134.342
								c32.488-46.76,63.175-90.926,52.131-106.396c-5.557-7.784-21.295-7.869-48.113-0.261c-34.25,9.716-58.2,8.281-73.215-4.387
								c-26.705-22.527-20.854-76.92-14.661-134.505c6.468-60.138,13.156-122.324-16.943-152.683
								c-15.207-15.336-38.286-21.24-70.553-18.05l-0.099-0.995c32.586-3.222,55.93,2.776,71.362,18.341
								C241.488-68.835,234.773-6.41,228.28,53.961c-6.165,57.314-11.987,111.449,14.311,133.634
								c14.742,12.436,38.39,13.807,72.298,4.189c27.273-7.737,43.366-7.527,49.199,0.642
								c11.453,16.043-19.429,60.49-52.124,107.547c-37.904,54.554-77.098,110.965-59.602,133.152
								c15.594,19.774,74.769,9.265,180.905-32.134c93.188-36.348,148.033-42.92,167.671-20.097
								c27.479,31.937-19.892,114.346-61.685,187.054c-30.581,53.2-56.991,99.147-45.187,111.028
								c8.165,8.219,34.746-0.579,81.257-26.91l0.492,0.871C540.144,673.131,516.49,682.965,503.233,682.965z"/>
						</g>
					</g>
					<g>
						<g>
							
								<linearGradient id="SVGID_00000053517620865299912550000016649713521072837017_" gradientUnits="userSpaceOnUse" x1="138.1475" y1="280.1523" x2="611.9056" y2="280.1523">
								<stop  offset="0" style="stop-color:#FF25B6"/>
								<stop  offset="0.013" style="stop-color:#F720C0"/>
								<stop  offset="0.0526" style="stop-color:#E112DB"/>
								<stop  offset="0.093" style="stop-color:#D208EE"/>
								<stop  offset="0.1345" style="stop-color:#C902F9"/>
								<stop  offset="0.1787" style="stop-color:#C600FD"/>
								<stop  offset="0.475" style="stop-color:#432AF3"/>
								<stop  offset="0.6457" style="stop-color:#2747ED"/>
								<stop  offset="1" style="stop-color:#000422"/>
							</linearGradient>
							<path style="fill:url(#SVGID_00000053517620865299912550000016649713521072837017_);" d="M512.26,688.268
								c-4.542,0-7.909-1.128-10.171-3.364c-12.716-12.575,12.892-59.005,42.542-112.766
								c19.273-34.945,41.118-74.553,54.107-108.492c14.817-38.713,16.001-64.444,3.619-78.663
								c-9.273-10.649-26.626-14.96-51.567-12.809c-27.622,2.38-65.545,12.758-112.717,30.844
								c-69.043,26.473-118.117,39.632-148.169,39.635c-15.458,0.001-25.877-3.478-31.407-10.418
								c-18.483-23.197,19.659-79.99,56.544-134.913c31.409-46.768,61.076-90.942,49.735-106.719
								c-5.679-7.901-21.247-8.239-47.592-1.03c-33.344,9.122-56.898,7.418-72.012-5.21
								c-27.444-22.931-22.553-78.169-17.375-136.651c5.402-61.008,10.989-124.093-19.895-155.125
								c-15.326-15.399-38.118-21.598-69.672-18.957l-0.084-0.996c31.871-2.669,54.918,3.627,70.464,19.248
								c31.213,31.361,25.605,94.682,20.183,155.918c-5.155,58.214-10.024,113.2,17.02,135.796
								c14.844,12.402,38.103,14.042,71.107,5.012c26.795-7.331,42.716-6.869,48.668,1.412
								c11.746,16.341-18.109,60.796-49.717,107.86c-36.685,54.624-74.619,111.108-56.592,133.733
								c15.971,20.044,74.337,10.387,178.436-29.527c91.238-34.982,145.34-40.79,165.395-17.757
								c28.313,32.512-17.333,115.274-57.604,188.294c-29.455,53.406-54.892,99.529-42.715,111.572
								c8.357,8.262,34.479-0.215,79.87-25.911l0.492,0.871C548.577,678.727,525.464,688.267,512.26,688.268z"/>
						</g>
					</g>
					<g>
						<g>
							
								<linearGradient id="SVGID_00000175322135729548392670000015144114240159745939_" gradientUnits="userSpaceOnUse" x1="136.4521" y1="278.2018" x2="614.7801" y2="278.2018">
								<stop  offset="0" style="stop-color:#FF25B6"/>
								<stop  offset="0.013" style="stop-color:#F720C0"/>
								<stop  offset="0.0526" style="stop-color:#E112DB"/>
								<stop  offset="0.093" style="stop-color:#D208EE"/>
								<stop  offset="0.1345" style="stop-color:#C902F9"/>
								<stop  offset="0.1787" style="stop-color:#C600FD"/>
								<stop  offset="0.475" style="stop-color:#432AF3"/>
								<stop  offset="0.6457" style="stop-color:#2747ED"/>
								<stop  offset="1" style="stop-color:#000422"/>
							</linearGradient>
							<path style="fill:url(#SVGID_00000175322135729548392670000015144114240159745939_);" d="M521.301,693.782
								c-4.644,0-8.108-1.154-10.465-3.442c-13.102-12.727,11.533-59.362,40.06-113.362c18.547-35.11,39.569-74.905,51.834-109.066
								c13.991-38.971,14.586-64.957,1.817-79.442c-9.476-10.751-26.774-15.292-51.413-13.478
								c-27.263,2-64.49,11.827-110.647,29.209c-102.548,38.617-160.496,47.33-177.154,26.643
								c-19.03-23.635,17.857-80.531,53.529-135.554c30.341-46.8,59-91.004,47.354-107.095c-5.804-8.021-21.208-8.607-47.09-1.794
								c-32.452,8.542-55.612,6.576-70.809-6.007c-28.192-23.344-24.27-79.465-20.118-138.881
								c4.327-61.913,8.801-125.933-22.874-157.659c-15.436-15.461-37.943-21.951-68.805-19.844l-0.068-0.998
								c31.169-2.126,53.928,4.458,69.581,20.136c31.997,32.048,27.506,96.299,23.164,158.435
								c-4.134,59.152-8.039,115.024,19.758,138.041c14.929,12.363,37.799,14.263,69.916,5.811c26.327-6.93,42.08-6.22,48.155,2.175
								c12.048,16.646-16.792,61.13-47.325,108.226c-35.479,54.725-72.165,111.311-53.59,134.383
								c16.353,20.31,73.93,11.494,176.024-26.951c89.311-33.633,142.684-38.689,163.163-15.457
								c29.175,33.099-14.758,116.263-53.519,189.637c-28.338,53.645-52.812,99.974-40.246,112.179
								c8.54,8.293,34.217,0.139,78.502-24.931l0.492,0.871C557.019,684.531,534.444,693.782,521.301,693.782z"/>
						</g>
					</g>
					<g>
						<g>
							
								<linearGradient id="SVGID_00000166669032571643225520000010066648580565230013_" gradientUnits="userSpaceOnUse" x1="134.6084" y1="276.2686" x2="617.72" y2="276.2686">
								<stop  offset="0" style="stop-color:#FF25B6"/>
								<stop  offset="0.013" style="stop-color:#F720C0"/>
								<stop  offset="0.0526" style="stop-color:#E112DB"/>
								<stop  offset="0.093" style="stop-color:#D208EE"/>
								<stop  offset="0.1345" style="stop-color:#C902F9"/>
								<stop  offset="0.1787" style="stop-color:#C600FD"/>
								<stop  offset="0.475" style="stop-color:#432AF3"/>
								<stop  offset="0.6457" style="stop-color:#2747ED"/>
								<stop  offset="1" style="stop-color:#000422"/>
							</linearGradient>
							<path style="fill:url(#SVGID_00000166669032571643225520000010066648580565230013_);" d="M530.355,699.512
								c-4.742,0-8.302-1.179-10.754-3.517c-13.501-12.875,10.169-59.742,37.577-114.01c17.827-35.298,38.033-75.305,49.572-109.708
								c13.167-39.254,13.167-65.51-0.001-80.268c-9.68-10.85-26.921-15.603-51.27-14.133
								c-26.909,1.626-63.449,10.911-108.606,27.596c-100.569,37.158-157.741,45.04-174.784,24.094
								c-19.598-24.084,16.049-81.116,50.522-136.272c29.285-46.854,56.945-91.109,44.985-107.521
								c-5.929-8.137-21.172-8.972-46.599-2.55c-31.577,7.972-54.346,5.755-69.611-6.779
								c-28.947-23.769-26.007-80.807-22.895-141.193c3.239-62.851,6.589-127.842-25.882-160.284
								c-15.537-15.522-37.762-22.299-67.948-20.716l-0.053-0.999c30.49-1.599,52.96,5.274,68.707,21.008
								c32.786,32.756,29.425,97.973,26.174,161.042c-3.099,60.128-6.026,116.921,22.53,140.369
								c15.002,12.319,37.486,14.472,68.732,6.583c25.87-6.532,41.455-5.573,47.653,2.931
								c12.357,16.957-15.477,61.491-44.945,108.64c-34.287,54.856-69.741,111.581-50.595,135.11
								c16.742,20.573,73.546,12.591,173.663-24.4c87.416-32.3,140.069-36.613,160.968-13.191
								c30.067,33.698-12.164,117.317-49.425,191.093c-27.229,53.911-50.743,100.472-37.779,112.835
								c8.723,8.319,33.961,0.477,77.155-23.977l0.492,0.871C565.479,690.542,543.432,699.51,530.355,699.512z"/>
						</g>
					</g>
					<g>
						<g>
							
								<linearGradient id="SVGID_00000113314428105362918750000000122343166673454724_" gradientUnits="userSpaceOnUse" x1="132.6187" y1="274.3573" x2="620.6216" y2="274.3573">
								<stop  offset="0" style="stop-color:#FF25B6"/>
								<stop  offset="0.013" style="stop-color:#F720C0"/>
								<stop  offset="0.0526" style="stop-color:#E112DB"/>
								<stop  offset="0.093" style="stop-color:#D208EE"/>
								<stop  offset="0.1345" style="stop-color:#C902F9"/>
								<stop  offset="0.1787" style="stop-color:#C600FD"/>
								<stop  offset="0.475" style="stop-color:#432AF3"/>
								<stop  offset="0.6457" style="stop-color:#2747ED"/>
								<stop  offset="1" style="stop-color:#000422"/>
							</linearGradient>
							<path style="fill:url(#SVGID_00000113314428105362918750000000122343166673454724_);" d="M539.433,705.458
								c-4.838,0-8.492-1.203-11.041-3.589c-13.912-13.022,8.799-60.149,35.096-114.718c17.111-35.507,36.506-75.751,47.32-110.416
								c12.341-39.562,11.738-66.102-1.842-81.137c-9.884-10.942-27.088-15.914-51.133-14.773
								c-26.562,1.26-62.426,10.009-106.595,26.005c-61.72,22.353-106.916,33.481-136.365,33.483
								c-17.604,0.002-29.576-3.974-36.099-11.904c-20.185-24.541,14.232-81.741,47.515-137.059
								c28.238-46.932,54.911-91.261,42.627-108c-6.057-8.254-21.144-9.333-46.124-3.301c-30.716,7.419-53.097,4.957-68.418-7.527
								c-29.707-24.205-27.761-82.195-25.701-143.59c2.141-63.822,4.355-129.817-28.915-162.998
								c-15.628-15.586-37.57-22.641-67.104-21.573l-0.036-0.999c29.81-1.078,52.011,6.071,67.847,21.864
								c33.578,33.488,31.356,99.704,29.208,163.74c-2.051,61.14-3.989,118.89,25.333,142.781
								c15.062,12.273,37.158,14.67,67.552,7.331c25.414-6.138,40.842-4.934,47.164,3.681
								c12.677,17.276-14.162,61.882-42.577,109.108c-33.104,55.02-67.336,111.912-47.599,135.908
								c17.132,20.829,73.18,13.672,171.351-21.884c85.544-30.98,137.49-34.564,158.81-10.963
								c13.838,15.321,14.51,42.178,2.054,82.105c-10.836,34.735-30.247,75.015-47.373,110.552
								c-26.126,54.214-48.69,101.034-35.315,113.555c8.911,8.34,33.712,0.801,75.826-23.041l0.492,0.871
								C573.956,696.765,552.432,705.457,539.433,705.458z"/>
						</g>
					</g>
					<g>
						<g>
							
								<linearGradient id="SVGID_00000165918656555664563640000008382538466396942980_" gradientUnits="userSpaceOnUse" x1="130.4766" y1="272.4099" x2="623.6986" y2="272.4099">
								<stop  offset="0" style="stop-color:#FF25B6"/>
								<stop  offset="0.013" style="stop-color:#F720C0"/>
								<stop  offset="0.0526" style="stop-color:#E112DB"/>
								<stop  offset="0.093" style="stop-color:#D208EE"/>
								<stop  offset="0.1345" style="stop-color:#C902F9"/>
								<stop  offset="0.1787" style="stop-color:#C600FD"/>
								<stop  offset="0.475" style="stop-color:#432AF3"/>
								<stop  offset="0.6457" style="stop-color:#2747ED"/>
								<stop  offset="1" style="stop-color:#000422"/>
							</linearGradient>
							<path style="fill:url(#SVGID_00000165918656555664563640000008382538466396942980_);" d="M548.365,711.519
								c-4.876,0-8.585-1.185-11.16-3.551c-14.335-13.167,7.423-60.583,32.617-115.486c16.398-35.737,34.985-76.243,45.074-111.192
								c11.516-39.892,10.305-66.73-3.702-82.05c-10.085-11.03-27.241-16.21-51.001-15.395
								c-26.219,0.899-61.413,9.122-104.606,24.439c-96.698,34.288-152.371,40.534-170.201,19.089
								c-20.795-25.012,12.404-82.415,44.511-137.929c27.202-47.032,52.895-91.457,40.28-108.53
								c-6.182-8.369-21.117-9.692-45.657-4.044c-29.882,6.876-51.874,4.177-67.235-8.251
								c-30.472-24.654-29.535-83.633-28.542-146.074c1.03-64.826,2.095-131.857-31.976-165.8
								c-15.709-15.65-37.391-22.981-66.271-22.414l-0.02-1c29.193-0.563,51.085,6.854,66.997,22.705
								c34.372,34.243,33.303,101.49,32.269,166.525c-0.988,62.191-1.922,120.934,28.171,145.281
								c15.108,12.224,36.822,14.859,66.382,8.054c24.969-5.746,40.24-4.299,46.685,4.425c13.004,17.601-12.848,62.3-40.219,109.625
								c-31.935,55.217-64.957,112.313-44.607,136.789c17.528,21.081,72.841,14.74,169.098-19.394
								c83.695-29.677,134.945-32.546,156.68-8.775c14.261,15.598,15.545,42.748,3.925,83.002
								c-10.109,35.02-28.713,75.562-45.127,111.332c-25.03,54.548-46.647,101.658-32.849,114.333
								c9.09,8.348,33.463,1.11,74.515-22.13l0.492,0.871C582.713,703.056,561.385,711.519,548.365,711.519z"/>
						</g>
					</g>
					<g>
						<g>
							
								<linearGradient id="SVGID_00000134218228502660325640000006919758318732090785_" gradientUnits="userSpaceOnUse" x1="128.1899" y1="270.5294" x2="626.8531" y2="270.5294">
								<stop  offset="0" style="stop-color:#FF25B6"/>
								<stop  offset="0.013" style="stop-color:#F720C0"/>
								<stop  offset="0.0526" style="stop-color:#E112DB"/>
								<stop  offset="0.093" style="stop-color:#D208EE"/>
								<stop  offset="0.1345" style="stop-color:#C902F9"/>
								<stop  offset="0.1787" style="stop-color:#C600FD"/>
								<stop  offset="0.475" style="stop-color:#432AF3"/>
								<stop  offset="0.6457" style="stop-color:#2747ED"/>
								<stop  offset="1" style="stop-color:#000422"/>
							</linearGradient>
							<path style="fill:url(#SVGID_00000134218228502660325640000006919758318732090785_);" d="M557.487,717.903
								c-4.965,0-8.766-1.207-11.437-3.614c-14.771-13.309,6.039-61.042,30.134-116.313c15.69-35.991,33.474-76.784,42.836-112.038
								c10.688-40.249,8.861-67.401-5.585-83.01c-10.287-11.114-27.408-16.491-50.874-16.002
								c-25.88,0.548-60.415,8.25-102.643,22.895c-56.993,19.764-99.589,29.613-128.456,29.614
								c-19.153,0.002-32.258-4.333-39.528-12.982c-21.426-25.493,10.565-83.13,41.502-138.868
								c26.174-47.157,50.897-91.699,37.941-109.115c-6.311-8.485-21.098-10.049-45.206-4.783c-29.06,6.35-50.665,3.42-66.054-8.952
								c-31.24-25.116-31.324-85.12-31.413-148.646c-0.092-65.862-0.186-133.966-35.059-168.693
								c-15.701-15.635-36.974-23.24-65.02-23.24c-0.145,0-0.287,0-0.432,0l-0.003-1c28.536-0.087,50.182,7.618,66.161,23.531
								c35.166,35.02,35.262,103.335,35.354,169.401c0.088,63.281,0.172,123.052,31.039,147.868
								c15.137,12.171,36.47,15.035,65.213,8.754c24.533-5.359,39.651-3.67,46.222,5.163c13.341,17.934-11.534,62.75-37.869,110.197
								c-30.773,55.442-62.595,112.773-41.611,137.739c17.929,21.332,72.521,15.793,166.891-16.934
								c81.866-28.39,132.43-30.557,154.579-6.627c14.698,15.881,16.602,43.34,5.818,83.945
								c-9.382,35.328-27.182,76.158-42.886,112.183c-23.94,54.916-44.617,102.343-30.382,115.169
								c9.268,8.35,33.215,1.404,73.214-21.24l0.492,0.871C591.222,709.709,570.415,717.902,557.487,717.903z"/>
						</g>
					</g>
					<g>
						<g>
							
								<linearGradient id="SVGID_00000157993986236238347280000004449132455947900066_" gradientUnits="userSpaceOnUse" x1="125.729" y1="268.6755" x2="630.0843" y2="268.6755">
								<stop  offset="0" style="stop-color:#FF25B6"/>
								<stop  offset="0.013" style="stop-color:#F720C0"/>
								<stop  offset="0.0526" style="stop-color:#E112DB"/>
								<stop  offset="0.093" style="stop-color:#D208EE"/>
								<stop  offset="0.1345" style="stop-color:#C902F9"/>
								<stop  offset="0.1787" style="stop-color:#C600FD"/>
								<stop  offset="0.475" style="stop-color:#432AF3"/>
								<stop  offset="0.6457" style="stop-color:#2747ED"/>
								<stop  offset="1" style="stop-color:#000422"/>
							</linearGradient>
							<path style="fill:url(#SVGID_00000157993986236238347280000004449132455947900066_);" d="M566.643,724.519
								c-5.049,0-8.941-1.228-11.71-3.674c-15.219-13.448,4.646-61.53,27.647-117.204c14.983-36.268,31.966-77.373,40.599-112.954
								c9.857-40.629,7.405-68.11-7.494-84.016c-10.484-11.192-27.533-16.788-50.75-16.592
								c-25.546,0.201-59.429,7.393-100.707,21.373c-92.947,31.48-147.184,36.124-165.812,14.203
								c-22.081-25.987,8.713-83.894,38.493-139.895c25.156-47.305,48.917-91.986,35.611-109.751
								c-6.439-8.598-21.081-10.4-44.764-5.512c-28.255,5.833-49.48,2.684-64.884-9.631
								c-32.011-25.592-33.131-86.655-34.317-151.302c-0.864-47.088-1.757-95.779-14.875-132.786
								c-14.786-41.712-43.555-62.303-87.95-62.947l0.015-1c44.863,0.651,73.936,21.459,88.878,63.612
								c13.172,37.16,14.067,85.934,14.933,133.102c1.182,64.406,2.298,125.241,33.942,150.54
								c15.156,12.117,36.108,15.203,64.057,9.433c24.101-4.976,39.071-3.048,45.766,5.892
								c13.686,18.273-10.22,63.227-35.529,110.82c-29.623,55.706-60.255,113.308-38.614,138.777
								c18.332,21.575,72.216,16.832,164.729-14.503c80.064-27.118,129.951-28.596,152.507-4.518
								c15.148,16.17,17.679,43.952,7.736,84.935c-8.651,35.656-25.649,76.8-40.647,113.101
								c-22.854,55.32-42.593,103.097-27.908,116.073c9.448,8.344,32.976,1.682,71.933-20.372l0.492,0.871
								C599.765,716.59,579.472,724.518,566.643,724.519z"/>
						</g>
					</g>
					<g>
						<g>
							
								<linearGradient id="SVGID_00000027586343536576095580000013195051105469186467_" gradientUnits="userSpaceOnUse" x1="123.1167" y1="266.857" x2="635.6582" y2="266.857">
								<stop  offset="0" style="stop-color:#FF25B6"/>
								<stop  offset="0.013" style="stop-color:#F720C0"/>
								<stop  offset="0.0526" style="stop-color:#E112DB"/>
								<stop  offset="0.093" style="stop-color:#D208EE"/>
								<stop  offset="0.1345" style="stop-color:#C902F9"/>
								<stop  offset="0.1787" style="stop-color:#C600FD"/>
								<stop  offset="0.475" style="stop-color:#432AF3"/>
								<stop  offset="0.6457" style="stop-color:#2747ED"/>
								<stop  offset="1" style="stop-color:#000422"/>
							</linearGradient>
							<path style="fill:url(#SVGID_00000027586343536576095580000013195051105469186467_);" d="M575.825,731.358
								c-5.129,0-9.108-1.246-11.975-3.729c-15.679-13.585,3.244-62.044,25.155-118.155c14.278-36.566,30.462-78.012,38.364-113.942
								c9.024-41.036,5.941-68.862-9.426-85.069c-10.681-11.264-27.714-17.039-50.626-17.163c-0.253-0.002-0.508-0.002-0.763-0.002
								c-25.121,0-58.095,6.685-98.029,19.878c-91.114,30.099-144.654,33.959-163.688,11.805
								c-22.758-26.494,6.846-84.705,35.475-141.001c24.145-47.476,46.95-92.318,33.286-110.441
								c-6.569-8.711-21.071-10.751-44.335-6.234c-27.474,5.333-48.317,1.968-63.721-10.288
								c-32.781-26.083-34.952-88.24-37.25-154.047c-1.663-47.608-3.382-96.837-17.006-134.469
								c-15.358-42.422-44.199-63.732-88.17-65.146l0.032-0.999c44.427,1.429,73.564,22.954,89.079,65.805
								c13.678,37.779,15.4,87.088,17.066,134.774c2.29,65.57,4.454,127.504,36.874,153.299
								c15.16,12.063,35.738,15.364,62.908,10.089c23.677-4.598,38.502-2.434,45.324,6.613
								c14.04,18.621-8.903,63.734-33.193,111.496c-28.48,56.002-57.93,113.91-35.608,139.896
								c18.738,21.813,71.932,17.855,162.615-12.103c78.285-25.86,127.502-26.663,150.458-2.451
								c15.612,16.466,18.777,44.587,9.677,85.972c-7.919,36.007-24.118,77.49-38.409,114.091
								c-21.773,55.759-40.577,103.913-25.432,117.037c9.617,8.331,32.731,1.944,70.66-19.526l0.492,0.871
								C608.331,723.688,588.547,731.357,575.825,731.358z"/>
						</g>
					</g>
					<g>
						<g>
							
								<linearGradient id="SVGID_00000044875746038582328080000010118826310937850522_" gradientUnits="userSpaceOnUse" x1="120.3501" y1="265.0764" x2="643.3574" y2="265.0764">
								<stop  offset="0" style="stop-color:#FF25B6"/>
								<stop  offset="0.013" style="stop-color:#F720C0"/>
								<stop  offset="0.0526" style="stop-color:#E112DB"/>
								<stop  offset="0.093" style="stop-color:#D208EE"/>
								<stop  offset="0.1345" style="stop-color:#C902F9"/>
								<stop  offset="0.1787" style="stop-color:#C600FD"/>
								<stop  offset="0.475" style="stop-color:#432AF3"/>
								<stop  offset="0.6457" style="stop-color:#2747ED"/>
								<stop  offset="1" style="stop-color:#000422"/>
							</linearGradient>
							<path style="fill:url(#SVGID_00000044875746038582328080000010118826310937850522_);" d="M585.047,738.428
								c-5.203,0.001-9.267-1.262-12.229-3.778c-16.15-13.718,1.832-62.585,22.654-119.168c13.575-36.89,28.961-78.7,36.128-115.004
								c8.188-41.469,4.464-69.656-11.384-86.173c-10.873-11.331-27.865-17.293-50.504-17.719
								c-24.88-0.475-57.491,5.725-96.904,18.405c-89.304,28.731-142.165,31.819-161.603,9.434
								c-23.459-27.014,4.963-85.565,32.45-142.189c23.141-47.671,44.998-92.698,30.966-111.186
								c-6.696-8.824-21.061-11.096-43.916-6.95c-26.708,4.847-47.173,1.274-62.564-10.921
								C234.59,126.593,231.352,63.305,227.924-3.7c-2.463-48.148-5.011-97.935-19.147-136.207
								c-15.938-43.15-44.863-65.186-88.427-67.369l0.05-0.999c44.008,2.206,73.223,24.456,89.315,68.022
								c14.189,38.415,16.74,88.279,19.208,136.502c3.417,66.771,6.643,129.84,39.839,156.145
								c15.152,12.006,35.356,15.512,61.764,10.722c23.262-4.222,37.945-1.824,44.892,7.329
								c14.402,18.977-7.585,64.273-30.864,112.227c-27.344,56.332-55.62,114.582-32.594,141.098
								c19.147,22.05,71.662,18.865,160.542-9.729c76.531-24.624,125.085-24.764,148.436-0.427
								c16.09,16.768,19.899,45.246,11.644,87.059c-7.183,36.38-22.583,78.23-36.171,115.155
								c-20.692,56.232-38.563,104.794-22.945,118.061c9.787,8.31,32.487,2.192,69.4-18.705l0.492,0.871
								C616.936,731.01,597.654,738.427,585.047,738.428z"/>
						</g>
					</g>
					<g>
						<g>
							
								<linearGradient id="SVGID_00000000202448001100826780000018002141786967023762_" gradientUnits="userSpaceOnUse" x1="117.4287" y1="263.333" x2="651.1055" y2="263.333">
								<stop  offset="0" style="stop-color:#FF25B6"/>
								<stop  offset="0.013" style="stop-color:#F720C0"/>
								<stop  offset="0.0526" style="stop-color:#E112DB"/>
								<stop  offset="0.093" style="stop-color:#D208EE"/>
								<stop  offset="0.1345" style="stop-color:#C902F9"/>
								<stop  offset="0.1787" style="stop-color:#C600FD"/>
								<stop  offset="0.475" style="stop-color:#432AF3"/>
								<stop  offset="0.6457" style="stop-color:#2747ED"/>
								<stop  offset="1" style="stop-color:#000422"/>
							</linearGradient>
							<path style="fill:url(#SVGID_00000000202448001100826780000018002141786967023762_);" d="M594.299,745.731
								c-5.269,0-9.415-1.277-12.473-3.823c-16.633-13.847,0.41-63.15,20.146-120.24c12.871-37.237,27.461-79.442,33.891-116.142
								c7.347-41.931,2.974-70.496-13.369-87.33c-11.062-11.395-28.012-17.537-50.38-18.258
								c-24.587-0.792-56.541,4.915-95.04,16.959c-87.519,27.381-139.71,29.703-159.554,7.1
								c-24.183-27.547,3.064-86.475,29.413-143.462c22.144-47.892,43.06-93.128,28.652-111.991
								c-6.824-8.935-21.054-11.44-43.508-7.659c-25.964,4.373-46.054,0.599-61.418-11.535
								c-34.319-27.106-38.64-91.561-43.215-159.8c-3.266-48.707-6.642-99.071-21.296-137.998
								c-16.524-43.893-45.544-66.666-88.718-69.619l0.068-0.998c43.605,2.983,72.909,25.967,89.585,70.265
								c14.707,39.064,18.088,89.504,21.358,138.283c4.56,68.012,8.866,132.251,42.837,159.083
								c15.13,11.949,34.961,15.657,60.632,11.333c22.851-3.848,37.398-1.22,44.469,8.038
								c14.774,19.342-6.265,64.844-28.539,113.018c-26.215,56.697-53.322,115.324-29.568,142.383
								c19.552,22.273,71.4,19.855,158.503-7.395c74.803-23.4,122.701-22.891,146.436,1.558
								c16.582,17.08,21.042,45.931,13.637,88.199c-6.443,36.777-21.047,79.022-33.932,116.295
								c-19.613,56.739-36.552,105.741-20.45,119.146c9.945,8.279,32.235,2.424,68.148-17.907l0.492,0.871
								C625.569,738.56,606.782,745.731,594.299,745.731z"/>
						</g>
					</g>
					<g>
						<g>
							
								<linearGradient id="SVGID_00000028300999572857624230000015709565226666191286_" gradientUnits="userSpaceOnUse" x1="114.3472" y1="261.6243" x2="658.9258" y2="261.6243">
								<stop  offset="0" style="stop-color:#FF25B6"/>
								<stop  offset="0.013" style="stop-color:#F720C0"/>
								<stop  offset="0.0526" style="stop-color:#E112DB"/>
								<stop  offset="0.093" style="stop-color:#D208EE"/>
								<stop  offset="0.1345" style="stop-color:#C902F9"/>
								<stop  offset="0.1787" style="stop-color:#C600FD"/>
								<stop  offset="0.475" style="stop-color:#432AF3"/>
								<stop  offset="0.6457" style="stop-color:#2747ED"/>
								<stop  offset="1" style="stop-color:#000422"/>
							</linearGradient>
							<path style="fill:url(#SVGID_00000028300999572857624230000015709565226666191286_);" d="M603.602,753.274
								c-5.331,0-9.556-1.291-12.708-3.862c-17.129-13.974-1.022-63.752,17.626-121.389c12.169-37.608,25.961-80.234,31.649-117.351
								c6.5-42.417,1.469-71.377-15.381-88.534c-11.245-11.45-28.152-17.768-50.251-18.776c-24.244-1.103-55.597,4.122-93.193,15.54
								c-85.767,26.044-137.302,27.614-157.552,4.793c-24.933-28.096,1.142-87.436,26.358-144.823
								c21.151-48.136,41.129-93.602,26.336-112.85c-6.953-9.045-21.055-11.781-43.112-8.36
								c-25.241,3.914-44.959-0.055-60.285-12.13c-35.084-27.642-40.504-93.299-46.242-162.811
								c-4.068-49.286-8.275-100.249-23.453-139.848c-17.117-44.656-46.244-68.176-89.046-71.902l0.087-0.996
								c43.221,3.763,72.626,27.491,89.893,72.54c15.229,39.732,19.442,90.768,23.516,140.123
								c5.719,69.29,11.121,134.736,45.864,162.109c15.097,11.894,34.565,15.797,59.513,11.927
								c22.45-3.48,36.863-0.622,44.058,8.739c15.154,19.716-4.939,65.446-26.213,113.861
								c-25.089,57.099-51.033,116.141-26.526,143.758c19.963,22.496,71.161,20.831,156.513-5.087
								c73.093-22.196,120.342-21.056,144.448,3.493c17.086,17.397,22.207,46.636,15.656,89.386
								c-5.7,37.197-19.505,79.864-31.685,117.508c-18.537,57.288-34.545,106.765-17.946,120.306
								c10.102,8.243,31.987,2.641,66.908-17.13l0.492,0.87C634.253,746.345,615.956,753.274,603.602,753.274z"/>
						</g>
					</g>
					<g>
						<g>
							
								<linearGradient id="SVGID_00000179641037491730574430000013815916620377652669_" gradientUnits="userSpaceOnUse" x1="111.1094" y1="259.9497" x2="666.8125" y2="259.9497">
								<stop  offset="0" style="stop-color:#FF25B6"/>
								<stop  offset="0.013" style="stop-color:#F720C0"/>
								<stop  offset="0.0526" style="stop-color:#E112DB"/>
								<stop  offset="0.093" style="stop-color:#D208EE"/>
								<stop  offset="0.1345" style="stop-color:#C902F9"/>
								<stop  offset="0.1787" style="stop-color:#C600FD"/>
								<stop  offset="0.475" style="stop-color:#432AF3"/>
								<stop  offset="0.6457" style="stop-color:#2747ED"/>
								<stop  offset="1" style="stop-color:#000422"/>
							</linearGradient>
							<path style="fill:url(#SVGID_00000179641037491730574430000013815916620377652669_);" d="M612.947,761.055
								c-5.388,0-9.687-1.302-12.933-3.896c-17.635-14.096-2.468-64.377,15.094-122.597c11.464-38.004,24.456-81.077,29.396-118.638
								c5.647-42.932-0.052-72.303-17.422-89.792c-11.423-11.502-28.285-17.988-50.118-19.279
								c-23.919-1.423-54.663,3.344-91.37,14.143c-84.037,24.724-134.927,25.549-155.581,2.522
								c-25.706-28.661-0.797-88.452,23.292-146.275c20.165-48.404,39.212-94.124,24.025-113.763
								c-7.078-9.154-21.053-12.114-42.721-9.052c-24.535,3.466-43.887-0.69-59.163-12.706
								c-35.846-28.195-42.382-95.09-49.303-165.913c-4.874-49.884-9.915-101.467-25.624-141.753
								c-17.718-45.437-46.964-69.713-89.411-74.215l0.105-0.994c42.854,4.545,72.371,29.027,90.237,74.846
								c15.76,40.415,20.807,92.068,25.688,142.02c6.899,70.604,13.416,137.292,48.926,165.224
								c15.052,11.839,34.156,15.928,58.406,12.501c22.057-3.117,36.334-0.032,43.651,9.431
								c15.542,20.099-3.613,66.079-23.894,114.759c-23.969,57.536-48.755,117.032-23.47,145.223
								c20.371,22.714,70.925,21.793,154.553-2.813c36.818-10.833,67.674-15.602,91.713-14.183
								c22.085,1.307,39.166,7.892,50.768,19.573c17.604,17.724,23.394,47.368,17.705,90.627
								c-4.951,37.642-17.957,80.757-29.432,118.796c-17.457,57.873-32.533,107.854-15.426,121.527
								c10.25,8.194,31.735,2.838,65.681-16.378l0.492,0.871C642.981,754.36,625.165,761.055,612.947,761.055z"/>
						</g>
					</g>
					<g>
						<g>
							
								<linearGradient id="SVGID_00000089546929579507153830000005013041600226821046_" gradientUnits="userSpaceOnUse" x1="107.7153" y1="258.3093" x2="674.7559" y2="258.3093">
								<stop  offset="0" style="stop-color:#FF25B6"/>
								<stop  offset="0.013" style="stop-color:#F720C0"/>
								<stop  offset="0.0526" style="stop-color:#E112DB"/>
								<stop  offset="0.093" style="stop-color:#D208EE"/>
								<stop  offset="0.1345" style="stop-color:#C902F9"/>
								<stop  offset="0.1787" style="stop-color:#C600FD"/>
								<stop  offset="0.475" style="stop-color:#432AF3"/>
								<stop  offset="0.6457" style="stop-color:#2747ED"/>
								<stop  offset="1" style="stop-color:#000422"/>
							</linearGradient>
							<path style="fill:url(#SVGID_00000089546929579507153830000005013041600226821046_);" d="M622.335,769.074
								c-5.436,0-9.804-1.311-13.14-3.923c-18.15-14.214-3.925-65.028,12.549-123.866c10.757-38.424,22.95-81.975,27.138-120.003
								c4.788-43.475-1.588-73.276-19.491-91.105c-11.596-11.548-28.41-18.197-49.978-19.765
								c-23.603-1.717-53.739,2.582-89.57,12.774c-82.331,23.421-132.587,23.512-153.643,0.284
								c-26.505-29.242-2.759-89.522,20.205-147.818c19.183-48.698,37.302-94.696,21.714-114.737
								c-7.204-9.262-21.051-12.447-42.341-9.737c-23.847,3.034-42.839-1.305-58.057-13.265
								c-36.602-28.767-44.271-96.935-52.391-169.106c-5.682-50.503-11.557-102.725-27.803-143.715
								c-18.325-46.236-47.703-71.277-89.811-76.556l0.124-0.992c42.503,5.328,72.145,30.574,90.616,77.179
								c16.295,41.114,22.178,93.404,27.867,143.972c8.095,71.957,15.742,139.924,52.015,168.432
								c14.996,11.787,33.743,16.058,57.313,13.059c21.664-2.759,35.817,0.55,43.257,10.115
								c15.939,20.491-2.282,66.747-21.573,115.717c-22.852,58.012-46.482,117.999-20.395,146.78
								c20.775,22.919,70.7,22.733,152.629-0.574c35.943-10.224,66.197-14.537,89.916-12.81
								c21.814,1.585,38.842,8.332,50.611,20.053c18.134,18.059,24.603,48.127,19.78,91.924
								c-4.197,38.109-16.401,81.702-27.169,120.163c-16.376,58.492-30.519,109.009-12.896,122.809
								c10.395,8.14,31.475,3.02,64.452-15.648l0.492,0.87C651.747,762.609,634.407,769.074,622.335,769.074z"/>
						</g>
					</g>
					<g>
						<g>
							
								<linearGradient id="SVGID_00000065044304095561272800000016362477530079031953_" gradientUnits="userSpaceOnUse" x1="104.1587" y1="256.7061" x2="682.7754" y2="256.7061">
								<stop  offset="0" style="stop-color:#FF25B6"/>
								<stop  offset="0.013" style="stop-color:#F720C0"/>
								<stop  offset="0.0526" style="stop-color:#E112DB"/>
								<stop  offset="0.093" style="stop-color:#D208EE"/>
								<stop  offset="0.1345" style="stop-color:#C902F9"/>
								<stop  offset="0.1787" style="stop-color:#C600FD"/>
								<stop  offset="0.475" style="stop-color:#432AF3"/>
								<stop  offset="0.6457" style="stop-color:#2747ED"/>
								<stop  offset="1" style="stop-color:#000422"/>
							</linearGradient>
							<path style="fill:url(#SVGID_00000065044304095561272800000016362477530079031953_);" d="M631.778,777.347
								c-5.478,0-9.909-1.317-13.334-3.944c-18.677-14.326-5.393-65.709,9.987-125.205c10.048-38.87,21.438-82.927,24.867-121.447
								c3.921-44.048-3.142-74.297-21.592-92.476c-11.761-11.588-28.527-18.396-49.832-20.232
								c-23.289-2.01-52.827,1.839-87.793,11.435c-80.652,22.129-130.284,21.501-151.737-1.926
								c-27.328-29.839-4.744-90.647,17.096-149.451c18.205-49.016,35.399-95.314,19.401-115.769
								c-7.328-9.369-21.056-12.777-41.971-10.416c-87.587,9.874-99.67-85.362-112.468-186.194
								c-6.492-51.143-13.204-104.026-29.994-145.737c-18.941-47.054-48.462-72.872-90.25-78.929l0.144-0.989
								c42.171,6.113,71.949,32.132,91.034,79.545c16.838,41.831,23.559,94.779,30.058,145.985
								c12.735,100.33,24.767,195.109,111.364,185.326c21.286-2.401,35.311,1.128,42.871,10.794
								c16.343,20.895-0.946,67.447-19.251,116.733c-21.735,58.523-44.211,119.039-17.296,148.428
								c21.177,23.122,70.482,23.658,150.734,1.636c35.083-9.627,64.737-13.48,88.145-11.466
								c21.543,1.857,38.517,8.76,50.447,20.516c18.677,18.402,25.836,48.913,21.887,93.277
								c-3.438,38.602-14.837,82.701-24.895,121.609c-15.292,59.151-28.498,110.237-10.347,124.16
								c10.526,8.074,31.207,3.184,63.231-14.944l0.492,0.871C660.57,771.106,643.699,777.346,631.778,777.347z"/>
						</g>
					</g>
					<g>
						<g>
							
								<linearGradient id="SVGID_00000153665715295662556610000000222736527677742727_" gradientUnits="userSpaceOnUse" x1="100.4399" y1="255.1336" x2="690.8652" y2="255.1336">
								<stop  offset="0" style="stop-color:#FF25B6"/>
								<stop  offset="0.013" style="stop-color:#F720C0"/>
								<stop  offset="0.0526" style="stop-color:#E112DB"/>
								<stop  offset="0.093" style="stop-color:#D208EE"/>
								<stop  offset="0.1345" style="stop-color:#C902F9"/>
								<stop  offset="0.1787" style="stop-color:#C600FD"/>
								<stop  offset="0.475" style="stop-color:#432AF3"/>
								<stop  offset="0.6457" style="stop-color:#2747ED"/>
								<stop  offset="1" style="stop-color:#000422"/>
							</linearGradient>
							<path style="fill:url(#SVGID_00000153665715295662556610000000222736527677742727_);" d="M641.271,785.868
								c-5.514,0-10.004-1.322-13.514-3.96c-19.212-14.434-6.875-66.418,7.409-126.611c9.337-39.342,19.919-83.933,22.584-122.972
								c3.047-44.649-4.712-75.365-23.721-93.903c-11.919-11.622-28.632-18.581-49.674-20.681
								c-22.972-2.296-51.919,1.11-86.033,10.118c-37.077,9.789-67.56,14.689-91.721,14.689
								c-27.315,0.002-46.55-6.257-58.143-18.788c-28.176-30.456-6.753-91.829,13.965-151.182
								c17.229-49.359,33.503-95.98,17.086-116.858c-7.451-9.476-21.062-13.101-41.608-11.087
								c-86.552,8.487-100.14-87.976-114.541-190.096c-7.305-51.802-14.859-105.368-32.2-147.816
								c-19.563-47.891-49.239-74.496-90.721-81.336l0.163-0.986c41.853,6.901,71.778,33.706,91.484,81.944
								c17.388,42.563,24.951,96.192,32.264,148.055c14.333,101.633,27.871,197.621,113.454,189.241
								c20.918-2.049,34.814,1.7,42.492,11.464c16.755,21.308,0.393,68.181-16.929,117.806
								c-20.621,59.073-41.943,120.158-14.174,150.173c21.572,23.317,70.271,24.565,148.874,3.811
								c34.231-9.038,63.297-12.454,86.389-10.147c21.273,2.123,38.186,9.176,50.271,20.96
								c19.233,18.755,27.089,49.728,24.021,94.688c-2.67,39.121-13.263,83.755-22.607,123.134
								c-14.204,59.852-26.471,111.541-7.782,125.581c10.646,7.998,30.931,3.332,62.015-14.263l0.492,0.87
								C669.442,779.845,653.033,785.867,641.271,785.868z"/>
						</g>
					</g>
					<g>
						<g>
							
								<linearGradient id="SVGID_00000172403803808045117260000017682853566191922564_" gradientUnits="userSpaceOnUse" x1="96.5596" y1="253.595" x2="699.0391" y2="253.595">
								<stop  offset="0" style="stop-color:#FF25B6"/>
								<stop  offset="0.013" style="stop-color:#F720C0"/>
								<stop  offset="0.0526" style="stop-color:#E112DB"/>
								<stop  offset="0.093" style="stop-color:#D208EE"/>
								<stop  offset="0.1345" style="stop-color:#C902F9"/>
								<stop  offset="0.1787" style="stop-color:#C600FD"/>
								<stop  offset="0.475" style="stop-color:#432AF3"/>
								<stop  offset="0.6457" style="stop-color:#2747ED"/>
								<stop  offset="1" style="stop-color:#000422"/>
							</linearGradient>
							<path style="fill:url(#SVGID_00000172403803808045117260000017682853566191922564_);" d="M650.826,794.644
								c-5.541,0-10.087-1.326-13.679-3.97c-19.757-14.537-8.37-67.159,4.813-128.091c8.62-39.839,18.391-84.993,20.283-124.575
								c2.165-45.279-6.3-76.48-25.879-95.385c-12.069-11.653-28.725-18.757-49.505-21.113c-22.66-2.57-51.021,0.402-84.298,8.833
								c-77.365,19.602-125.784,17.56-148.019-6.237c-29.05-31.091-8.788-93.071,10.807-153.012
								c16.257-49.729,31.612-96.699,14.77-118.012c-7.571-9.581-21.064-13.425-41.254-11.75
								c-85.537,7.074-100.65-90.624-116.659-194.073c-8.122-52.483-16.52-106.752-34.419-149.955
								c-20.195-48.747-50.037-76.15-91.229-83.776l0.182-0.983c41.553,7.692,71.637,35.292,91.972,84.376
								c17.944,43.313,26.353,97.643,34.483,150.185c15.936,102.976,30.991,200.237,115.589,193.229
								c20.546-1.703,34.325,2.264,42.121,12.128c17.175,21.733,1.739,68.952-14.604,118.942
								c-19.505,59.664-39.674,121.359-11.027,152.018c21.964,23.507,70.064,25.455,147.042,5.951
								c33.396-8.461,61.882-11.44,84.656-8.858c21.005,2.383,37.856,9.579,50.087,21.388
								c19.798,19.116,28.363,50.568,26.184,96.152c-1.896,39.665-11.676,84.862-20.305,124.739
								c-13.11,60.592-24.434,112.92-5.198,127.074c10.759,7.916,30.649,3.469,60.807-13.604l0.492,0.871
								C678.376,788.834,662.424,794.644,650.826,794.644z"/>
						</g>
					</g>
					<g>
						<g>
							
								<linearGradient id="SVGID_00000128444369280171937740000007582219866490514306_" gradientUnits="userSpaceOnUse" x1="92.5107" y1="252.0862" x2="707.291" y2="252.0862">
								<stop  offset="0" style="stop-color:#FF25B6"/>
								<stop  offset="0.013" style="stop-color:#F720C0"/>
								<stop  offset="0.0526" style="stop-color:#E112DB"/>
								<stop  offset="0.093" style="stop-color:#D208EE"/>
								<stop  offset="0.1345" style="stop-color:#C902F9"/>
								<stop  offset="0.1787" style="stop-color:#C600FD"/>
								<stop  offset="0.475" style="stop-color:#432AF3"/>
								<stop  offset="0.6457" style="stop-color:#2747ED"/>
								<stop  offset="1" style="stop-color:#000422"/>
							</linearGradient>
							<path style="fill:url(#SVGID_00000128444369280171937740000007582219866490514306_);" d="M660.439,803.676
								c-5.562,0-10.155-1.326-13.825-3.972c-20.309-14.636-9.878-67.929,2.199-129.637c7.899-40.362,16.853-86.109,17.966-126.26
								c1.273-45.94-7.907-77.646-28.067-96.928c-25.776-24.654-68.921-29.221-131.906-13.955
								c-75.762,18.358-123.585,15.633-146.202-8.343c-29.949-31.745-10.849-94.372,7.622-154.936
								c15.286-50.121,29.723-97.462,12.448-119.222c-7.689-9.685-21.073-13.744-40.906-12.407
								c-84.564,5.698-101.202-93.31-118.826-198.131c-8.942-53.185-18.189-108.181-36.653-152.157
								c-20.835-49.623-50.856-77.837-91.778-86.253l0.201-0.979c41.27,8.488,71.526,36.895,92.499,86.845
								c18.509,44.082,27.765,99.137,36.717,152.378c17.546,104.361,34.11,202.954,117.773,197.298
								c20.189-1.361,33.848,2.821,41.756,12.784c17.602,22.17,3.089,69.755-12.275,120.135
								c-18.388,60.291-37.401,122.636-7.851,153.959c22.349,23.688,69.855,26.325,145.238,8.056
								c32.572-7.893,60.477-10.449,82.945-7.594c20.735,2.635,37.521,9.969,49.889,21.799
								c20.376,19.488,29.657,51.44,28.376,97.679c-1.115,40.233-10.077,86.023-17.984,126.424
								c-12.012,61.37-22.385,114.372-2.597,128.633c10.865,7.832,30.36,3.586,59.601-12.969l0.492,0.871
								C687.37,798.072,671.866,803.675,660.439,803.676z"/>
						</g>
					</g>
					<g>
						<g>
							
								<linearGradient id="SVGID_00000086660754132006890920000008125202863740486284_" gradientUnits="userSpaceOnUse" x1="88.2998" y1="250.6106" x2="715.6289" y2="250.6106">
								<stop  offset="0" style="stop-color:#FF25B6"/>
								<stop  offset="0.013" style="stop-color:#F720C0"/>
								<stop  offset="0.0526" style="stop-color:#E112DB"/>
								<stop  offset="0.093" style="stop-color:#D208EE"/>
								<stop  offset="0.1345" style="stop-color:#C902F9"/>
								<stop  offset="0.1787" style="stop-color:#C600FD"/>
								<stop  offset="0.475" style="stop-color:#432AF3"/>
								<stop  offset="0.6457" style="stop-color:#2747ED"/>
								<stop  offset="1" style="stop-color:#000422"/>
							</linearGradient>
							<path style="fill:url(#SVGID_00000086660754132006890920000008125202863740486284_);" d="M670.121,812.968
								c-5.574,0-10.212-1.325-13.956-3.968c-20.868-14.729-11.399-68.727-0.437-131.254c7.173-40.91,15.304-87.279,15.629-128.024
								c0.372-46.631-9.534-78.859-30.285-98.529c-26.041-24.684-68.573-29.78-130.022-15.583
								c-74.178,17.138-121.417,13.734-144.408-10.412c-30.873-32.422-12.939-95.736,4.405-156.967
								c14.315-50.54,27.837-98.277,10.122-120.495c-7.807-9.79-21.085-14.064-40.568-13.056
								c-83.638,4.309-101.792-96.036-121.037-202.27c-9.766-53.909-19.865-109.654-38.902-154.419
								c-21.484-50.519-51.695-79.554-92.361-88.762l0.221-0.976c41.002,9.284,71.442,38.51,93.061,89.346
								c19.081,44.868,29.189,100.669,38.965,154.632c19.165,105.789,37.27,205.719,120.001,201.449
								c19.846-1.02,33.381,3.372,41.402,13.432c18.035,22.619,4.446,70.596-9.942,121.39
								c-17.267,60.96-35.122,123.996-4.643,156.005c22.727,23.867,69.653,27.182,143.46,10.127
								c31.76-7.338,59.099-9.48,81.255-6.36c20.469,2.881,37.184,10.347,49.681,22.192c20.963,19.87,30.971,52.34,30.597,99.263
								c-0.326,40.828-8.464,87.24-15.644,128.189c-10.904,62.192-20.321,115.9,0.028,130.264
								c10.953,7.732,30.054,3.689,58.395-12.354l0.492,0.871C696.429,807.567,681.37,812.968,670.121,812.968z"/>
						</g>
					</g>
				</g>
			</g>
		</g>
	</g>
</g>
<g id="Layer_1">
</g>
</svg>
