<?xml version="1.0" encoding="utf-8"?>
<!-- Generator: Adobe Illustrator 27.5.0, SVG Export Plug-In . SVG Version: 6.00 Build 0)  -->
<svg version="1.1" xmlns="http://www.w3.org/2000/svg" xmlns:xlink="http://www.w3.org/1999/xlink" x="0px" y="0px"
	 viewBox="0 0 800 500" style="enable-background:new 0 0 800 500;" xml:space="preserve">
<g id="_x37_8">
	<g>
		<g>
			<defs>
				<rect id="SVGID_1_" width="800" height="500"/>
			</defs>
			<use xlink:href="#SVGID_1_"  style="overflow:visible;fill:#000422;"/>
			<clipPath id="SVGID_00000008850846329605455170000003173987737083482268_">
				<use xlink:href="#SVGID_1_"  style="overflow:visible;"/>
			</clipPath>
			<g style="clip-path:url(#SVGID_00000008850846329605455170000003173987737083482268_);">
				<g>
					<g>
						<g>
							
								<linearGradient id="SVGID_00000034048545262461372070000006649524507338850711_" gradientUnits="userSpaceOnUse" x1="-37.2348" y1="385.1014" x2="981.1476" y2="385.1014">
								<stop  offset="0" style="stop-color:#FF25B6"/>
								<stop  offset="0.013" style="stop-color:#F720C0"/>
								<stop  offset="0.0526" style="stop-color:#E112DB"/>
								<stop  offset="0.093" style="stop-color:#D208EE"/>
								<stop  offset="0.1345" style="stop-color:#C902F9"/>
								<stop  offset="0.1787" style="stop-color:#C600FD"/>
								<stop  offset="0.475" style="stop-color:#432AF3"/>
								<stop  offset="0.6457" style="stop-color:#2747ED"/>
								<stop  offset="1" style="stop-color:#000422"/>
							</linearGradient>
							<path style="fill:url(#SVGID_00000034048545262461372070000006649524507338850711_);" d="M-14.304,638.752
								c-31.573-131.125-30.551-205.973,3.125-228.821c45.228-30.686,141.083,36.999,233.782,102.455
								c83.209,58.755,161.799,114.252,194.298,91.271c22.625-16.002,20.823-69.121-5.509-162.393
								c-29.277-103.694-33.454-160.126-12.769-172.519c27.803-16.662,95.814,48.822,161.586,112.148
								c62.139,59.827,120.835,116.338,142.799,102.578c17.327-10.85,9.726-65.379-23.241-166.705
								c-35.351-108.658-42.591-168.204-22.133-182.038c24.78-16.76,85.006,33.564,148.765,86.845
								c64.563,53.955,131.331,109.749,159.559,92.223c18.755-11.641,18.982-54.222,0.691-130.177l0.973-0.234
								c18.403,76.428,18.031,119.363-1.137,131.261c-28.852,17.906-95.892-38.124-160.728-92.305
								c-60.666-50.697-123.393-103.123-147.563-86.784c-20.037,13.551-12.67,72.724,22.524,180.901
								c33.129,101.824,40.594,156.732,22.821,167.861c-2.379,1.489-5.163,2.195-8.307,2.196
								c-26.763,0.005-79.852-51.113-135.717-104.902c-65.501-63.065-133.236-128.269-160.378-112.011
								c-20.244,12.129-15.921,68.19,13.217,171.39c26.461,93.729,28.137,147.204,5.123,163.481
								c-5.297,3.746-11.77,5.463-19.248,5.464c-39.21,0.002-106.072-47.213-176.204-96.733
								c-92.42-65.26-187.99-132.742-232.644-102.445c-33.291,22.587-34.178,97.088-2.714,227.76L-14.304,638.752z"/>
						</g>
					</g>
					<g>
						<g>
							
								<linearGradient id="SVGID_00000016789038875245614030000004642181197727254182_" gradientUnits="userSpaceOnUse" x1="-48.537" y1="380.6575" x2="986.7426" y2="380.6575">
								<stop  offset="0" style="stop-color:#FF25B6"/>
								<stop  offset="0.013" style="stop-color:#F720C0"/>
								<stop  offset="0.0526" style="stop-color:#E112DB"/>
								<stop  offset="0.093" style="stop-color:#D208EE"/>
								<stop  offset="0.1345" style="stop-color:#C902F9"/>
								<stop  offset="0.1787" style="stop-color:#C600FD"/>
								<stop  offset="0.475" style="stop-color:#432AF3"/>
								<stop  offset="0.6457" style="stop-color:#2747ED"/>
								<stop  offset="1" style="stop-color:#000422"/>
							</linearGradient>
							<path style="fill:url(#SVGID_00000016789038875245614030000004642181197727254182_);" d="M-27.577,636.354
								c-29.88-128.526-27.831-202.365,6.263-225.737c46.126-31.618,142.501,33.94,235.702,97.344
								c83.653,56.908,162.664,110.66,195.793,86.958c22.887-16.378,21.783-68.739-3.375-160.079
								c-28.032-101.762-31.446-157.398-10.436-170.091c28.35-17.12,96.356,46.592,162.129,108.207
								c62.148,58.221,120.851,113.205,143.257,99.043c17.599-11.128,10.698-64.838-21.097-164.198
								c-34.072-106.474-40.561-165.124-19.836-179.302c25.251-17.272,85.64,31.613,149.578,83.371
								c64.721,52.391,131.65,106.562,160.447,88.531c19.037-11.919,19.868-53.938,2.542-128.461l0.975-0.227
								c17.435,74.99,16.458,117.361-2.985,129.535c-3.996,2.501-8.693,3.659-13.984,3.659
								c-33.65,0.003-91.462-46.797-147.624-92.26c-30.655-24.816-62.355-50.477-88.616-67.083
								c-29.201-18.464-48.751-23.777-59.768-16.24c-20.311,13.895-13.695,72.176,20.225,178.172
								c31.952,99.856,38.717,153.941,20.678,165.349c-2.54,1.607-5.52,2.365-8.888,2.365
								c-27.211,0.003-80.026-49.477-135.587-101.525c-65.502-61.362-133.236-124.81-160.929-108.08
								c-20.574,12.428-17.014,67.698,10.884,168.969c25.282,91.792,26.261,144.507,2.991,161.157
								c-33.695,24.109-112.987-29.834-196.937-86.943c-92.922-63.214-189.008-128.582-234.574-97.346
								c-33.716,23.111-35.631,96.606-5.855,224.686L-27.577,636.354z"/>
						</g>
					</g>
					<g>
						<g>
							
								<linearGradient id="SVGID_00000147192828914121693540000018233483364783808938_" gradientUnits="userSpaceOnUse" x1="-60.0499" y1="376.3491" x2="992.6479" y2="376.3491">
								<stop  offset="0" style="stop-color:#FF25B6"/>
								<stop  offset="0.013" style="stop-color:#F720C0"/>
								<stop  offset="0.0526" style="stop-color:#E112DB"/>
								<stop  offset="0.093" style="stop-color:#D208EE"/>
								<stop  offset="0.1345" style="stop-color:#C902F9"/>
								<stop  offset="0.1787" style="stop-color:#C600FD"/>
								<stop  offset="0.475" style="stop-color:#432AF3"/>
								<stop  offset="0.6457" style="stop-color:#2747ED"/>
								<stop  offset="1" style="stop-color:#000422"/>
							</linearGradient>
							<path style="fill:url(#SVGID_00000147192828914121693540000018233483364783808938_);" d="M-40.986,634.207
								c-28.205-125.973-25.14-198.828,9.369-222.728c47.054-32.588,144.002,30.871,237.758,92.243
								c84.141,55.078,163.615,107.1,197.381,82.653c23.14-16.754,22.724-68.371-1.272-157.8
								c-26.797-99.863-29.451-154.727-8.115-167.725c28.895-17.601,96.948,44.366,162.758,104.298
								c62.191,56.634,120.933,110.127,143.78,95.532c17.868-11.412,11.662-64.321-18.973-161.749
								c-32.805-104.321-38.549-162.095-17.562-176.623c25.719-17.801,86.315,29.66,150.47,79.914
								c64.907,50.845,132.026,103.413,161.415,84.86c19.318-12.2,20.751-53.673,4.38-126.788l0.977-0.219
								c16.474,73.578,14.896,115.398-4.822,127.852c-4.269,2.695-9.3,3.938-14.97,3.939
								c-34.164,0.005-91.693-45.064-147.597-88.856c-30.759-24.095-62.565-49.011-88.963-65.005
								c-29.356-17.786-49.086-22.651-60.32-14.875c-20.58,14.246-14.71,71.652,17.945,175.5
								c30.79,97.92,36.86,151.203,18.558,162.893c-2.714,1.733-5.902,2.549-9.514,2.55c-27.659,0.002-80.212-47.857-135.477-98.186
								c-65.538-59.682-133.311-121.399-161.565-104.183c-20.906,12.735-18.106,67.234,8.56,166.61
								c24.116,89.877,24.408,141.844,0.894,158.869c-34.324,24.855-114.079-27.354-198.516-82.626
								c-93.478-61.189-190.135-124.462-236.641-92.258c-34.136,23.643-37.068,96.157-8.963,221.687L-40.986,634.207z"/>
						</g>
					</g>
					<g>
						<g>
							
								<linearGradient id="SVGID_00000096043695554838678250000017069463987127900056_" gradientUnits="userSpaceOnUse" x1="-71.79" y1="372.1541" x2="998.8709" y2="372.1541">
								<stop  offset="0" style="stop-color:#FF25B6"/>
								<stop  offset="0.013" style="stop-color:#F720C0"/>
								<stop  offset="0.0526" style="stop-color:#E112DB"/>
								<stop  offset="0.093" style="stop-color:#D208EE"/>
								<stop  offset="0.1345" style="stop-color:#C902F9"/>
								<stop  offset="0.1787" style="stop-color:#C600FD"/>
								<stop  offset="0.475" style="stop-color:#432AF3"/>
								<stop  offset="0.6457" style="stop-color:#2747ED"/>
								<stop  offset="1" style="stop-color:#000422"/>
							</linearGradient>
							<path style="fill:url(#SVGID_00000096043695554838678250000017069463987127900056_);" d="M-54.543,632.271
								c-26.547-123.451-22.48-195.339,12.434-219.77c48-33.59,145.58,27.79,239.946,87.148
								c84.685,53.269,164.674,103.581,199.098,78.363c23.387-17.134,23.649-68.019,0.804-155.564
								c-25.575-97.998-27.477-152.105-5.815-165.414c29.46-18.107,97.584,42.154,163.463,100.425
								c62.261,55.069,121.073,107.086,144.37,92.054c18.137-11.702,12.618-63.825-16.871-159.349
								c-31.552-102.202-36.56-159.12-15.312-174.004c26.207-18.359,87.042,27.706,151.449,76.477
								c65.131,49.318,132.482,100.317,162.466,81.21c19.598-12.485,21.626-53.423,6.201-125.152l0.979-0.21
								c15.523,72.186,13.35,113.468-6.642,126.205c-30.578,19.48-98.204-31.731-163.607-81.255
								c-64.108-48.545-124.66-94.393-150.271-76.456c-20.847,14.604-15.714,71.156,15.692,172.89
								c29.64,96.011,35.023,148.505,16.458,160.483c-2.896,1.869-6.31,2.747-10.182,2.747c-28.11,0.003-80.41-46.26-135.393-94.892
								c-65.606-58.03-133.449-118.033-162.277-100.322c-21.237,13.048-19.19,66.795,6.259,164.311
								c22.961,87.987,22.575,139.22-1.181,156.623c-6.459,4.733-14.466,6.868-23.759,6.868
								c-41.026,0.002-107.176-41.609-176.462-85.191C103.215,441.313,5.923,380.11-41.536,413.32
								c-34.548,24.176-38.483,95.727-12.03,218.74L-54.543,632.271z"/>
						</g>
					</g>
					<g>
						<g>
							
								<linearGradient id="SVGID_00000157296132080754959150000004760243673834577798_" gradientUnits="userSpaceOnUse" x1="-83.7612" y1="368.0875" x2="1005.4078" y2="368.0875">
								<stop  offset="0" style="stop-color:#FF25B6"/>
								<stop  offset="0.013" style="stop-color:#F720C0"/>
								<stop  offset="0.0526" style="stop-color:#E112DB"/>
								<stop  offset="0.093" style="stop-color:#D208EE"/>
								<stop  offset="0.1345" style="stop-color:#C902F9"/>
								<stop  offset="0.1787" style="stop-color:#C600FD"/>
								<stop  offset="0.475" style="stop-color:#432AF3"/>
								<stop  offset="0.6457" style="stop-color:#2747ED"/>
								<stop  offset="1" style="stop-color:#000422"/>
							</linearGradient>
							<path style="fill:url(#SVGID_00000157296132080754959150000004760243673834577798_);" d="M-68.257,630.576
								C-93.162,509.606-88.103,438.665-52.788,413.7c48.974-34.623,147.241,24.696,242.272,82.061
								c85.276,51.476,165.824,100.096,200.918,74.082c23.626-17.515,24.558-67.684,2.851-153.375
								c-24.361-96.163-25.514-149.533-3.526-163.16c30.039-18.617,98.272,39.947,164.256,96.585
								c62.366,53.531,121.284,104.092,145.03,88.602c18.402-11.997,13.564-63.354-14.791-157.004
								c-30.312-100.116-34.593-156.195-13.089-171.44c26.702-18.931,87.808,25.75,152.503,73.055
								c65.388,47.811,133,97.251,163.603,77.58c19.875-12.774,22.495-53.188,8.009-123.554l0.979-0.201
								c14.579,70.817,11.816,111.573-8.448,124.597c-4.871,3.131-10.644,4.561-17.16,4.562
								c-35.185,0.003-92.173-41.669-147.573-82.177c-64.394-47.085-125.216-91.562-151.334-73.046
								c-21.108,14.965-16.703,70.682,13.468,170.335c28.502,94.133,33.205,145.857,14.381,158.13
								c-3.094,2.017-6.751,2.961-10.899,2.961c-28.563,0.006-80.618-44.681-135.329-91.641
								c-65.711-56.402-133.661-114.723-163.078-96.494c-21.57,13.367-20.272,66.379,3.969,162.065
								c21.819,86.129,20.763,136.642-3.225,154.424c-6.899,5.114-15.501,7.409-25.494,7.411
								c-41.623,0.005-107.533-39.786-176.537-81.439C94.21,439.417-3.774,380.271-52.211,414.517
								c-34.955,24.711-39.883,95.319-15.067,215.858L-68.257,630.576z"/>
						</g>
					</g>
					<g>
						<g>
							
								<linearGradient id="SVGID_00000004530374108061979360000003252430156988714671_" gradientUnits="userSpaceOnUse" x1="-95.9684" y1="364.1383" x2="1012.274" y2="364.1383">
								<stop  offset="0" style="stop-color:#FF25B6"/>
								<stop  offset="0.013" style="stop-color:#F720C0"/>
								<stop  offset="0.0526" style="stop-color:#E112DB"/>
								<stop  offset="0.093" style="stop-color:#D208EE"/>
								<stop  offset="0.1345" style="stop-color:#C902F9"/>
								<stop  offset="0.1787" style="stop-color:#C600FD"/>
								<stop  offset="0.475" style="stop-color:#432AF3"/>
								<stop  offset="0.6457" style="stop-color:#2747ED"/>
								<stop  offset="1" style="stop-color:#000422"/>
							</linearGradient>
							<path style="fill:url(#SVGID_00000004530374108061979360000003252430156988714671_);" d="M-82.126,629.109
								c-23.281-118.522-17.242-188.533,18.463-214.033c49.971-35.691,148.99,21.583,244.748,76.972
								c85.92,49.697,167.075,96.642,202.858,69.8c23.856-17.894,25.447-67.357,4.864-151.216
								c-23.163-94.358-23.575-147.009-1.263-160.958c30.632-19.149,98.999,37.743,165.117,92.763
								c62.505,52.013,121.546,101.147,145.773,85.175c18.668-12.299,14.505-62.907-12.727-154.717
								c-29.083-98.056-32.646-153.31-10.892-168.921c27.216-19.526,88.626,23.789,153.647,69.645
								c65.682,46.321,133.599,94.216,164.825,73.969c20.151-13.066,23.356-52.972,9.799-121.997l0.981-0.192
								c13.646,69.471,10.298,109.714-10.235,123.028c-5.205,3.375-11.391,4.908-18.376,4.909
								c-35.692,0.004-92.414-40.002-147.569-78.9c-64.725-45.646-125.859-88.76-152.488-69.649
								c-21.364,15.332-17.679,70.227,11.268,167.823c27.374,92.289,31.403,143.264,12.318,155.837
								c-24.858,16.372-84.168-32.985-146.964-85.241c-65.844-54.791-133.93-111.449-163.947-92.683
								c-21.899,13.691-21.342,65.986,1.704,159.872c20.69,84.291,18.978,134.094-5.234,152.254
								c-7.371,5.529-16.606,7.995-27.359,7.995c-42.215,0.003-107.887-37.984-176.599-77.729
								C85.102,437.684-13.635,380.576-63.081,415.89c-35.353,25.248-41.261,94.93-18.063,213.026L-82.126,629.109z"/>
						</g>
					</g>
					<g>
						<g>
							
								<linearGradient id="SVGID_00000027597600458418316100000001968108125181382296_" gradientUnits="userSpaceOnUse" x1="-108.4114" y1="360.3065" x2="1019.46" y2="360.3065">
								<stop  offset="0" style="stop-color:#FF25B6"/>
								<stop  offset="0.013" style="stop-color:#F720C0"/>
								<stop  offset="0.0526" style="stop-color:#E112DB"/>
								<stop  offset="0.093" style="stop-color:#D208EE"/>
								<stop  offset="0.1345" style="stop-color:#C902F9"/>
								<stop  offset="0.1787" style="stop-color:#C600FD"/>
								<stop  offset="0.475" style="stop-color:#432AF3"/>
								<stop  offset="0.6457" style="stop-color:#2747ED"/>
								<stop  offset="1" style="stop-color:#000422"/>
							</linearGradient>
							<path style="fill:url(#SVGID_00000027597600458418316100000001968108125181382296_);" d="M-96.149,627.87
								c-21.673-116.111-14.666-185.209,21.423-211.243c51-36.789,150.824,18.457,247.363,71.882
								c86.613,47.935,168.425,93.211,204.906,65.523c24.079-18.273,26.317-67.044,6.844-149.1
								c-21.973-92.585-21.65-144.532,0.986-158.81c31.235-19.697,99.779,35.546,166.068,88.972
								c62.677,50.516,121.877,98.231,146.593,81.774c18.932-12.605,15.438-62.482-10.681-152.476
								c-27.871-96.031-30.726-150.482-8.727-166.461c27.724-20.14,89.482,21.821,154.867,66.244
								c66.007,44.846,134.26,91.221,166.135,70.373c20.424-13.36,24.21-52.765,11.574-120.468l0.982-0.184
								c12.719,68.143,8.79,107.883-12.01,121.488c-5.562,3.638-12.189,5.282-19.681,5.283
								c-36.193,0.002-92.651-38.357-147.563-75.665c-65.088-44.221-126.565-85.988-153.718-66.262
								c-21.615,15.702-18.639,69.796,9.101,165.373c26.256,90.469,29.616,140.708,10.274,153.587
								c-25.321,16.857-84.803-31.074-147.775-81.828c-66.016-53.206-134.28-108.222-164.907-88.904
								c-22.23,14.021-22.409,65.617-0.547,157.734c19.574,82.482,17.215,131.589-7.212,150.127
								c-7.873,5.975-17.795,8.621-29.363,8.622c-42.797,0.006-108.217-36.204-176.632-74.067
								c-96.266-53.275-195.81-108.368-246.294-71.945c-35.743,25.784-42.62,94.557-21.025,210.248L-96.149,627.87z"/>
						</g>
					</g>
					<g>
						<g>
							
								<linearGradient id="SVGID_00000099663746330899846740000012481374837374553270_" gradientUnits="userSpaceOnUse" x1="-121.1229" y1="356.5891" x2="1026.9769" y2="356.5891">
								<stop  offset="0" style="stop-color:#FF25B6"/>
								<stop  offset="0.013" style="stop-color:#F720C0"/>
								<stop  offset="0.0526" style="stop-color:#E112DB"/>
								<stop  offset="0.093" style="stop-color:#D208EE"/>
								<stop  offset="0.1345" style="stop-color:#C902F9"/>
								<stop  offset="0.1787" style="stop-color:#C600FD"/>
								<stop  offset="0.475" style="stop-color:#432AF3"/>
								<stop  offset="0.6457" style="stop-color:#2747ED"/>
								<stop  offset="1" style="stop-color:#000422"/>
							</linearGradient>
							<path style="fill:url(#SVGID_00000099663746330899846740000012481374837374553270_);" d="M-110.36,626.859
								c-20.081-113.735-12.117-181.936,24.348-208.504c52.058-37.926,152.752,15.307,250.132,66.786
								c87.361,46.183,169.879,89.807,207.078,61.243c24.292-18.65,27.168-66.738,8.794-147.013
								c-20.793-90.837-19.739-142.097,3.221-156.708c31.852-20.272,100.611,33.346,167.106,85.198
								c62.884,49.036,122.283,95.352,147.485,78.387c19.191-12.918,16.359-62.078-8.66-150.29
								c-26.668-94.029-28.823-147.687-6.586-164.04c28.25-20.776,90.393,19.845,156.184,62.853
								c66.37,43.387,135.001,88.253,167.527,66.787c20.692-13.655,25.052-52.573,13.325-118.976l0.984-0.174
								c11.804,66.838,7.303,106.085-13.759,119.984c-33.077,21.824-101.984-23.221-168.626-66.785
								c-65.488-42.812-127.346-83.25-155.044-62.885c-21.86,16.076-19.585,69.381,6.957,162.961
								c25.151,88.682,27.852,138.202,8.255,151.393c-25.803,17.373-85.48-29.163-148.658-78.428
								c-66.222-51.639-134.702-105.034-165.954-85.143c-22.559,14.356-23.469,65.268-2.783,155.642
								c18.471,80.695,15.475,129.115-9.16,148.028c-8.411,6.457-19.07,9.297-31.519,9.298
								c-43.369,0.004-108.532-34.447-176.636-70.45C66.543,434.69-33.872,381.607-85.423,419.164
								c-36.125,26.319-43.96,94.2-23.952,207.521L-110.36,626.859z"/>
						</g>
					</g>
					<g>
						<g>
							
								<linearGradient id="SVGID_00000150077302170591438280000002659413635551461807_" gradientUnits="userSpaceOnUse" x1="-134.0823" y1="352.9904" x2="1034.8389" y2="352.9904">
								<stop  offset="0" style="stop-color:#FF25B6"/>
								<stop  offset="0.013" style="stop-color:#F720C0"/>
								<stop  offset="0.0526" style="stop-color:#E112DB"/>
								<stop  offset="0.093" style="stop-color:#D208EE"/>
								<stop  offset="0.1345" style="stop-color:#C902F9"/>
								<stop  offset="0.1787" style="stop-color:#C600FD"/>
								<stop  offset="0.475" style="stop-color:#432AF3"/>
								<stop  offset="0.6457" style="stop-color:#2747ED"/>
								<stop  offset="1" style="stop-color:#000422"/>
							</linearGradient>
							<path style="fill:url(#SVGID_00000150077302170591438280000002659413635551461807_);" d="M-124.728,626.078
								c-18.512-111.395-9.606-178.716,27.224-205.812c53.138-39.092,154.766,12.139,253.045,61.683
								c88.164,44.443,171.439,86.423,209.376,56.963c24.496-19.023,28-66.439,10.712-144.954
								c-19.623-89.125-17.843-139.717,5.439-154.668c32.487-20.858,101.495,31.152,168.231,81.452
								c63.122,47.576,122.747,92.518,148.449,75.022c19.449-13.233,17.271-61.691-6.655-148.142
								c-25.482-92.062-26.948-144.946-4.479-161.674c28.793-21.436,91.352,17.858,157.585,59.462
								c66.773,41.942,135.823,85.31,169.022,63.212c20.962-13.954,25.891-52.394,15.068-117.518l0.986-0.164
								c10.895,65.553,5.824,104.319-15.5,118.514c-33.744,22.459-103.065-21.087-170.107-63.198
								c-65.937-41.416-128.214-80.535-156.456-59.507c-22.099,16.453-20.515,68.988,4.846,160.605
								c24.056,86.916,26.102,135.731,6.254,149.236c-4.027,2.74-8.845,4.002-14.34,4.002
								c-30.389,0.003-81.569-38.574-135.273-79.053c-66.463-50.094-135.187-101.893-167.089-81.409
								c-22.888,14.697-24.525,64.944-5.003,153.611c17.38,78.931,13.757,126.675-11.075,145.959
								c-8.983,6.976-20.44,10.021-33.837,10.021c-43.929,0.006-108.82-32.712-176.602-66.882
								c-98.011-49.408-199.359-100.499-252.002-61.77c-36.498,26.851-45.274,93.855-26.83,204.842L-124.728,626.078z"/>
						</g>
					</g>
					<g>
						<g>
							
								<linearGradient id="SVGID_00000075159817887303294540000007577187962211366529_" gradientUnits="userSpaceOnUse" x1="-147.3134" y1="349.5042" x2="1043.0424" y2="349.5042">
								<stop  offset="0" style="stop-color:#FF25B6"/>
								<stop  offset="0.013" style="stop-color:#F720C0"/>
								<stop  offset="0.0526" style="stop-color:#E112DB"/>
								<stop  offset="0.093" style="stop-color:#D208EE"/>
								<stop  offset="0.1345" style="stop-color:#C902F9"/>
								<stop  offset="0.1787" style="stop-color:#C600FD"/>
								<stop  offset="0.475" style="stop-color:#432AF3"/>
								<stop  offset="0.6457" style="stop-color:#2747ED"/>
								<stop  offset="1" style="stop-color:#000422"/>
							</linearGradient>
							<path style="fill:url(#SVGID_00000075159817887303294540000007577187962211366529_);" d="M-139.281,625.532
								c-16.958-109.09-7.124-175.546,30.064-203.165c54.252-40.294,156.871,8.945,256.111,56.564
								c89.02,42.714,173.105,83.061,211.796,52.672c24.692-19.392,28.813-66.147,12.596-142.936
								c-18.465-87.432-15.969-137.367,7.632-152.66c33.138-21.469,102.428,28.952,169.439,77.714
								c63.399,46.133,123.283,89.71,149.504,71.669c19.704-13.555,18.175-61.329-4.676-146.052
								c-24.306-90.112-25.089-142.231-2.396-159.336c29.344-22.119,92.362,15.864,159.079,56.079
								c67.215,40.514,136.719,82.408,170.611,59.65c21.228-14.252,26.72-52.226,16.792-116.09l0.988-0.153
								c9.993,64.287,4.36,102.583-17.223,117.073c-6.786,4.557-14.95,6.58-24.196,6.581c-37.654,0.002-93.31-33.548-147.488-66.204
								c-66.42-40.035-129.152-77.85-157.962-56.136c-22.329,16.831-21.427,68.604,2.76,158.276
								c22.975,85.183,24.374,133.312,4.278,147.137c-4.303,2.96-9.468,4.316-15.366,4.317
								c-30.846,0.002-81.824-37.095-135.294-76.002c-66.738-48.563-135.75-98.782-168.307-77.684
								c-23.213,15.042-25.567,64.635-7.197,151.614c16.303,77.198,12.065,124.278-12.956,143.931
								c-39.18,30.773-123.537-9.705-212.847-52.558C47.489,432.344-54.853,383.235-108.62,423.17
								c-36.862,27.377-46.568,93.521-29.673,202.208L-139.281,625.532z"/>
						</g>
					</g>
					<g>
						<g>
							
								<linearGradient id="SVGID_00000081643308119927373820000014245700873548385446_" gradientUnits="userSpaceOnUse" x1="-160.8178" y1="346.1292" x2="1051.5881" y2="346.1292">
								<stop  offset="0" style="stop-color:#FF25B6"/>
								<stop  offset="0.013" style="stop-color:#F720C0"/>
								<stop  offset="0.0526" style="stop-color:#E112DB"/>
								<stop  offset="0.093" style="stop-color:#D208EE"/>
								<stop  offset="0.1345" style="stop-color:#C902F9"/>
								<stop  offset="0.1787" style="stop-color:#C600FD"/>
								<stop  offset="0.475" style="stop-color:#432AF3"/>
								<stop  offset="0.6457" style="stop-color:#2747ED"/>
								<stop  offset="1" style="stop-color:#000422"/>
							</linearGradient>
							<path style="fill:url(#SVGID_00000081643308119927373820000014245700873548385446_);" d="M-154.017,625.21
								c-15.424-106.82-4.674-172.426,32.863-200.565c55.4-41.53,159.078,5.727,259.343,51.427
								c89.933,40.99,174.879,79.71,214.339,48.369c24.877-19.757,29.6-65.857,14.44-140.936
								c-17.317-85.769-14.109-135.064,9.81-150.703c33.797-22.098,103.417,26.756,170.743,74.002
								c63.711,44.71,123.888,86.942,150.636,68.338c19.954-13.88,19.065-60.982-2.719-144
								c-23.143-88.198-23.255-139.571-0.344-157.054c29.912-22.825,93.424,13.854,160.665,52.69
								c67.689,39.095,137.682,79.521,172.287,56.088c21.489-14.551,27.539-52.068,18.497-114.694l0.99-0.142
								c9.103,63.043,2.911,100.877-18.927,115.664c-7.252,4.911-16.007,7.077-25.926,7.078
								c-38.121,0.002-93.498-31.984-147.423-63.128c-66.942-38.664-130.177-75.186-159.558-52.761
								c-22.555,17.211-22.324,68.241,0.704,156.005c21.902,83.473,22.663,130.927,2.323,145.074
								c-4.596,3.196-10.133,4.655-16.463,4.655c-31.301,0.004-82.079-35.634-135.319-72.995
								c-67.053-47.056-136.39-95.71-169.621-73.984c-23.537,15.389-26.604,64.346-9.376,149.668
								c15.241,75.482,10.4,121.904-14.799,141.917c-10.249,8.14-23.486,11.633-39.016,11.634
								c-44.994,0.004-109.291-29.307-176.36-59.877c-99.998-45.579-203.402-92.713-258.328-51.536
								c-37.218,27.899-47.84,93.196-32.473,199.622L-154.017,625.21z"/>
						</g>
					</g>
					<g>
						<g>
							
								<linearGradient id="SVGID_00000137838566147203024680000006242322913452299906_" gradientUnits="userSpaceOnUse" x1="-174.607" y1="340.8538" x2="1060.4932" y2="340.8538">
								<stop  offset="0" style="stop-color:#FF25B6"/>
								<stop  offset="0.013" style="stop-color:#F720C0"/>
								<stop  offset="0.0526" style="stop-color:#E112DB"/>
								<stop  offset="0.093" style="stop-color:#D208EE"/>
								<stop  offset="0.1345" style="stop-color:#C902F9"/>
								<stop  offset="0.1787" style="stop-color:#C600FD"/>
								<stop  offset="0.475" style="stop-color:#432AF3"/>
								<stop  offset="0.6457" style="stop-color:#2747ED"/>
								<stop  offset="1" style="stop-color:#000422"/>
							</linearGradient>
							<path style="fill:url(#SVGID_00000137838566147203024680000006242322913452299906_);" d="M-168.943,625.121
								c-13.91-104.584-2.26-169.351,35.617-198.001c56.58-42.796,161.379,2.485,262.729,46.275
								c90.902,39.277,176.765,76.376,217.016,44.059c25.052-20.113,30.369-65.568,16.253-138.964
								c-16.182-84.135-12.267-132.807,11.968-148.796c34.481-22.746,104.462,24.551,172.14,70.294
								c64.06,43.3,124.57,84.194,151.851,65.008c20.199-14.207,19.943-60.651-0.782-141.986
								c-21.993-86.306-21.444-136.943,1.676-154.804c30.495-23.559,94.544,11.833,162.354,49.302
								c68.204,37.686,138.729,76.657,174.064,52.532c21.746-14.849,28.347-51.917,20.18-113.322l0.992-0.132
								c8.221,61.816,1.48,99.197-20.608,114.28c-7.75,5.292-17.14,7.61-27.782,7.611c-38.574,0.002-93.666-30.441-147.329-60.094
								c-67.515-37.306-131.282-72.54-161.259-49.386c-22.771,17.591-23.202,67.888-1.318,153.766
								c20.841,81.785,20.968,128.577,0.389,143.051c-27.849,19.586-88.633-21.501-152.986-64.998
								c-67.405-45.559-137.106-92.669-171.029-70.287c-23.859,15.742-27.633,64.078-11.537,147.772
								c14.192,73.794,8.759,119.566-16.609,139.934c-10.946,8.788-25.18,12.524-41.904,12.526
								c-45.494,0.003-109.458-27.638-176.134-56.447c-101.087-43.677-205.614-88.842-261.729-46.396
								c-37.564,28.413-49.087,92.876-35.229,197.071L-168.943,625.121z"/>
						</g>
					</g>
					<g>
						<g>
							
								<linearGradient id="SVGID_00000175306342014231123630000005397277056350618039_" gradientUnits="userSpaceOnUse" x1="-188.6938" y1="335.197" x2="1069.7499" y2="335.197">
								<stop  offset="0" style="stop-color:#FF25B6"/>
								<stop  offset="0.013" style="stop-color:#F720C0"/>
								<stop  offset="0.0526" style="stop-color:#E112DB"/>
								<stop  offset="0.093" style="stop-color:#D208EE"/>
								<stop  offset="0.1345" style="stop-color:#C902F9"/>
								<stop  offset="0.1787" style="stop-color:#C600FD"/>
								<stop  offset="0.475" style="stop-color:#432AF3"/>
								<stop  offset="0.6457" style="stop-color:#2747ED"/>
								<stop  offset="1" style="stop-color:#000422"/>
							</linearGradient>
							<path style="fill:url(#SVGID_00000175306342014231123630000005397277056350618039_);" d="M-184.072,625.257
								c-12.415-102.388,0.124-166.331,38.333-195.483c57.796-44.099,163.785-0.785,266.284,41.101
								c91.928,37.566,178.757,73.05,219.817,39.732c25.218-20.462,31.115-65.28,18.027-137.017
								c-15.054-82.523-10.439-130.583,14.108-146.923c35.18-23.42,105.563,22.345,173.627,66.604
								c64.446,41.906,125.321,81.487,153.149,61.693c20.441-14.537,20.811-60.339,1.13-140.022
								c-20.856-84.441-19.657-134.355,3.666-152.593c31.09-24.311,95.717,9.797,164.138,45.91
								c68.761,36.291,139.861,73.817,175.941,48.98c22.001-15.146,29.147-51.775,21.848-111.98l0.992-0.12
								c7.35,60.609,0.063,97.547-22.272,112.924c-8.283,5.702-18.355,8.182-29.775,8.182c-39.012,0.002-93.807-28.92-147.2-57.102
								c-68.127-35.957-132.475-69.92-163.056-46.006c-22.979,17.969-24.063,67.547-3.311,151.565
								c19.791,80.128,19.293,126.274-1.521,141.078c-5.245,3.73-11.611,5.413-18.908,5.414
								c-32.199,0.002-82.588-32.766-135.366-67.085c-67.793-44.083-137.898-89.668-172.528-66.609
								c-24.178,16.095-28.652,63.823-13.679,145.911c13.159,72.128,7.146,117.26-18.38,137.973
								c-11.691,9.485-27.001,13.479-45.014,13.48c-45.964,0.002-109.565-25.991-175.812-53.063
								c-102.239-41.779-207.957-84.981-265.299-41.231c-37.902,28.919-50.315,92.563-37.946,194.567L-184.072,625.257z"/>
						</g>
					</g>
					<g>
						<g>
							
								<linearGradient id="SVGID_00000090992290600643932770000004270840202358229655_" gradientUnits="userSpaceOnUse" x1="-203.0769" y1="329.6428" x2="1079.3708" y2="329.6428">
								<stop  offset="0" style="stop-color:#FF25B6"/>
								<stop  offset="0.013" style="stop-color:#F720C0"/>
								<stop  offset="0.0526" style="stop-color:#E112DB"/>
								<stop  offset="0.093" style="stop-color:#D208EE"/>
								<stop  offset="0.1345" style="stop-color:#C902F9"/>
								<stop  offset="0.1787" style="stop-color:#C600FD"/>
								<stop  offset="0.475" style="stop-color:#432AF3"/>
								<stop  offset="0.6457" style="stop-color:#2747ED"/>
								<stop  offset="1" style="stop-color:#000422"/>
							</linearGradient>
							<path style="fill:url(#SVGID_00000090992290600643932770000004270840202358229655_);" d="M-199.399,625.615
								c-10.94-100.219,2.472-163.345,41.001-192.988C-99.352,387.2,7.889,428.543,111.6,468.526
								c93.016,35.859,180.873,69.731,222.769,35.386c25.375-20.803,31.843-64.992,19.772-135.094
								c-13.941-80.939-8.636-128.4,16.219-145.095c35.897-24.113,106.719,20.13,175.208,62.917
								c64.87,40.524,126.143,78.803,154.538,58.384c20.678-14.87,21.664-60.04,3.018-138.09
								c-19.731-82.602-17.892-131.803,5.625-150.415c31.7-25.089,96.943,7.743,166.019,42.506
								c69.352,34.901,141.065,70.995,177.915,45.424c22.253-15.442,29.938-51.643,23.495-110.671l0.994-0.108
								c6.486,59.426-1.337,95.931-23.919,111.601c-8.854,6.143-19.658,8.793-31.914,8.793
								c-39.431,0.002-93.914-27.419-147.021-54.146C805.535,65.304,740.57,32.61,709.368,57.304
								c-23.18,18.346-24.904,67.215-5.272,149.398c18.752,78.489,17.638,124-3.406,139.134
								c-28.938,20.812-90.489-17.64-155.651-58.348c-68.221-42.618-138.764-86.687-174.122-62.935
								c-24.493,16.452-29.658,63.585-15.791,144.095c12.138,70.488,5.555,114.986-20.123,136.037
								c-42.346,34.712-130.467,0.742-223.762-35.226C7.787,429.576-99.187,388.335-157.789,433.42
								c-38.23,29.412-51.516,92.244-40.617,192.086L-199.399,625.615z"/>
						</g>
					</g>
					<g>
						<g>
							
								<linearGradient id="SVGID_00000107588214804241366310000007038649071079723420_" gradientUnits="userSpaceOnUse" x1="-217.7773" y1="324.2102" x2="1089.3658" y2="324.2102">
								<stop  offset="0" style="stop-color:#FF25B6"/>
								<stop  offset="0.013" style="stop-color:#F720C0"/>
								<stop  offset="0.0526" style="stop-color:#E112DB"/>
								<stop  offset="0.093" style="stop-color:#D208EE"/>
								<stop  offset="0.1345" style="stop-color:#C902F9"/>
								<stop  offset="0.1787" style="stop-color:#C600FD"/>
								<stop  offset="0.475" style="stop-color:#432AF3"/>
								<stop  offset="0.6457" style="stop-color:#2747ED"/>
								<stop  offset="1" style="stop-color:#000422"/>
							</linearGradient>
							<path style="fill:url(#SVGID_00000107588214804241366310000007038649071079723420_);" d="M-214.943,626.219
								c-9.486-98.092,4.785-160.419,43.63-190.543c60.337-46.793,168.901-7.413,273.892,30.669
								c94.16,34.153,183.096,66.416,225.845,31.018c25.522-21.131,32.546-64.698,21.473-133.19
								c-12.835-79.379-6.843-126.254,18.318-143.306c36.637-24.826,107.939,17.909,176.895,59.237
								c65.332,39.156,127.039,76.143,156.011,55.075c20.908-15.203,22.504-59.752,4.881-136.193
								c-18.622-80.785-16.153-129.284,7.548-148.268c32.333-25.896,98.235,5.674,168.008,39.093
								c69.988,33.522,142.358,68.187,179.995,41.867c22.5-15.734,30.717-51.513,25.12-109.379l0.996-0.097
								c5.634,58.257-2.721,94.335-25.543,110.295c-9.461,6.616-21.06,9.446-34.211,9.448
								c-39.828,0.004-93.979-25.938-146.789-51.232c-69.484-33.281-135.113-64.715-166.951-39.214
								c-23.371,18.72-25.726,66.89-7.198,147.263c17.724,76.875,16,121.762-5.268,137.228c-5.984,4.352-13.31,6.292-21.725,6.293
								c-33.078,0.002-83.074-29.966-135.388-61.32c-68.688-41.167-139.715-83.734-175.819-59.267
								c-24.806,16.81-30.659,63.362-17.892,142.317c11.134,68.873,3.997,112.744-21.822,134.121
								c-13.339,11.044-31.072,15.591-51.986,15.592c-46.805,0.002-109.567-22.765-174.837-46.439
								C-2.497,429.296-110.797,390.014-170.7,436.466c-38.551,29.897-52.698,91.934-43.248,189.657L-214.943,626.219z"/>
						</g>
					</g>
					<g>
						<g>
							
								<linearGradient id="SVGID_00000102519475929013400120000009846403232852830137_" gradientUnits="userSpaceOnUse" x1="-232.7945" y1="318.8721" x2="1099.7296" y2="318.8721">
								<stop  offset="0" style="stop-color:#FF25B6"/>
								<stop  offset="0.013" style="stop-color:#F720C0"/>
								<stop  offset="0.0526" style="stop-color:#E112DB"/>
								<stop  offset="0.093" style="stop-color:#D208EE"/>
								<stop  offset="0.1345" style="stop-color:#C902F9"/>
								<stop  offset="0.1787" style="stop-color:#C600FD"/>
								<stop  offset="0.475" style="stop-color:#432AF3"/>
								<stop  offset="0.6457" style="stop-color:#2747ED"/>
								<stop  offset="1" style="stop-color:#000422"/>
							</linearGradient>
							<path style="fill:url(#SVGID_00000102519475929013400120000009846403232852830137_);" d="M-230.699,627.034
								c-8.054-95.995,7.062-157.529,46.211-188.118c61.665-48.185,171.62-10.769,277.956,25.411
								c95.363,32.448,185.439,63.098,229.063,26.63c25.659-21.448,33.227-64.398,23.136-131.306
								c-11.742-77.844-5.072-124.146,20.391-141.554c37.395-25.564,109.218,15.678,178.678,55.559
								c65.836,37.802,128.023,73.508,157.582,51.772c21.134-15.538,23.333-59.479,6.723-134.334
								C691.514,112.099,694.6,64.291,718.477,44.94c32.966-26.721,99.576,3.582,170.095,35.665
								c70.66,32.148,143.729,65.393,182.177,38.303c22.745-16.024,31.487-51.389,26.729-108.115l0.996-0.084
								c4.792,57.11-4.089,92.77-27.148,109.016c-10.113,7.126-22.561,10.146-36.678,10.147
								c-40.201,0.003-94.002-24.478-146.49-48.358c-70.228-31.951-136.559-62.132-169.051-35.798
								c-23.553,19.088-26.525,66.571-9.088,145.161c16.705,75.283,14.381,119.559-7.107,135.357
								c-6.393,4.7-14.253,6.782-23.292,6.783c-33.508,0.004-83.304-28.592-135.38-58.492
								c-69.193-39.729-140.743-80.811-177.616-55.602c-25.115,17.169-31.646,63.153-19.967,140.58
								c10.147,67.28,2.466,110.53-23.483,132.222c-14.249,11.911-33.344,16.754-55.888,16.755
								c-47.161,0.002-109.434-21.189-174.139-43.205c-106.083-36.096-215.778-73.421-277.018-25.57
								c-38.863,30.365-53.854,91.614-45.831,187.246L-230.699,627.034z"/>
						</g>
					</g>
					<g>
						<g>
							
								<linearGradient id="SVGID_00000135676537856410918150000013166251883745864336_" gradientUnits="userSpaceOnUse" x1="-248.1383" y1="313.6523" x2="1110.4843" y2="313.6523">
								<stop  offset="0" style="stop-color:#FF25B6"/>
								<stop  offset="0.013" style="stop-color:#F720C0"/>
								<stop  offset="0.0526" style="stop-color:#E112DB"/>
								<stop  offset="0.093" style="stop-color:#D208EE"/>
								<stop  offset="0.1345" style="stop-color:#C902F9"/>
								<stop  offset="0.1787" style="stop-color:#C600FD"/>
								<stop  offset="0.475" style="stop-color:#432AF3"/>
								<stop  offset="0.6457" style="stop-color:#2747ED"/>
								<stop  offset="1" style="stop-color:#000422"/>
							</linearGradient>
							<path style="fill:url(#SVGID_00000135676537856410918150000013166251883745864336_);" d="M-246.676,628.095
								c-6.643-93.942,9.306-154.699,48.756-185.741c63.035-49.601,174.447-14.157,282.191,20.119
								c96.624,30.741,187.891,59.774,232.414,22.217c25.787-21.753,33.887-64.092,24.765-129.436
								c-10.658-76.333-3.315-122.074,22.448-139.838c38.173-26.318,110.56,13.436,180.565,51.884
								c66.378,36.455,129.074,70.892,159.244,48.465c21.354-15.872,24.148-59.218,8.54-132.513
								c-16.445-77.232-12.752-124.357,11.292-144.069c33.631-27.571,100.984,1.475,172.291,32.228
								c71.376,30.782,145.187,62.613,184.463,34.74c22.985-16.309,32.247-51.267,28.315-106.87l0.998-0.07
								c3.958,55.98-5.441,91.228-28.734,107.756c-39.741,28.199-113.809-3.745-185.438-34.637
								c-71.02-30.628-138.102-59.56-171.261-32.372c-23.727,19.452-27.308,66.256-10.947,143.087
								c15.697,73.718,12.779,117.394-8.922,133.524c-30.682,22.809-93.653-11.776-160.322-48.391
								c-69.737-38.301-141.849-77.905-179.516-51.937c-25.421,17.528-32.625,62.955-22.025,138.876
								c9.174,65.712,0.96,108.346-25.11,130.338c-15.222,12.842-35.794,17.994-60.101,17.995
								c-47.462,0.002-109.184-19.637-173.262-40.022c-107.495-34.198-218.65-69.56-281.27-20.286
								c-39.169,30.821-54.994,91.298-48.376,184.885L-246.676,628.095z"/>
						</g>
					</g>
					<g>
						<g>
							
								<linearGradient id="SVGID_00000177475514726829859820000009451161377306683571_" gradientUnits="userSpaceOnUse" x1="-263.8185" y1="308.5279" x2="1121.6204" y2="308.5279">
								<stop  offset="0" style="stop-color:#FF25B6"/>
								<stop  offset="0.013" style="stop-color:#F720C0"/>
								<stop  offset="0.0526" style="stop-color:#E112DB"/>
								<stop  offset="0.093" style="stop-color:#D208EE"/>
								<stop  offset="0.1345" style="stop-color:#C902F9"/>
								<stop  offset="0.1787" style="stop-color:#C600FD"/>
								<stop  offset="0.475" style="stop-color:#432AF3"/>
								<stop  offset="0.6457" style="stop-color:#2747ED"/>
								<stop  offset="1" style="stop-color:#000422"/>
							</linearGradient>
							<path style="fill:url(#SVGID_00000177475514726829859820000009451161377306683571_);" d="M-262.88,629.383
								c-5.254-91.924,11.511-151.91,51.253-183.389c64.448-51.047,177.385-17.576,286.604,14.792
								c97.949,29.03,190.468,56.448,235.915,17.775c25.907-22.045,34.528-63.779,26.355-127.591
								c-9.586-74.845-1.579-120.035,24.479-138.154c38.972-27.099,111.964,11.185,182.554,48.207
								c66.961,35.119,130.207,68.29,160.997,45.154c21.568-16.205,24.946-58.965,10.327-130.723
								c-15.379-75.491-11.091-121.942,13.11-142.008c34.311-28.449,102.456-0.655,174.601,28.768
								c72.134,29.419,146.724,59.838,186.861,31.163c23.222-16.59,32.995-51.147,29.88-105.648l0.998-0.057
								c3.137,54.871-6.773,89.713-30.297,106.519c-11.559,8.258-25.902,11.688-42.17,11.689
								c-40.855,0.002-93.881-21.626-145.65-42.739C831.079,33.833,763.203,6.149,729.353,34.217
								c-23.891,19.809-28.066,65.943-12.768,141.039c14.703,72.175,11.201,115.261-10.707,131.722
								c-7.295,5.48-16.346,7.874-26.781,7.875c-34.334,0.003-83.708-25.896-135.281-52.943
								c-70.325-36.883-143.045-75.024-181.518-48.272c-25.723,17.886-33.592,62.766-24.058,137.206
								c8.218,64.173-0.515,106.198-26.7,128.479c-16.266,13.841-38.443,19.314-64.661,19.315
								c-47.703,0.003-108.806-18.109-172.187-36.894c-108.974-32.295-221.658-65.69-285.698-14.967
								c-39.468,31.261-56.11,90.973-50.876,182.548L-262.88,629.383z"/>
						</g>
					</g>
					<g>
						<g>
							
								<linearGradient id="SVGID_00000128486679796005258070000015461596527567235470_" gradientUnits="userSpaceOnUse" x1="-279.8511" y1="303.5053" x2="1133.1581" y2="303.5053">
								<stop  offset="0" style="stop-color:#FF25B6"/>
								<stop  offset="0.013" style="stop-color:#F720C0"/>
								<stop  offset="0.0526" style="stop-color:#E112DB"/>
								<stop  offset="0.093" style="stop-color:#D208EE"/>
								<stop  offset="0.1345" style="stop-color:#C902F9"/>
								<stop  offset="0.1787" style="stop-color:#C600FD"/>
								<stop  offset="0.475" style="stop-color:#432AF3"/>
								<stop  offset="0.6457" style="stop-color:#2747ED"/>
								<stop  offset="1" style="stop-color:#000422"/>
							</linearGradient>
							<path style="fill:url(#SVGID_00000128486679796005258070000015461596527567235470_);" d="M-279.324,630.904
								c-3.887-89.944,13.682-149.173,53.71-181.071c65.904-52.517,180.436-21.026,291.197,9.429
								c99.335,27.312,193.161,53.109,239.558,13.305c26.018-22.321,35.147-63.458,27.909-125.76
								c-8.527-73.384,0.137-118.036,26.487-136.508c39.797-27.897,113.44,8.921,184.658,44.527
								c67.585,33.791,131.422,65.709,162.851,41.841c21.774-16.535,25.728-58.716,12.088-128.953
								c-14.327-73.779-9.455-119.567,14.894-139.98c35.009-29.345,103.986-2.807,177.015,25.289
								c72.93,28.058,148.344,57.074,189.368,27.578c23.457-16.865,33.738-51.031,31.431-104.451l0.999-0.043
								c2.323,53.783-8.094,88.229-31.846,105.306c-12.359,8.886-27.764,12.537-45.23,12.537
								c-41.129,0.001-93.716-20.232-145.08-39.994C837.938,25.969,769.227-0.468,734.671,28.5
								c-24.046,20.158-28.808,65.633-14.555,139.023c13.72,70.647,9.643,113.151-12.466,129.94
								c-7.792,5.917-17.507,8.48-28.72,8.481c-34.729,0.003-83.877-24.573-135.183-50.225
								c-70.956-35.476-144.329-72.16-183.636-44.602c-26.022,18.242-34.549,62.589-26.068,135.574
								c7.28,62.657-1.961,104.08-28.25,126.634c-46.802,40.15-140.877,14.286-240.474-13.1
								c-110.521-30.389-224.802-61.81-290.309-9.61c-39.761,31.685-57.207,90.644-53.335,180.246L-279.324,630.904z"/>
						</g>
					</g>
					<g>
						<g>
							
								<linearGradient id="SVGID_00000128460215254554297470000005585574604127038385_" gradientUnits="userSpaceOnUse" x1="-296.2396" y1="298.5804" x2="1145.0986" y2="298.5804">
								<stop  offset="0" style="stop-color:#FF25B6"/>
								<stop  offset="0.013" style="stop-color:#F720C0"/>
								<stop  offset="0.0526" style="stop-color:#E112DB"/>
								<stop  offset="0.093" style="stop-color:#D208EE"/>
								<stop  offset="0.1345" style="stop-color:#C902F9"/>
								<stop  offset="0.1787" style="stop-color:#C600FD"/>
								<stop  offset="0.475" style="stop-color:#432AF3"/>
								<stop  offset="0.6457" style="stop-color:#2747ED"/>
								<stop  offset="1" style="stop-color:#000422"/>
							</linearGradient>
							<path style="fill:url(#SVGID_00000128460215254554297470000005585574604127038385_);" d="M-296.008,632.65
								c-2.543-88.004,15.816-146.484,56.127-178.784c30.186-24.187,73.274-33.611,131.732-28.804
								c51.66,4.245,108.895,18.778,164.244,32.833c100.781,25.591,195.973,49.763,243.346,8.808
								c26.12-22.58,35.745-63.121,29.423-123.939c-7.478-71.944,1.835-116.067,28.473-134.89
								c40.643-28.719,114.976,6.643,186.86,40.84c68.251,32.471,132.718,63.138,164.801,38.519
								c21.976-16.863,26.497-58.477,13.824-127.219c-13.29-72.088-7.845-117.219,16.646-137.969
								c35.722-30.27,105.586-4.983,179.552,21.787c73.771,26.699,150.051,54.307,191.983,23.979
								c23.688-17.134,34.469-50.915,32.956-103.273l1-0.028c1.522,52.713-9.394,86.769-33.37,104.111
								c-13.217,9.56-29.766,13.44-48.521,13.441c-41.357,0.002-93.467-18.86-144.389-37.29
								C844.993,18.104,775.394-7.087,740.114,22.809c-24.193,20.498-29.527,65.32-16.308,137.024
								c12.747,69.147,8.103,111.079-14.2,128.193c-8.322,6.387-18.753,9.131-30.804,9.132
								c-35.105,0.002-84.015-23.268-135.035-47.54c-71.625-34.074-145.688-69.306-185.854-40.927
								c-26.316,18.596-35.493,62.417-28.055,133.97c6.357,61.166-3.378,101.988-29.764,124.799
								c-47.768,41.294-143.205,17.061-244.246-8.596c-112.135-28.474-228.086-57.916-295.105-4.218
								c-40.049,32.09-58.286,90.306-55.752,177.975L-296.008,632.65z"/>
						</g>
					</g>
					<g>
						<g>
							
								<linearGradient id="SVGID_00000116929505205639731940000007263357260028902045_" gradientUnits="userSpaceOnUse" x1="-312.9965" y1="293.7515" x2="1157.4375" y2="293.7515">
								<stop  offset="0" style="stop-color:#FF25B6"/>
								<stop  offset="0.013" style="stop-color:#F720C0"/>
								<stop  offset="0.0526" style="stop-color:#E112DB"/>
								<stop  offset="0.093" style="stop-color:#D208EE"/>
								<stop  offset="0.1345" style="stop-color:#C902F9"/>
								<stop  offset="0.1787" style="stop-color:#C600FD"/>
								<stop  offset="0.475" style="stop-color:#432AF3"/>
								<stop  offset="0.6457" style="stop-color:#2747ED"/>
								<stop  offset="1" style="stop-color:#000422"/>
							</linearGradient>
							<path style="fill:url(#SVGID_00000116929505205639731940000007263357260028902045_);" d="M-312.941,634.632
								c-1.223-86.103,17.913-143.847,58.501-176.528c30.877-24.863,74.768-35.124,134.173-31.376
								c52.501,3.313,110.587,16.863,166.76,29.967c102.29,23.86,198.907,46.4,247.286,4.279
								c26.218-22.826,36.327-62.78,30.904-122.146c-6.443-70.53,3.512-114.134,30.434-133.304
								c41.515-29.561,116.581,4.351,189.178,37.148c68.962,31.155,134.102,60.583,166.854,35.187
								c22.17-17.186,27.25-58.241,15.532-125.509c-12.269-70.426-6.264-114.908,18.359-135.986
								c36.462-31.212,107.255-7.181,182.204,18.263c74.649,25.342,151.84,51.548,194.703,20.37
								c23.916-17.396,35.188-50.797,34.458-102.113l1-0.014c0.733,51.664-10.672,85.335-34.87,102.936
								c-43.281,31.482-120.721,5.192-195.612-20.232c-74.674-25.351-145.204-49.293-181.232-18.45
								c-24.332,20.829-30.228,65.006-18.025,135.054c11.788,67.667,6.586,109.036-15.903,126.472
								c-8.891,6.892-20.091,9.825-33.043,9.827c-35.465,0.003-84.117-21.98-134.837-44.894
								c-72.338-32.68-147.14-66.472-188.186-37.245c-26.606,18.946-36.425,62.254-30.018,132.397
								c5.453,59.709-4.767,99.94-31.244,122.992c-19.882,17.31-47.772,23.806-80.77,23.808
								c-47.936,0.003-106.663-13.7-167.4-27.868c-113.813-26.55-231.502-54.002-300.078,1.214
								c-40.332,32.477-59.346,89.96-58.128,175.736L-312.941,634.632z"/>
						</g>
					</g>
					<g>
						<g>
							
								<linearGradient id="SVGID_00000008119925496865067430000013620709905408887430_" gradientUnits="userSpaceOnUse" x1="-330.1367" y1="289.0188" x2="1170.2051" y2="289.0188">
								<stop  offset="0" style="stop-color:#FF25B6"/>
								<stop  offset="0.013" style="stop-color:#F720C0"/>
								<stop  offset="0.0526" style="stop-color:#E112DB"/>
								<stop  offset="0.093" style="stop-color:#D208EE"/>
								<stop  offset="0.1345" style="stop-color:#C902F9"/>
								<stop  offset="0.1787" style="stop-color:#C600FD"/>
								<stop  offset="0.475" style="stop-color:#432AF3"/>
								<stop  offset="0.6457" style="stop-color:#2747ED"/>
								<stop  offset="1" style="stop-color:#000422"/>
							</linearGradient>
							<path style="fill:url(#SVGID_00000008119925496865067430000013620709905408887430_);" d="M-329.137,636.852l-1-0.001
								c0.078-84.243,19.979-141.258,60.843-174.304c31.591-25.548,76.305-36.666,136.705-33.974
								c53.377,2.375,112.348,14.935,169.378,27.081c103.86,22.121,201.96,43.013,251.37-0.283
								c26.307-23.055,36.888-62.425,32.347-120.363c-5.419-69.138,5.17-112.231,32.372-131.744
								c42.412-30.425,118.258,2.044,191.607,33.443c69.715,29.843,135.567,58.031,169.012,31.843
								c22.357-17.507,27.987-58.01,17.212-123.827c-11.263-68.787-4.709-112.624,20.036-134.018
								c37.224-32.181,108.989-9.402,184.968,14.711c75.573,23.984,153.72,48.785,197.545,16.746
								c24.145-17.651,35.902-50.682,35.948-100.979l1,0.001c-0.046,50.638-11.938,83.933-36.357,101.785
								c-44.235,32.34-122.628,7.46-198.438-16.6C859.704,2.345,788.196-20.351,751.398,11.464
								c-24.46,21.147-30.905,64.685-19.704,133.1c10.84,66.209,5.089,107.023-17.581,124.775
								c-9.497,7.436-21.525,10.57-35.45,10.571c-35.802,0.002-84.178-20.709-134.572-42.282
								c-73.095-31.29-148.678-63.647-190.631-33.55c-26.894,19.291-37.347,62.093-31.958,130.853
								c4.567,58.274-6.124,97.917-32.685,121.193c-49.785,43.627-148.124,22.684-252.236,0.51
								c-115.563-24.614-235.062-50.065-305.245,6.691C-309.279,496.169-329.06,552.931-329.137,636.852z"/>
						</g>
					</g>
					<g>
						<g>
							
								<linearGradient id="SVGID_00000137111285754053978050000010815795862620731317_" gradientUnits="userSpaceOnUse" x1="-347.5879" y1="284.3743" x2="1183.3535" y2="284.3743">
								<stop  offset="0" style="stop-color:#FF25B6"/>
								<stop  offset="0.013" style="stop-color:#F720C0"/>
								<stop  offset="0.0526" style="stop-color:#E112DB"/>
								<stop  offset="0.093" style="stop-color:#D208EE"/>
								<stop  offset="0.1345" style="stop-color:#C902F9"/>
								<stop  offset="0.1787" style="stop-color:#C600FD"/>
								<stop  offset="0.475" style="stop-color:#432AF3"/>
								<stop  offset="0.6457" style="stop-color:#2747ED"/>
								<stop  offset="1" style="stop-color:#000422"/>
							</linearGradient>
							<path style="fill:url(#SVGID_00000137111285754053978050000010815795862620731317_);" d="M-346.588,639.31l-1-0.016
								c1.352-82.424,22.005-138.722,63.141-172.11c32.327-26.238,77.903-38.211,139.316-36.589
								c54.283,1.43,114.172,12.995,172.089,24.179c105.494,20.371,205.136,39.612,255.607-4.877
								c26.392-23.265,37.434-62.059,33.757-118.601c-4.406-67.768,6.809-110.359,34.287-130.208
								c43.341-31.307,120.011-0.278,194.157,29.728c70.513,28.536,137.116,55.491,171.273,28.483
								c22.537-17.818,28.706-57.779,18.859-122.165C724.628,69.958,731.72,26.756,756.579,5.06
								c38.005-33.166,110.793-11.649,187.857,11.131c76.538,22.626,155.683,46.023,200.499,13.107
								c24.369-17.898,36.608-50.563,37.418-99.859l1,0.017c-0.814,49.63-13.188,82.553-37.826,100.648
								c-16.181,11.884-36.743,16.51-59.989,16.511c-41.715,0.001-92.086-14.891-141.385-29.464
								C867.359-5.55,794.823-26.993,757.237,5.813c-24.582,21.454-31.564,64.359-21.349,131.169
								c9.906,64.773,3.617,105.04-19.228,123.102c-34.616,27.365-101.479,0.307-172.268-28.342
								c-73.895-29.904-150.304-60.828-193.197-29.844c-27.176,19.632-38.257,61.937-33.875,129.334
								c3.698,56.871-7.454,95.933-34.094,119.415c-50.839,44.814-150.717,25.527-256.458,5.109
								c-117.376-22.667-238.749-46.104-310.586,12.204C-324.708,501.151-345.241,557.2-346.588,639.31z"/>
						</g>
					</g>
					<g>
						<g>
							
								<linearGradient id="SVGID_00000021804883570272472890000016410888396210141877_" gradientUnits="userSpaceOnUse" x1="-365.3081" y1="279.8201" x2="1196.8516" y2="279.8201">
								<stop  offset="0" style="stop-color:#FF25B6"/>
								<stop  offset="0.013" style="stop-color:#F720C0"/>
								<stop  offset="0.0526" style="stop-color:#E112DB"/>
								<stop  offset="0.093" style="stop-color:#D208EE"/>
								<stop  offset="0.1345" style="stop-color:#C902F9"/>
								<stop  offset="0.1787" style="stop-color:#C600FD"/>
								<stop  offset="0.475" style="stop-color:#432AF3"/>
								<stop  offset="0.6457" style="stop-color:#2747ED"/>
								<stop  offset="1" style="stop-color:#000422"/>
							</linearGradient>
							<path style="fill:url(#SVGID_00000021804883570272472890000016410888396210141877_);" d="M-364.309,642.01l-0.999-0.032
								c2.604-80.646,24-136.238,65.408-169.95c33.086-26.937,79.541-39.764,142.02-39.227
								c55.221,0.478,116.063,11.042,174.902,21.257c107.188,18.61,208.433,36.189,259.997-9.503
								c26.473-23.457,37.966-61.681,35.135-116.854c-3.41-66.428,8.423-108.53,36.175-128.711
								c44.288-32.208,121.828-2.617,196.813,25.999c71.355,27.231,138.752,52.956,173.646,25.11
								c22.712-18.126,29.412-57.552,20.482-120.533c-9.301-65.589-1.685-108.16,23.28-130.145
								c38.806-34.172,112.666-13.918,190.861,7.524c77.547,21.265,157.733,43.255,203.569,9.452
								c24.595-18.138,37.31-50.444,38.87-98.766l1,0.032c-1.571,48.648-14.419,81.208-39.276,99.539
								c-46.224,34.091-126.649,12.038-204.427-9.292c-77.928-21.37-151.535-41.555-189.937-7.738
								c-24.693,21.746-32.2,64.025-22.951,129.254c8.983,63.362,2.164,103.09-20.85,121.456
								c-10.838,8.649-24.721,12.216-40.821,12.216c-36.396,0.002-84.143-18.222-133.804-37.174
								c-74.734-28.521-152.016-58.015-195.869-26.126c-27.457,19.967-39.155,61.788-35.764,127.852
								c2.847,55.497-8.756,93.981-35.471,117.653c-24.422,21.641-59.821,29.205-101.63,29.207
								c-47.083,0.002-102.299-9.587-159.202-19.467c-119.257-20.703-242.576-42.114-316.12,17.76
								C-340.44,506.321-361.714,561.67-364.309,642.01z"/>
						</g>
					</g>
					<g>
						<g>
							
								<linearGradient id="SVGID_00000144325243718652294800000000791846198310904493_" gradientUnits="userSpaceOnUse" x1="-383.3101" y1="275.3652" x2="1210.7178" y2="275.3652">
								<stop  offset="0" style="stop-color:#FF25B6"/>
								<stop  offset="0.013" style="stop-color:#F720C0"/>
								<stop  offset="0.0526" style="stop-color:#E112DB"/>
								<stop  offset="0.093" style="stop-color:#D208EE"/>
								<stop  offset="0.1345" style="stop-color:#C902F9"/>
								<stop  offset="0.1787" style="stop-color:#C600FD"/>
								<stop  offset="0.475" style="stop-color:#432AF3"/>
								<stop  offset="0.6457" style="stop-color:#2747ED"/>
								<stop  offset="1" style="stop-color:#000422"/>
							</linearGradient>
							<path style="fill:url(#SVGID_00000144325243718652294800000000791846198310904493_);" d="M-382.311,644.952l-0.999-0.049
								c3.836-78.916,25.963-133.814,67.646-167.829c33.87-27.64,81.24-41.341,144.816-41.886
								c56.17-0.48,118.021,9.071,177.814,18.309c108.944,16.833,211.845,32.733,264.533-14.168
								c26.548-23.633,38.48-61.291,36.476-115.128c-2.423-65.108,10.022-106.726,38.044-127.231
								c45.275-33.127,123.729-4.972,199.601,22.258c72.242,25.928,140.479,50.416,176.119,21.719
								c22.879-18.422,30.099-57.318,22.071-118.91c-8.344-64.029-0.215-105.975,24.851-128.236
								c39.632-35.199,114.614-16.216,193.999,3.883c78.596,19.899,159.868,40.475,206.756,5.777
								c24.817-18.368,38.001-50.32,40.304-97.683l0.998,0.049c-2.317,47.681-15.633,79.88-40.707,98.438
								c-47.266,34.981-128.771,14.346-207.597-5.611c-79.119-20.032-153.851-38.953-193.09-4.104
								c-24.799,22.024-32.819,63.684-24.521,127.359c8.075,61.966,0.736,101.159-22.436,119.818
								c-36.078,29.05-104.572,4.467-177.084-21.557c-75.625-27.142-153.825-55.207-198.672-22.392
								c-27.735,20.294-40.046,61.636-37.636,126.387c2.016,54.153-10.024,92.068-36.81,115.912
								c-53.039,47.213-156.167,31.279-265.35,14.409c-121.207-18.728-246.54-38.094-321.846,23.362
								C-356.482,511.676-378.489,566.336-382.311,644.952z"/>
						</g>
					</g>
					<g>
						<g>
							
								<linearGradient id="SVGID_00000062888102642493030420000012539648980916740483_" gradientUnits="userSpaceOnUse" x1="-401.5947" y1="270.9909" x2="1224.9385" y2="270.9909">
								<stop  offset="0" style="stop-color:#FF25B6"/>
								<stop  offset="0.013" style="stop-color:#F720C0"/>
								<stop  offset="0.0526" style="stop-color:#E112DB"/>
								<stop  offset="0.093" style="stop-color:#D208EE"/>
								<stop  offset="0.1345" style="stop-color:#C902F9"/>
								<stop  offset="0.1787" style="stop-color:#C600FD"/>
								<stop  offset="0.475" style="stop-color:#432AF3"/>
								<stop  offset="0.6457" style="stop-color:#2747ED"/>
								<stop  offset="1" style="stop-color:#000422"/>
							</linearGradient>
							<path style="fill:url(#SVGID_00000062888102642493030420000012539648980916740483_);" d="M-400.597,648.132l-0.998-0.064
								c5.044-77.228,27.892-131.441,69.851-165.74c34.676-28.347,82.989-42.923,147.7-44.563
								c57.185-1.439,120.044,7.087,180.824,15.342c110.764,15.042,215.384,29.251,269.23-18.866
								c26.622-23.79,38.983-60.892,37.788-113.422c-1.449-63.813,11.599-104.955,39.89-125.776
								c46.287-34.066,125.701-7.345,202.501,18.497c73.175,24.621,142.293,47.879,178.708,18.307
								c23.041-18.712,30.771-57.088,23.634-117.32c-7.406-62.499,1.224-103.827,26.382-126.347
								c40.489-36.241,116.635-18.535,197.256,0.213c79.687,18.53,162.086,37.694,210.054,2.088
								c25.042-18.589,38.688-50.197,41.72-96.63l0.998,0.065c-3.052,46.743-16.83,78.593-42.122,97.368
								C1134.48,27.165,1051.85,7.95,971.94-10.634c-80.361-18.688-156.262-36.339-196.362-0.442
								c-24.897,22.287-33.421,63.333-26.057,125.484c7.183,60.6-0.667,99.269-23.996,118.214
								c-12.369,10.045-28.415,14.087-47.041,14.088c-36.852,0.002-83.83-15.808-132.615-32.223
								c-76.557-25.76-155.721-52.397-201.59-18.639c-28.009,20.614-40.924,61.484-39.482,124.947
								c1.202,52.842-11.268,90.193-38.122,114.191c-54.189,48.423-159.032,34.185-270.03,19.111
								c-123.222-16.733-250.638-34.039-327.757,29.003C-372.843,517.215-395.572,571.197-400.597,648.132z"/>
						</g>
					</g>
					<g>
						<g>
							
								<linearGradient id="SVGID_00000005265084620562848360000018386209254026266291_" gradientUnits="userSpaceOnUse" x1="-420.166" y1="266.7046" x2="1239.5391" y2="266.7046">
								<stop  offset="0" style="stop-color:#FF25B6"/>
								<stop  offset="0.013" style="stop-color:#F720C0"/>
								<stop  offset="0.0526" style="stop-color:#E112DB"/>
								<stop  offset="0.093" style="stop-color:#D208EE"/>
								<stop  offset="0.1345" style="stop-color:#C902F9"/>
								<stop  offset="0.1787" style="stop-color:#C600FD"/>
								<stop  offset="0.475" style="stop-color:#432AF3"/>
								<stop  offset="0.6457" style="stop-color:#2747ED"/>
								<stop  offset="1" style="stop-color:#000422"/>
							</linearGradient>
							<path style="fill:url(#SVGID_00000005265084620562848360000018386209254026266291_);" d="M-419.17,651.548l-0.996-0.082
								c6.227-75.583,29.786-129.127,72.021-163.689c35.507-29.057,84.793-44.514,150.673-47.255
								c58.234-2.42,122.134,5.087,183.933,12.348c112.648,13.238,219.047,25.739,274.085-23.6
								c26.694-23.93,39.475-60.478,39.072-111.731c-0.492-62.545,13.151-103.22,41.708-124.35
								c47.328-35.021,127.746-9.735,205.518,14.717c74.157,23.316,144.202,45.338,181.414,14.873
								c23.199-18.993,31.433-56.854,25.172-115.747c-6.486-60.993,2.632-101.707,27.874-124.469
								c41.363-37.3,118.729-20.876,200.636-3.488c80.824,17.158,164.399,34.902,213.478-1.618
								c25.269-18.802,39.375-50.072,43.125-95.596l0.996,0.082c-3.774,45.827-18.012,77.332-43.524,96.316
								c-21.298,15.848-48.98,21.567-80.064,21.568c-41.072,0.001-88.088-9.981-134.218-19.775
								c-81.648-17.333-158.772-33.706-199.758,3.252c-24.987,22.533-33.999,62.969-27.55,123.621
								c6.3,59.254-2.052,97.403-25.532,116.626c-13.221,10.824-30.478,15.117-50.523,15.118
								c-37.014,0.001-83.548-14.631-131.824-29.81c-77.532-24.377-157.703-49.583-204.623-14.867
								c-28.281,20.926-41.791,61.335-41.302,123.538c0.405,51.558-12.484,88.352-39.404,112.484
								c-30.296,27.158-75.944,35.708-129.552,35.709c-44.374,0.002-94.198-5.854-145.317-11.861
								c-125.303-14.723-254.872-29.947-333.856,34.688C-389.526,522.932-412.966,576.249-419.17,651.548z"/>
						</g>
					</g>
					<g>
						<g>
							
								<linearGradient id="SVGID_00000027579074629022295640000012137171493228805566_" gradientUnits="userSpaceOnUse" x1="-439.0405" y1="262.4961" x2="1254.5146" y2="262.4961">
								<stop  offset="0" style="stop-color:#FF25B6"/>
								<stop  offset="0.013" style="stop-color:#F720C0"/>
								<stop  offset="0.0526" style="stop-color:#E112DB"/>
								<stop  offset="0.093" style="stop-color:#D208EE"/>
								<stop  offset="0.1345" style="stop-color:#C902F9"/>
								<stop  offset="0.1787" style="stop-color:#C600FD"/>
								<stop  offset="0.475" style="stop-color:#432AF3"/>
								<stop  offset="0.6457" style="stop-color:#2747ED"/>
								<stop  offset="1" style="stop-color:#000422"/>
							</linearGradient>
							<path style="fill:url(#SVGID_00000027579074629022295640000012137171493228805566_);" d="M-438.045,655.202l-0.995-0.1
								c5.694-56.998,22.098-102.751,48.755-135.988c23.932-29.837,55.933-50.324,97.833-62.631
								c77.367-22.724,174.516-13.046,268.466-3.688c114.592,11.413,222.828,22.196,279.092-28.364
								c26.764-24.052,39.955-60.054,40.325-110.063c0.455-61.304,14.688-101.521,43.51-122.95
								c48.404-35.987,129.875-12.143,208.661,10.917c75.18,22.005,146.19,42.791,184.221,11.415
								c23.349-19.262,32.073-56.613,26.673-114.19c-5.581-59.518,4.016-99.625,29.339-122.614
								c42.274-38.375,120.905-23.245,204.152-7.228c81.999,15.777,166.79,32.091,217.017-5.347
								c25.496-19.006,40.058-49.944,44.516-94.583l0.995,0.1c-4.488,44.934-19.18,76.101-44.914,95.285
								c-50.576,37.702-135.589,21.346-217.802,5.527c-82.995-15.97-161.388-31.053-203.291,6.986
								C763.433,0.45,753.941,40.285,759.492,99.468c5.433,57.931-3.409,95.566-27.032,115.054
								c-38.44,31.712-109.697,10.854-185.139-11.227c-78.551-22.993-159.776-46.768-207.783-11.075
								c-28.554,21.229-42.654,61.186-43.107,122.155c-0.372,50.307-13.671,86.55-40.657,110.799
								c-56.594,50.854-165.043,40.052-279.86,28.616c-93.854-9.351-190.905-19.016-268.085,3.652
								C-379.601,483.123-427.317,547.81-438.045,655.202z"/>
						</g>
					</g>
					<g>
						<g>
							
								<linearGradient id="SVGID_00000006703180022671083300000000936640534299300006_" gradientUnits="userSpaceOnUse" x1="-458.2231" y1="258.3784" x2="1269.8721" y2="258.3784">
								<stop  offset="0" style="stop-color:#FF25B6"/>
								<stop  offset="0.013" style="stop-color:#F720C0"/>
								<stop  offset="0.0526" style="stop-color:#E112DB"/>
								<stop  offset="0.093" style="stop-color:#D208EE"/>
								<stop  offset="0.1345" style="stop-color:#C902F9"/>
								<stop  offset="0.1787" style="stop-color:#C600FD"/>
								<stop  offset="0.475" style="stop-color:#432AF3"/>
								<stop  offset="0.6457" style="stop-color:#2747ED"/>
								<stop  offset="1" style="stop-color:#000422"/>
							</linearGradient>
							<path style="fill:url(#SVGID_00000006703180022671083300000000936640534299300006_);" d="M-457.23,659.107l-0.993-0.117
								c6.641-56.374,23.962-101.806,51.482-135.033c24.703-29.826,57.44-50.544,100.081-63.335
								c78.742-23.62,177.035-15.55,272.093-7.743c116.598,9.573,226.729,18.618,284.258-33.165
								c26.836-24.156,40.427-59.62,41.553-108.419c1.387-60.088,16.199-99.854,45.285-121.571
								c49.513-36.971,132.081-14.564,211.925,7.105c76.253,20.694,148.277,40.239,187.153,7.94
								c23.493-19.518,32.701-56.367,28.15-112.649c-4.697-58.078,5.368-97.587,30.769-120.786
								c43.207-39.46,123.151-25.635,207.791-11c83.214,14.389,169.263,29.27,220.664-9.093
								c25.727-19.2,40.739-49.814,45.896-93.592l0.994,0.117c-5.191,44.064-20.334,74.902-46.292,94.276
								c-24.531,18.309-56.829,24.585-92.895,24.586c-40.012,0.001-84.663-7.722-128.539-15.309
								c-84.389-14.593-164.102-28.377-206.945,10.753C770.044-4.95,760.084,34.292,764.754,92.04
								c4.58,56.631-4.745,93.757-28.508,113.499c-39.277,32.63-111.544,13.018-188.054-7.745
								c-79.614-21.606-161.94-43.948-211.065-7.269c-28.823,21.521-43.504,61.032-44.883,120.793
								c-1.133,49.089-14.833,84.788-41.884,109.139c-57.849,52.072-168.189,43.013-285.008,33.418
								c-94.966-7.799-193.165-15.861-271.724,7.705C-395.372,488.277-444.717,552.89-457.23,659.107z"/>
						</g>
					</g>
					<g>
						<g>
							
								<linearGradient id="SVGID_00000040535855291262021380000014505917387090849453_" gradientUnits="userSpaceOnUse" x1="-477.7241" y1="254.3418" x2="1285.6162" y2="254.3418">
								<stop  offset="0" style="stop-color:#FF25B6"/>
								<stop  offset="0.013" style="stop-color:#F720C0"/>
								<stop  offset="0.0526" style="stop-color:#E112DB"/>
								<stop  offset="0.093" style="stop-color:#D208EE"/>
								<stop  offset="0.1345" style="stop-color:#C902F9"/>
								<stop  offset="0.1787" style="stop-color:#C600FD"/>
								<stop  offset="0.475" style="stop-color:#432AF3"/>
								<stop  offset="0.6457" style="stop-color:#2747ED"/>
								<stop  offset="1" style="stop-color:#000422"/>
							</linearGradient>
							<path style="fill:url(#SVGID_00000040535855291262021380000014505917387090849453_);" d="M-476.733,663.252l-0.991-0.135
								c7.591-55.769,25.836-100.896,54.229-134.128c25.485-29.826,58.97-50.781,102.368-64.063
								C-240.98,440.4-141.502,446.871-45.3,453.126c118.664,7.716,230.751,15.006,289.581-37.999
								c26.908-24.243,40.894-59.178,42.758-106.799c2.306-58.899,17.693-98.223,47.043-120.22
								c50.657-37.967,134.368-17.007,215.321,3.264c77.372,19.373,150.451,37.672,190.198,4.434
								c23.634-19.765,33.314-56.117,29.595-111.132c-3.831-56.661,6.688-95.574,32.159-118.963
								c44.169-40.559,125.48-28.049,211.566-14.803c84.475,12.997,171.826,26.438,224.442-12.855
								c25.959-19.386,41.418-49.682,47.262-92.621l0.99,0.135c-5.881,43.219-21.469,73.733-47.653,93.288
								c-52.95,39.543-140.514,26.07-225.193,13.042c-85.842-13.208-166.925-25.682-210.737,14.551
								c-25.233,23.171-35.647,61.821-31.838,118.16c3.743,55.357-6.055,91.981-29.951,111.966
								c-40.139,33.566-113.458,15.206-191.083-4.23c-80.724-20.214-164.2-41.116-214.478-3.434
								c-29.093,21.804-44.351,60.879-46.644,119.458c-1.875,47.904-15.969,83.069-43.088,107.503
								c-59.141,53.286-171.431,45.984-290.315,38.254c-96.111-6.25-195.498-12.713-275.469,11.76
								C-411.435,493.609-462.43,558.169-476.733,663.252z"/>
						</g>
					</g>
					<g>
						<g>
							
								<linearGradient id="SVGID_00000101795834157737155000000016986009488216322966_" gradientUnits="userSpaceOnUse" x1="-497.541" y1="250.3782" x2="1301.7637" y2="250.3782">
								<stop  offset="0" style="stop-color:#FF25B6"/>
								<stop  offset="0.013" style="stop-color:#F720C0"/>
								<stop  offset="0.0526" style="stop-color:#E112DB"/>
								<stop  offset="0.093" style="stop-color:#D208EE"/>
								<stop  offset="0.1345" style="stop-color:#C902F9"/>
								<stop  offset="0.1787" style="stop-color:#C600FD"/>
								<stop  offset="0.475" style="stop-color:#432AF3"/>
								<stop  offset="0.6457" style="stop-color:#2747ED"/>
								<stop  offset="1" style="stop-color:#000422"/>
							</linearGradient>
							<path style="fill:url(#SVGID_00000101795834157737155000000016986009488216322966_);" d="M-496.553,667.644l-0.988-0.152
								c8.543-55.19,27.719-100.03,56.996-133.278c26.276-29.839,60.522-51.042,104.697-64.817
								c81.584-25.443,182.287-20.576,279.674-15.866c86.689,4.19,168.569,8.149,230.713-9.44
								c69.717-19.732,104.126-63.783,108.289-138.63c3.21-57.739,19.166-96.629,48.78-118.895
								c51.835-38.974,136.732-19.465,218.836-0.598c78.535,18.048,152.719,35.094,193.362,0.901
								c23.771-19.999,33.916-55.859,31.015-109.632c-2.982-55.274,7.982-93.597,33.521-117.16
								c45.159-41.664,127.885-30.484,215.471-18.646c125.297,16.935,254.859,34.448,276.962-108.32l0.988,0.153
								c-14.96,96.634-78.667,120.355-157.021,120.359c-38.191,0.002-79.848-5.631-121.063-11.202
								c-87.345-11.804-169.844-22.956-214.659,18.391c-25.306,23.348-36.166,61.413-33.201,116.371
								c2.92,54.107-7.341,90.236-31.369,110.451c-41.025,34.513-115.442,17.413-194.231-0.692
								c-81.879-18.815-166.545-38.272-218.01,0.423c-29.364,22.077-45.19,60.725-48.382,118.15
								c-2.211,39.759-12.949,70.531-32.825,94.079c-17.833,21.125-42.755,35.994-76.19,45.458
								c-62.302,17.634-144.263,13.671-231.034,9.477c-97.301-4.704-197.913-9.568-279.328,15.821
								C-427.791,499.117-480.456,563.652-496.553,667.644z"/>
						</g>
					</g>
				</g>
			</g>
		</g>
	</g>
</g>
<g id="Layer_1">
</g>
</svg>
