<?xml version="1.0" encoding="utf-8"?>
<!-- Generator: Adobe Illustrator 27.5.0, SVG Export Plug-In . SVG Version: 6.00 Build 0)  -->
<svg version="1.1" xmlns="http://www.w3.org/2000/svg" xmlns:xlink="http://www.w3.org/1999/xlink" x="0px" y="0px"
	 viewBox="0 0 800 500" style="enable-background:new 0 0 800 500;" xml:space="preserve">
<g id="_x36_2">
	<g>
		<g>
			<defs>
				<rect id="SVGID_1_" y="-0.001" width="800" height="500.002"/>
			</defs>
			<use xlink:href="#SVGID_1_"  style="overflow:visible;fill:#000422;"/>
			<clipPath id="SVGID_00000106139169522678792030000009071971573151659173_">
				<use xlink:href="#SVGID_1_"  style="overflow:visible;"/>
			</clipPath>
			<g style="clip-path:url(#SVGID_00000106139169522678792030000009071971573151659173_);">
				<g>
					<g>
						<g>
							
								<linearGradient id="SVGID_00000110459435208882008020000001492572729372675209_" gradientUnits="userSpaceOnUse" x1="193.7083" y1="281.2836" x2="505.5628" y2="281.2836">
								<stop  offset="0" style="stop-color:#FF25B6"/>
								<stop  offset="0.013" style="stop-color:#F720C0"/>
								<stop  offset="0.0526" style="stop-color:#E112DB"/>
								<stop  offset="0.093" style="stop-color:#D208EE"/>
								<stop  offset="0.1345" style="stop-color:#C902F9"/>
								<stop  offset="0.1787" style="stop-color:#C600FD"/>
								<stop  offset="0.475" style="stop-color:#432AF3"/>
								<stop  offset="0.6457" style="stop-color:#2747ED"/>
								<stop  offset="1" style="stop-color:#000422"/>
							</linearGradient>
							<path style="fill:url(#SVGID_00000110459435208882008020000001492572729372675209_);" d="M361.319,594.828
								c-17.519,0-28.703-3.744-33.778-11.226c-13.425-19.791,17.438-61.206,47.284-101.258
								c23.862-32.021,46.402-62.268,40.271-74.967c-1.96-4.06-6.739-6.151-14.609-6.395c-7.512-0.231-11.974-2.245-13.642-6.155
								c-5.511-12.922,22.958-44.5,53.098-77.933c34.658-38.443,73.94-82.016,62.594-99.831
								c-10.089-15.839-58.057-10.355-146.651,16.772c-43.331,13.267-78.37,19.88-104.126,19.647
								c-23.43-0.209-39.955-6.092-49.116-17.486c-12.813-15.935-11.853-42.526,2.934-81.293
								c12.717-33.342,33.41-70.033,51.666-102.405c21.686-38.453,40.414-71.663,34.592-80.939
								c-1.233-1.965-3.544-2.809-7.066-2.587l-0.064-0.998c3.869-0.249,6.551,0.781,7.977,3.054
								c6.138,9.781-11.826,41.634-34.568,81.962c-18.239,32.342-38.912,68.998-51.603,102.27
								c-14.649,38.406-15.659,64.675-3.089,80.31c8.964,11.148,25.23,16.906,48.346,17.112
								c25.665,0.239,60.592-6.366,103.824-19.603c89.081-27.276,137.424-32.624,147.788-16.353
								c11.756,18.457-26.093,60.438-62.694,101.038c-29.921,33.189-58.182,64.536-52.921,76.87
								c1.478,3.467,5.769,5.333,12.753,5.548c8.279,0.256,13.341,2.532,15.479,6.96c6.395,13.245-16.321,43.728-40.37,75.999
								c-28.257,37.919-60.284,80.897-47.258,100.099c10.707,15.787,49.914,14.353,119.862-4.383l0.258,0.967
								C410.633,589.764,381.692,594.828,361.319,594.828z"/>
						</g>
					</g>
					<g>
						<g>
							
								<linearGradient id="SVGID_00000171691585241451880560000011510588105259972736_" gradientUnits="userSpaceOnUse" x1="200.0447" y1="279.8976" x2="506.8233" y2="279.8976">
								<stop  offset="0" style="stop-color:#FF25B6"/>
								<stop  offset="0.013" style="stop-color:#F720C0"/>
								<stop  offset="0.0526" style="stop-color:#E112DB"/>
								<stop  offset="0.093" style="stop-color:#D208EE"/>
								<stop  offset="0.1345" style="stop-color:#C902F9"/>
								<stop  offset="0.1787" style="stop-color:#C600FD"/>
								<stop  offset="0.475" style="stop-color:#432AF3"/>
								<stop  offset="0.6457" style="stop-color:#2747ED"/>
								<stop  offset="1" style="stop-color:#000422"/>
							</linearGradient>
							<path style="fill:url(#SVGID_00000171691585241451880560000011510588105259972736_);" d="M369.91,599.375
								c-17.668,0-29.027-3.815-34.309-11.44c-13.941-20.126,16.151-62.2,45.254-102.89c23.197-32.433,45.107-63.066,38.792-76.009
								c-1.997-4.095-6.701-6.242-14.38-6.564c-7.346-0.309-11.743-2.377-13.443-6.323c-5.666-13.151,22.049-45.055,51.391-78.83
								c33.837-38.951,72.188-83.099,60.389-101.226c-10.382-15.947-57.434-10.771-143.847,15.824
								c-42.018,12.932-76.127,19.313-101.363,18.97c-22.985-0.314-39.366-6.224-48.688-17.566
								c-13.28-16.159-12.872-43.222,1.247-82.736c12.143-33.983,32.26-71.382,50.009-104.378
								c20.993-39.028,39.123-72.734,33.145-82.134c-1.245-1.958-3.511-2.815-6.918-2.626l-0.056-0.998
								c3.748-0.212,6.381,0.83,7.817,3.088c6.293,9.895-11.094,42.22-33.108,83.145c-17.732,32.965-37.83,70.33-49.948,104.241
								c-13.991,39.155-14.454,65.9-1.416,81.765c9.126,11.104,25.251,16.891,47.929,17.201
								c25.115,0.343,59.137-6.024,101.056-18.926c86.898-26.746,134.32-31.786,144.979-15.413
								c12.211,18.759-24.738,61.293-60.472,102.427c-29.13,33.532-56.645,65.205-51.227,77.779
								c1.533,3.558,5.644,5.429,12.567,5.719c8.08,0.341,13.063,2.671,15.237,7.126c6.576,13.478-15.503,44.347-38.878,77.029
								c-27.555,38.525-58.786,82.19-45.246,101.738c10.978,15.847,49.433,14.682,117.565-3.568l0.258,0.967
								C417.867,594.507,389.865,599.375,369.91,599.375z"/>
						</g>
					</g>
					<g>
						<g>
							
								<linearGradient id="SVGID_00000038408814439264515280000011916694624383108749_" gradientUnits="userSpaceOnUse" x1="206.226" y1="278.5415" x2="508.059" y2="278.5415">
								<stop  offset="0" style="stop-color:#FF25B6"/>
								<stop  offset="0.013" style="stop-color:#F720C0"/>
								<stop  offset="0.0526" style="stop-color:#E112DB"/>
								<stop  offset="0.093" style="stop-color:#D208EE"/>
								<stop  offset="0.1345" style="stop-color:#C902F9"/>
								<stop  offset="0.1787" style="stop-color:#C600FD"/>
								<stop  offset="0.475" style="stop-color:#432AF3"/>
								<stop  offset="0.6457" style="stop-color:#2747ED"/>
								<stop  offset="1" style="stop-color:#000422"/>
							</linearGradient>
							<path style="fill:url(#SVGID_00000038408814439264515280000011916694624383108749_);" d="M378.403,604.088
								c-17.799,0.001-29.321-3.882-34.812-11.644c-14.476-20.464,14.855-63.229,43.219-104.587
								c22.538-32.861,43.826-63.9,37.324-77.092c-2.034-4.127-6.663-6.328-14.152-6.731c-7.082-0.379-11.539-2.563-13.247-6.487
								c-5.824-13.387,21.146-45.631,49.701-79.769c33.027-39.486,70.463-84.241,58.191-102.681
								c-10.675-16.043-56.822-11.168-141.082,14.904c-40.725,12.601-73.901,18.76-98.635,18.311
								c-22.543-0.411-38.777-6.338-48.251-17.617c-13.759-16.38-13.909-43.928-0.46-84.219
								c11.566-34.647,31.11-72.785,48.353-106.433c20.306-39.624,37.842-73.843,31.706-83.367c-1.255-1.949-3.475-2.822-6.77-2.662
								l-0.048-0.999c3.639-0.171,6.214,0.876,7.659,3.12c6.449,10.008-10.367,42.822-31.656,84.365
								c-17.227,33.617-36.753,71.718-48.295,106.293c-13.331,39.933-13.24,67.167,0.277,83.259
								c9.28,11.048,25.262,16.855,47.504,17.26c24.622,0.448,57.697-5.697,98.321-18.266c84.74-26.22,131.257-30.964,142.21-14.503
								c12.685,19.063-23.38,62.18-58.258,103.877c-28.35,33.894-55.128,65.908-49.551,78.728c1.566,3.6,5.616,5.525,12.384,5.889
								c7.883,0.424,12.787,2.808,14.995,7.287c6.761,13.717-14.688,44.99-37.396,78.101
								c-26.859,39.161-57.301,83.548-43.228,103.443c11.244,15.896,48.958,14.987,115.301-2.782l0.258,0.967
								C425.021,599.41,397.934,604.088,378.403,604.088z"/>
						</g>
					</g>
					<g>
						<g>
							
								<linearGradient id="SVGID_00000149384010963675509050000013926978527837796531_" gradientUnits="userSpaceOnUse" x1="212.2521" y1="277.2136" x2="509.2711" y2="277.2136">
								<stop  offset="0" style="stop-color:#FF25B6"/>
								<stop  offset="0.013" style="stop-color:#F720C0"/>
								<stop  offset="0.0526" style="stop-color:#E112DB"/>
								<stop  offset="0.093" style="stop-color:#D208EE"/>
								<stop  offset="0.1345" style="stop-color:#C902F9"/>
								<stop  offset="0.1787" style="stop-color:#C600FD"/>
								<stop  offset="0.475" style="stop-color:#432AF3"/>
								<stop  offset="0.6457" style="stop-color:#2747ED"/>
								<stop  offset="1" style="stop-color:#000422"/>
							</linearGradient>
							<path style="fill:url(#SVGID_00000149384010963675509050000013926978527837796531_);" d="M386.788,608.968
								c-17.904,0-29.585-3.947-35.284-11.837c-15.028-20.805,13.55-64.296,41.186-106.355
								c21.886-33.306,42.558-64.766,35.866-78.207c-2.069-4.156-6.625-6.41-13.928-6.89c-6.923-0.455-11.314-2.693-13.053-6.651
								c-5.984-13.627,20.254-46.231,48.032-80.75c32.231-40.053,68.764-85.448,56.003-104.204
								c-10.972-16.125-56.23-11.54-138.361,14.014c-39.45,12.274-71.733,18.232-95.937,17.672
								c-22.103-0.499-38.186-6.434-47.804-17.638c-14.249-16.6-14.964-44.649-2.184-85.749
								c10.989-35.341,29.964-74.251,46.705-108.58c19.622-40.237,36.568-74.987,30.276-84.63c-1.264-1.938-3.433-2.819-6.622-2.693
								l-0.039-0.999c3.533-0.13,6.047,0.921,7.499,3.145c6.602,10.119-9.645,43.435-30.214,85.615
								c-16.726,34.298-35.682,73.171-46.648,108.439c-12.669,40.745-12.02,68.484,1.988,84.801
								c9.424,10.979,25.26,16.796,47.067,17.29c24.089,0.551,56.271-5.385,95.618-17.628
								c82.608-25.701,128.234-30.159,139.485-13.621c13.177,19.368-22.017,63.101-56.051,105.394
								c-27.583,34.275-53.635,66.649-47.896,79.721c1.599,3.641,5.59,5.621,12.203,6.056c7.581,0.498,12.547,3.002,14.757,7.441
								c6.947,13.957-13.878,45.65-35.926,79.203c-26.172,39.829-55.837,84.974-41.212,105.219
								c11.509,15.934,48.491,15.271,113.063-2.025l0.258,0.967C432.074,604.475,405.89,608.968,386.788,608.968z"/>
						</g>
					</g>
					<g>
						<g>
							
								<linearGradient id="SVGID_00000178895501105065350430000012360231970078827393_" gradientUnits="userSpaceOnUse" x1="218.1249" y1="275.9115" x2="510.4583" y2="275.9115">
								<stop  offset="0" style="stop-color:#FF25B6"/>
								<stop  offset="0.013" style="stop-color:#F720C0"/>
								<stop  offset="0.0526" style="stop-color:#E112DB"/>
								<stop  offset="0.093" style="stop-color:#D208EE"/>
								<stop  offset="0.1345" style="stop-color:#C902F9"/>
								<stop  offset="0.1787" style="stop-color:#C600FD"/>
								<stop  offset="0.475" style="stop-color:#432AF3"/>
								<stop  offset="0.6457" style="stop-color:#2747ED"/>
								<stop  offset="1" style="stop-color:#000422"/>
							</linearGradient>
							<path style="fill:url(#SVGID_00000178895501105065350430000012360231970078827393_);" d="M395.081,614.019
								c-17.992,0-29.818-4.007-35.727-12.019c-15.599-21.148,12.233-65.398,39.149-108.191
								c21.241-33.772,41.305-65.671,34.421-79.372c-2.104-4.184-6.586-6.489-13.706-7.047c-6.766-0.528-11.094-2.819-12.862-6.809
								c-6.147-13.87,19.366-46.848,46.377-81.762c31.446-40.647,67.088-86.718,53.82-105.791
								c-11.269-16.194-55.647-11.891-135.68,13.153c-38.195,11.951-69.574,17.689-93.273,17.053
								c-21.664-0.581-37.593-6.513-47.344-17.63c-14.75-16.816-16.035-45.377-3.929-87.317
								c10.408-36.059,28.813-75.773,45.051-110.812c18.943-40.876,35.303-76.178,28.855-85.944c-1.27-1.924-3.384-2.82-6.475-2.72
								l-0.03-1c3.419-0.11,5.883,0.963,7.34,3.169c6.756,10.231-8.927,44.072-28.782,86.915
								c-16.223,35.006-34.611,74.684-44.998,110.668c-12.003,41.586-10.787,69.841,3.72,86.38
								c9.561,10.899,25.245,16.716,46.62,17.29c23.592,0.622,54.857-5.09,92.947-17.008
								c80.507-25.192,125.253-29.369,136.799-12.77c13.686,19.674-20.647,64.055-53.85,106.973
								c-26.823,34.672-52.159,67.421-46.254,80.745c1.631,3.68,5.564,5.714,12.026,6.219c7.394,0.578,12.279,3.134,14.521,7.595
								c7.137,14.204-13.072,46.335-34.468,80.353c-25.491,40.529-54.384,86.466-39.19,107.065
								c11.767,15.956,48.027,15.53,110.853-1.297l0.258,0.967C439.053,609.705,413.748,614.019,395.081,614.019z"/>
						</g>
					</g>
					<g>
						<g>
							
								<linearGradient id="SVGID_00000064330062683285197330000004783467190252979376_" gradientUnits="userSpaceOnUse" x1="223.8517" y1="274.6387" x2="511.6234" y2="274.6387">
								<stop  offset="0" style="stop-color:#FF25B6"/>
								<stop  offset="0.013" style="stop-color:#F720C0"/>
								<stop  offset="0.0526" style="stop-color:#E112DB"/>
								<stop  offset="0.093" style="stop-color:#D208EE"/>
								<stop  offset="0.1345" style="stop-color:#C902F9"/>
								<stop  offset="0.1787" style="stop-color:#C600FD"/>
								<stop  offset="0.475" style="stop-color:#432AF3"/>
								<stop  offset="0.6457" style="stop-color:#2747ED"/>
								<stop  offset="1" style="stop-color:#000422"/>
							</linearGradient>
							<path style="fill:url(#SVGID_00000064330062683285197330000004783467190252979376_);" d="M403.27,619.239
								c-18.057,0-30.015-4.062-36.132-12.184c-16.186-21.492,10.907-66.538,37.108-110.102
								c20.603-34.256,40.063-66.611,32.984-80.572c-2.135-4.211-6.547-6.565-13.486-7.197c-6.612-0.602-10.877-2.945-12.675-6.967
								c-6.313-14.118,18.484-47.487,44.737-82.816c30.672-41.275,65.436-88.058,51.641-107.448
								c-11.559-16.248-55.073-12.219-133.032,12.32c-36.959,11.634-67.451,17.164-90.639,16.456
								c-21.227-0.654-36.996-6.573-46.87-17.591c-15.259-17.027-17.121-46.115-5.692-88.925
								c9.825-36.804,27.661-77.355,43.397-113.133c18.269-41.536,34.047-77.408,27.444-87.294c-1.275-1.91-3.353-2.821-6.328-2.745
								l-0.021-1c3.299-0.054,5.721,1.003,7.181,3.189c6.907,10.343-8.215,44.724-27.36,88.253
								c-15.722,35.745-33.541,76.259-43.347,112.988c-11.335,42.458-9.545,71.244,5.471,87.999
								c9.684,10.807,25.214,16.614,46.156,17.259c23.081,0.708,53.457-4.81,90.308-16.41
								c78.425-24.686,122.304-28.594,134.147-11.945c14.216,19.983-19.271,65.045-51.653,108.624
								c-26.073,35.088-50.701,68.229-44.627,81.813c1.662,3.718,5.539,5.805,11.852,6.379c7.21,0.656,12.017,3.261,14.288,7.741
								c7.329,14.454-12.27,47.04-33.02,81.54c-24.817,41.263-52.946,88.031-37.165,108.984
								c12.021,15.961,47.564,15.765,108.663-0.602l0.258,0.967C445.943,615.099,421.499,619.239,403.27,619.239z"/>
						</g>
					</g>
					<g>
						<g>
							
								<linearGradient id="SVGID_00000145016005701638764660000016888158182692654493_" gradientUnits="userSpaceOnUse" x1="229.4259" y1="273.3957" x2="512.7655" y2="273.3957">
								<stop  offset="0" style="stop-color:#FF25B6"/>
								<stop  offset="0.013" style="stop-color:#F720C0"/>
								<stop  offset="0.0526" style="stop-color:#E112DB"/>
								<stop  offset="0.093" style="stop-color:#D208EE"/>
								<stop  offset="0.1345" style="stop-color:#C902F9"/>
								<stop  offset="0.1787" style="stop-color:#C600FD"/>
								<stop  offset="0.475" style="stop-color:#432AF3"/>
								<stop  offset="0.6457" style="stop-color:#2747ED"/>
								<stop  offset="1" style="stop-color:#000422"/>
							</linearGradient>
							<path style="fill:url(#SVGID_00000145016005701638764660000016888158182692654493_);" d="M411.371,624.638
								c-18.103,0.001-30.182-4.111-36.507-12.338c-16.794-21.84,9.567-67.722,35.059-112.092
								c19.969-34.757,38.83-67.587,31.557-81.813c-2.166-4.235-6.507-6.637-13.27-7.343c-6.459-0.673-10.661-3.068-12.487-7.118
								c-6.482-14.37,17.608-48.147,43.112-83.908c29.907-41.936,63.805-89.466,49.465-109.175
								c-11.851-16.29-54.513-12.523-130.422,11.519c-35.743,11.32-65.355,16.665-88.039,15.876
								c-20.79-0.72-36.395-6.616-46.381-17.524c-15.777-17.234-18.222-46.862-7.474-90.575
								c9.239-37.575,26.505-78.998,41.739-115.545c17.597-42.217,32.795-78.676,26.039-88.682
								c-1.279-1.895-3.275-2.784-6.182-2.765l-0.012-1c3.183-0.048,5.561,1.041,7.023,3.205
								c7.057,10.453-7.507,45.392-25.945,89.626c-15.22,36.513-32.471,77.898-41.691,115.399
								c-10.662,43.363-8.294,72.692,7.241,89.661c9.798,10.703,25.165,16.49,45.677,17.2c22.572,0.782,52.069-4.545,87.703-15.83
								c76.371-24.188,119.394-27.836,131.533-11.154c14.764,20.292-17.885,66.072-49.459,110.343
								c-25.333,35.521-49.26,69.07-43.016,82.916c1.693,3.755,5.515,5.893,11.68,6.536c7.027,0.733,11.757,3.385,14.056,7.882
								c7.522,14.709-11.472,47.767-31.579,82.766c-24.149,42.032-51.52,89.673-35.134,110.983
								c12.267,15.953,47.1,15.977,106.5,0.066l0.258,0.967C452.763,620.664,429.159,624.637,411.371,624.638z"/>
						</g>
					</g>
					<g>
						<g>
							
								<linearGradient id="SVGID_00000147184733474574675410000010959597495635919797_" gradientUnits="userSpaceOnUse" x1="234.8548" y1="272.1758" x2="513.8849" y2="272.1758">
								<stop  offset="0" style="stop-color:#FF25B6"/>
								<stop  offset="0.013" style="stop-color:#F720C0"/>
								<stop  offset="0.0526" style="stop-color:#E112DB"/>
								<stop  offset="0.093" style="stop-color:#D208EE"/>
								<stop  offset="0.1345" style="stop-color:#C902F9"/>
								<stop  offset="0.1787" style="stop-color:#C600FD"/>
								<stop  offset="0.475" style="stop-color:#432AF3"/>
								<stop  offset="0.6457" style="stop-color:#2747ED"/>
								<stop  offset="1" style="stop-color:#000422"/>
							</linearGradient>
							<path style="fill:url(#SVGID_00000147184733474574675410000010959597495635919797_);" d="M419.376,630.21
								c-18.123,0.001-30.313-4.157-36.843-12.476c-17.417-22.188,8.215-68.941,33.003-114.155
								c19.341-35.278,37.609-68.601,30.138-83.097c-2.194-4.259-6.465-6.707-13.054-7.484c-6.309-0.745-10.448-3.189-12.303-7.267
								c-6.651-14.626,16.738-48.828,41.501-85.039c29.152-42.63,62.193-90.947,47.289-110.976
								c-12.143-16.317-53.96-12.8-127.843,10.749c-34.548,11.011-63.307,16.165-85.472,15.318
								c-20.354-0.777-35.788-6.641-45.873-17.427c-16.303-17.436-19.336-47.615-9.274-92.262
								c8.649-38.374,25.344-80.704,40.074-118.049c16.93-42.923,31.551-79.993,24.643-90.12c-1.281-1.878-3.253-2.773-6.038-2.782
								l-0.002-1c0.009,0,0.018,0,0.027,0c3.081,0,5.382,1.082,6.839,3.219c7.206,10.564-6.803,46.083-24.54,91.05
								c-14.716,37.312-31.396,79.604-40.028,117.902c-9.984,44.3-7.031,74.184,9.029,91.359
								c9.899,10.587,25.1,16.344,45.182,17.111c22.055,0.842,50.693-4.296,85.13-15.273
								c74.34-23.694,116.519-27.095,128.949-10.392c15.331,20.6-16.491,67.135-47.266,112.137
								c-24.6,35.972-47.834,69.947-41.416,84.061c1.724,3.79,5.488,5.978,11.51,6.688c6.849,0.81,11.5,3.508,13.825,8.021
								c7.715,14.969-10.677,48.518-30.149,84.035c-23.484,42.837-50.102,91.389-33.093,113.058
								c12.504,15.931,46.638,16.16,104.351,0.701l0.258,0.967C459.496,626.4,436.72,630.209,419.376,630.21z"/>
						</g>
					</g>
					<g>
						<g>
							
								<linearGradient id="SVGID_00000035490165482512838540000000477538918062508958_" gradientUnits="userSpaceOnUse" x1="240.1363" y1="270.9868" x2="514.9858" y2="270.9868">
								<stop  offset="0" style="stop-color:#FF25B6"/>
								<stop  offset="0.013" style="stop-color:#F720C0"/>
								<stop  offset="0.0526" style="stop-color:#E112DB"/>
								<stop  offset="0.093" style="stop-color:#D208EE"/>
								<stop  offset="0.1345" style="stop-color:#C902F9"/>
								<stop  offset="0.1787" style="stop-color:#C600FD"/>
								<stop  offset="0.475" style="stop-color:#432AF3"/>
								<stop  offset="0.6457" style="stop-color:#2747ED"/>
								<stop  offset="1" style="stop-color:#000422"/>
							</linearGradient>
							<path style="fill:url(#SVGID_00000035490165482512838540000000477538918062508958_);" d="M427.292,635.963
								c-18.12,0.001-30.41-4.197-37.141-12.599c-18.058-22.538,6.849-70.202,30.935-116.298
								c18.717-35.818,36.396-69.651,28.727-84.423c-2.222-4.279-6.423-6.772-12.842-7.621c-6.161-0.814-10.239-3.31-12.12-7.414
								c-6.822-14.888,15.876-49.533,39.906-86.213c28.405-43.356,60.6-92.497,45.112-112.842
								c-12.427-16.327-53.413-13.05-125.297,10.014c-33.374,10.707-61.281,15.68-82.939,14.777
								c-19.919-0.829-35.177-6.65-45.349-17.304c-16.836-17.633-20.463-48.379-11.089-93.997
								c8.056-39.203,24.179-82.474,38.404-120.651c16.263-43.647,30.309-81.341,23.254-91.586
								c-1.281-1.859-3.208-2.773-5.892-2.795l0.008-1c2.993,0.024,5.249,1.11,6.708,3.228c7.35,10.673-6.105,46.784-23.14,92.502
								c-14.213,38.143-30.322,81.376-38.362,120.504c-9.303,45.272-5.759,75.727,10.834,93.105
								c20.898,21.888,63.714,22.65,127.259,2.266c72.338-23.211,113.682-26.372,126.399-9.667
								c15.915,20.908-15.089,68.231-45.071,113.996c-23.875,36.442-46.427,70.863-39.834,85.249
								c1.753,3.824,5.463,6.061,11.342,6.838c6.673,0.883,11.248,3.626,13.599,8.152c7.909,15.234-9.887,49.291-28.729,85.348
								c-22.823,43.677-48.69,93.181-31.041,115.209c12.734,15.892,46.17,16.319,102.222,1.306l0.259,0.967
								C466.16,632.31,444.19,635.963,427.292,635.963z"/>
						</g>
					</g>
					<g>
						<g>
							
								<linearGradient id="SVGID_00000175306265603250198270000009328500064993500304_" gradientUnits="userSpaceOnUse" x1="245.2714" y1="269.8203" x2="516.0664" y2="269.8203">
								<stop  offset="0" style="stop-color:#FF25B6"/>
								<stop  offset="0.013" style="stop-color:#F720C0"/>
								<stop  offset="0.0526" style="stop-color:#E112DB"/>
								<stop  offset="0.093" style="stop-color:#D208EE"/>
								<stop  offset="0.1345" style="stop-color:#C902F9"/>
								<stop  offset="0.1787" style="stop-color:#C600FD"/>
								<stop  offset="0.475" style="stop-color:#432AF3"/>
								<stop  offset="0.6457" style="stop-color:#2747ED"/>
								<stop  offset="1" style="stop-color:#000422"/>
							</linearGradient>
							<path style="fill:url(#SVGID_00000175306265603250198270000009328500064993500304_);" d="M435.121,641.898
								c-18.098,0.001-30.473-4.233-37.401-12.706c-18.715-22.889,6.56-73.695,28.859-118.521
								c18.098-36.378,35.191-70.739,27.323-85.791c-2.247-4.299-6.379-6.835-12.631-7.753c-6.017-0.884-10.034-3.426-11.94-7.556
								c-6.996-15.154,15.018-50.26,38.322-87.426c27.667-44.121,59.024-94.129,42.935-114.793
								c-12.708-16.32-52.871-13.275-122.78,9.306c-32.221,10.408-59.29,15.2-80.442,14.26c-19.485-0.871-34.56-6.642-44.806-17.152
								c-17.373-17.821-21.599-49.145-12.921-95.763c7.457-40.058,23.005-84.306,36.722-123.345
								c15.601-44.399,29.074-82.743,21.872-93.109c-1.279-1.841-3.159-2.759-5.749-2.807l0.018-1
								c2.893,0.054,5.097,1.143,6.552,3.236c7.493,10.786-5.412,47.513-21.75,94.011c-26.457,75.296-62.691,178.418-24.029,218.078
								c21.038,21.58,62.833,22.467,124.224,2.639c70.361-22.729,110.878-25.662,123.877-8.969
								c16.52,21.217-13.675,69.371-42.876,115.939c-23.157,36.931-45.03,71.813-38.262,86.476c1.78,3.857,5.436,6.143,11.177,6.984
								c6.501,0.955,11,3.741,13.373,8.28c8.103,15.504-9.101,50.086-27.315,86.699c-22.165,44.555-47.288,95.054-28.981,117.442
								c12.952,15.839,45.703,16.455,100.118,1.879l0.258,0.967C472.757,638.398,451.574,641.898,435.121,641.898z"/>
						</g>
					</g>
					<g>
						<g>
							
								<linearGradient id="SVGID_00000098183689512660906760000016672152457815644861_" gradientUnits="userSpaceOnUse" x1="250.2599" y1="268.6812" x2="517.1276" y2="268.6812">
								<stop  offset="0" style="stop-color:#FF25B6"/>
								<stop  offset="0.013" style="stop-color:#F720C0"/>
								<stop  offset="0.0526" style="stop-color:#E112DB"/>
								<stop  offset="0.093" style="stop-color:#D208EE"/>
								<stop  offset="0.1345" style="stop-color:#C902F9"/>
								<stop  offset="0.1787" style="stop-color:#C600FD"/>
								<stop  offset="0.475" style="stop-color:#432AF3"/>
								<stop  offset="0.6457" style="stop-color:#2747ED"/>
								<stop  offset="1" style="stop-color:#000422"/>
							</linearGradient>
							<path style="fill:url(#SVGID_00000098183689512660906760000016672152457815644861_);" d="M442.863,648.012
								c-18.052,0.001-30.498-4.263-37.618-12.797c-19.388-23.238,5.135-75.081,26.772-120.821
								c17.482-36.957,33.994-71.864,25.929-87.201c-2.271-4.316-6.335-6.895-12.424-7.882c-5.873-0.95-9.83-3.539-11.762-7.692
								c-7.17-15.425,14.164-51.007,36.751-88.679c26.934-44.922,57.461-95.838,40.749-116.819
								c-12.983-16.3-52.331-13.475-120.293,8.634c-31.089,10.113-57.321,14.747-77.979,13.759
								c-19.051-0.907-33.936-6.618-44.242-16.975c-17.915-18.003-22.746-49.92-14.767-97.573
								c6.855-40.942,21.824-86.204,35.031-126.138c14.938-45.169,27.839-84.179,20.496-94.663c-1.275-1.82-3.109-2.74-5.607-2.814
								l0.029-1c2.796,0.082,4.948,1.172,6.396,3.24c7.632,10.896-4.723,48.254-20.365,95.551
								c-25.487,77.065-60.392,182.608-20.504,222.692c21.149,21.252,61.927,22.252,121.203,2.97
								c68.406-22.253,108.11-24.972,121.384-8.306c17.143,21.524-12.249,70.547-40.674,117.958
								c-22.446,37.438-43.647,72.799-36.701,87.742c1.808,3.889,5.41,6.221,11.015,7.128c6.331,1.025,10.755,3.853,13.148,8.403
								c8.299,15.778-8.317,50.904-25.909,88.094c-21.509,45.469-45.887,97.006-26.908,119.753
								c13.158,15.772,45.223,16.563,98.024,2.42l0.259,0.967C479.285,644.659,458.87,648.012,442.863,648.012z"/>
						</g>
					</g>
					<g>
						<g>
							
								<linearGradient id="SVGID_00000010300511784935261810000011815737654006783639_" gradientUnits="userSpaceOnUse" x1="255.1062" y1="267.5671" x2="518.1691" y2="267.5671">
								<stop  offset="0" style="stop-color:#FF25B6"/>
								<stop  offset="0.013" style="stop-color:#F720C0"/>
								<stop  offset="0.0526" style="stop-color:#E112DB"/>
								<stop  offset="0.093" style="stop-color:#D208EE"/>
								<stop  offset="0.1345" style="stop-color:#C902F9"/>
								<stop  offset="0.1787" style="stop-color:#C600FD"/>
								<stop  offset="0.475" style="stop-color:#432AF3"/>
								<stop  offset="0.6457" style="stop-color:#2747ED"/>
								<stop  offset="1" style="stop-color:#000422"/>
							</linearGradient>
							<path style="fill:url(#SVGID_00000010300511784935261810000011815737654006783639_);" d="M450.526,654.313
								c-17.985,0.001-30.49-4.287-37.797-12.871c-20.078-23.589,3.695-76.514,24.669-123.208
								c16.868-37.553,32.801-73.023,24.537-88.649c-2.291-4.333-6.287-6.952-12.217-8.005c-5.732-1.018-9.631-3.651-11.585-7.829
								c-7.345-15.703,13.317-51.781,35.192-89.978c26.206-45.76,55.909-97.625,38.558-118.92
								c-13.247-16.26-51.787-13.648-117.826,7.994c-29.982,9.824-55.407,14.289-75.554,13.279
								c-18.617-0.936-33.306-6.58-43.657-16.773c-18.461-18.178-23.9-50.699-16.626-99.422
								c6.249-41.855,20.635-88.168,33.328-129.028c14.278-45.963,26.609-85.658,19.125-96.261c-1.27-1.799-3.057-2.721-5.465-2.819
								l0.04-0.999c2.701,0.109,4.801,1.2,6.242,3.241c7.767,11.006-4.039,49.014-18.988,97.134
								c-24.509,78.898-58.075,186.953-16.955,227.441c21.229,20.904,60.998,22,118.199,3.256
								c66.473-21.784,105.372-24.295,118.913-7.676c17.785,21.828-10.811,71.761-38.465,120.049
								c-21.743,37.966-42.279,73.825-35.154,89.058c1.834,3.92,5.384,6.298,10.854,7.268c6.166,1.095,10.516,3.962,12.927,8.522
								c8.491,16.059-7.538,51.745-24.509,89.527c-20.853,46.424-44.488,99.042-24.82,122.149
								c13.353,15.688,44.737,16.645,95.95,2.93l0.258,0.967C485.754,651.102,466.089,654.313,450.526,654.313z"/>
						</g>
					</g>
					<g>
						<g>
							
								<linearGradient id="SVGID_00000168828337928519532600000007519334415806267288_" gradientUnits="userSpaceOnUse" x1="259.8056" y1="266.4807" x2="519.191" y2="266.4807">
								<stop  offset="0" style="stop-color:#FF25B6"/>
								<stop  offset="0.013" style="stop-color:#F720C0"/>
								<stop  offset="0.0526" style="stop-color:#E112DB"/>
								<stop  offset="0.093" style="stop-color:#D208EE"/>
								<stop  offset="0.1345" style="stop-color:#C902F9"/>
								<stop  offset="0.1787" style="stop-color:#C600FD"/>
								<stop  offset="0.475" style="stop-color:#432AF3"/>
								<stop  offset="0.6457" style="stop-color:#2747ED"/>
								<stop  offset="1" style="stop-color:#000422"/>
							</linearGradient>
							<path style="fill:url(#SVGID_00000168828337928519532600000007519334415806267288_);" d="M458.106,660.804
								c-17.897,0-30.445-4.306-37.932-12.929c-20.78-23.938,2.241-77.988,22.553-125.676
								c16.258-38.171,31.614-74.226,23.153-90.148c-2.311-4.35-6.241-7.007-12.015-8.125c-5.596-1.083-9.435-3.762-11.411-7.961
								c-7.52-15.984,12.476-52.575,33.645-91.314c25.484-46.638,54.369-99.497,36.36-121.105
								c-13.507-16.206-51.251-13.788-115.389,7.388c-55.548,18.341-94.648,17.085-116.216-3.728
								c-19.007-18.343-25.057-51.481-18.494-101.308c5.637-42.796,19.437-90.196,31.611-132.016
								c13.62-46.78,25.381-87.181,17.763-97.904c-1.263-1.777-3.005-2.7-5.325-2.821l0.052-0.999
								c2.609,0.136,4.657,1.226,6.089,3.241c7.898,11.117-3.362,49.795-17.618,98.763
								c-23.522,80.796-55.738,191.451-13.383,232.324c21.28,20.536,60.041,21.711,115.207,3.498
								c64.577-21.321,102.671-23.635,116.47-7.079c18.445,22.131-9.36,73.015-36.251,122.225
								c-21.043,38.51-40.92,74.885-33.616,90.409c1.858,3.949,5.356,6.371,10.695,7.404c6.005,1.163,10.281,4.069,12.709,8.638
								c8.685,16.345-6.763,52.613-23.117,91.01c-20.196,47.418-43.088,101.163-22.717,124.629
								c13.53,15.589,44.24,16.703,93.886,3.407l0.258,0.967C492.158,657.731,473.224,660.804,458.106,660.804z"/>
						</g>
					</g>
					<g>
						<g>
							
								<linearGradient id="SVGID_00000104689191332640017670000005108709025630571171_" gradientUnits="userSpaceOnUse" x1="264.3632" y1="265.4179" x2="520.4258" y2="265.4179">
								<stop  offset="0" style="stop-color:#FF25B6"/>
								<stop  offset="0.013" style="stop-color:#F720C0"/>
								<stop  offset="0.0526" style="stop-color:#E112DB"/>
								<stop  offset="0.093" style="stop-color:#D208EE"/>
								<stop  offset="0.1345" style="stop-color:#C902F9"/>
								<stop  offset="0.1787" style="stop-color:#C600FD"/>
								<stop  offset="0.475" style="stop-color:#432AF3"/>
								<stop  offset="0.6457" style="stop-color:#2747ED"/>
								<stop  offset="1" style="stop-color:#000422"/>
							</linearGradient>
							<path style="fill:url(#SVGID_00000104689191332640017670000005108709025630571171_);" d="M465.602,667.486
								c-17.786,0-30.364-4.318-38.021-12.968c-21.497-24.285,0.773-79.507,20.423-128.229
								c15.65-38.809,30.434-75.464,21.776-91.689c-2.328-4.363-6.193-7.06-11.814-8.241c-5.461-1.148-9.242-3.87-11.238-8.091
								c-7.694-16.273,11.64-53.397,32.109-92.701c24.767-47.552,52.836-101.449,34.153-123.364
								c-13.751-16.132-50.704-13.901-112.969,6.817c-53.551,17.82-91.65,16.501-113.239-3.922
								c-19.556-18.499-26.22-52.268-20.375-103.233c5.02-43.768,18.227-92.293,29.878-135.106
								c13.495-49.583,24.153-88.746,16.403-99.589c-1.255-1.755-2.952-2.678-5.187-2.821l0.063-0.998
								c2.519,0.161,4.517,1.25,5.937,3.238c8.026,11.229-2.688,50.595-16.252,100.434c-22.525,82.764-53.374,196.112-9.781,237.351
								c21.299,20.148,59.062,21.395,112.236,3.7c62.696-20.862,100-22.993,114.045-6.517c19.12,22.429-7.897,74.306-34.026,124.476
								c-20.352,39.077-39.575,75.986-32.093,91.81c1.882,3.979,5.329,6.444,10.539,7.54c5.848,1.23,10.05,4.173,12.492,8.749
								c8.876,16.637-5.991,53.503-21.732,92.534c-19.54,48.452-41.688,103.37-20.602,127.191
								c13.698,15.476,43.74,16.734,91.839,3.851l0.258,0.967C498.499,664.546,480.277,667.486,465.602,667.486z"/>
						</g>
					</g>
					<g>
						<g>
							
								<linearGradient id="SVGID_00000078020320503471642230000008325323623560637873_" gradientUnits="userSpaceOnUse" x1="268.7752" y1="264.3796" x2="525.7617" y2="264.3796">
								<stop  offset="0" style="stop-color:#FF25B6"/>
								<stop  offset="0.013" style="stop-color:#F720C0"/>
								<stop  offset="0.0526" style="stop-color:#E112DB"/>
								<stop  offset="0.093" style="stop-color:#D208EE"/>
								<stop  offset="0.1345" style="stop-color:#C902F9"/>
								<stop  offset="0.1787" style="stop-color:#C600FD"/>
								<stop  offset="0.475" style="stop-color:#432AF3"/>
								<stop  offset="0.6457" style="stop-color:#2747ED"/>
								<stop  offset="1" style="stop-color:#000422"/>
							</linearGradient>
							<path style="fill:url(#SVGID_00000078020320503471642230000008325323623560637873_);" d="M473.021,674.36
								c-17.655,0-30.245-4.324-38.063-12.988c-22.226-24.629-0.708-81.071,18.277-130.87
								c15.046-39.466,29.257-76.742,20.406-93.275c-2.343-4.377-6.143-7.109-11.616-8.354c-5.328-1.211-9.052-3.975-11.067-8.217
								c-7.87-16.567,10.808-54.24,30.582-94.126c24.049-48.508,51.307-103.488,31.932-125.708
								c-13.988-16.041-50.155-13.988-110.572,6.28c-51.598,17.308-88.702,15.937-110.278-4.076
								c-20.103-18.646-27.385-53.056-22.263-105.195c4.398-44.769,17.006-94.458,28.13-138.298
								c12.809-50.481,22.926-90.354,15.049-101.317c-1.245-1.732-2.897-2.655-5.05-2.819l0.076-0.997
								c2.432,0.186,4.378,1.273,5.787,3.233c8.148,11.341-2.02,51.414-14.893,102.146c-21.517,84.798-50.985,200.934-6.157,242.514
								c21.289,19.746,58.056,21.045,109.28,3.861c60.845-20.411,97.362-22.369,111.645-5.989
								c19.813,22.723-6.42,75.637-31.79,126.81c-19.663,39.661-38.236,77.124-30.574,93.252c1.903,4.006,5.301,6.516,10.386,7.672
								c5.692,1.294,9.822,4.273,12.276,8.857c9.066,16.935-5.225,54.419-20.353,94.103c-18.883,49.53-40.285,105.669-18.47,129.844
								c13.848,15.347,43.223,16.739,89.803,4.261l0.259,0.967C504.79,671.547,487.258,674.359,473.021,674.36z"/>
						</g>
					</g>
					<g>
						<g>
							
								<linearGradient id="SVGID_00000023982286738216325140000013445908004421693101_" gradientUnits="userSpaceOnUse" x1="273.0417" y1="263.3633" x2="531.0781" y2="263.3633">
								<stop  offset="0" style="stop-color:#FF25B6"/>
								<stop  offset="0.013" style="stop-color:#F720C0"/>
								<stop  offset="0.0526" style="stop-color:#E112DB"/>
								<stop  offset="0.093" style="stop-color:#D208EE"/>
								<stop  offset="0.1345" style="stop-color:#C902F9"/>
								<stop  offset="0.1787" style="stop-color:#C600FD"/>
								<stop  offset="0.475" style="stop-color:#432AF3"/>
								<stop  offset="0.6457" style="stop-color:#2747ED"/>
								<stop  offset="1" style="stop-color:#000422"/>
							</linearGradient>
							<path style="fill:url(#SVGID_00000023982286738216325140000013445908004421693101_);" d="M480.37,681.429
								c-17.504,0-30.097-4.326-38.067-12.993c-22.965-24.972-2.202-82.681,16.116-133.596
								c14.442-40.141,28.083-78.057,19.041-94.903c-2.357-4.39-6.092-7.158-11.421-8.464c-5.2-1.273-8.868-4.08-10.9-8.342
								c-8.045-16.866,9.98-55.108,29.064-95.595c23.335-49.505,49.782-105.615,29.7-128.135
								c-14.207-15.934-49.601-14.045-108.196,5.774c-49.688,16.807-85.801,15.398-107.335-4.191
								c-20.646-18.781-28.548-53.843-24.155-107.191c3.771-45.798,15.774-96.689,26.365-141.589
								c12.125-51.406,21.701-92.009,13.701-103.094c-1.234-1.71-2.842-2.631-4.917-2.816l0.089-0.996
								c2.347,0.209,4.244,1.295,5.639,3.227c8.267,11.456-1.356,52.255-13.539,103.909c-20.497,86.9-48.568,205.914-2.51,247.811
								c21.246,19.326,57.024,20.666,106.342,3.984c59.018-19.962,94.758-21.759,109.264-5.493
								c20.521,23.013-4.93,77.008-29.543,129.226c-18.979,40.267-36.907,78.3-29.066,94.739c1.924,4.033,5.272,6.585,10.236,7.801
								c5.542,1.357,9.601,4.372,12.064,8.962c9.253,17.239-4.461,55.358-18.981,95.715c-18.222,50.648-38.876,108.054-16.32,132.58
								c13.979,15.2,42.691,16.72,87.78,4.643l0.259,0.967C511.027,678.739,494.172,681.429,480.37,681.429z"/>
						</g>
					</g>
					<g>
						<g>
							
								<linearGradient id="SVGID_00000150806002532132805970000004471083333009303467_" gradientUnits="userSpaceOnUse" x1="277.2599" y1="262.3675" x2="536.3789" y2="262.3675">
								<stop  offset="0" style="stop-color:#FF25B6"/>
								<stop  offset="0.013" style="stop-color:#F720C0"/>
								<stop  offset="0.0526" style="stop-color:#E112DB"/>
								<stop  offset="0.093" style="stop-color:#D208EE"/>
								<stop  offset="0.1345" style="stop-color:#C902F9"/>
								<stop  offset="0.1787" style="stop-color:#C600FD"/>
								<stop  offset="0.475" style="stop-color:#432AF3"/>
								<stop  offset="0.6457" style="stop-color:#2747ED"/>
								<stop  offset="1" style="stop-color:#000422"/>
							</linearGradient>
							<path style="fill:url(#SVGID_00000150806002532132805970000004471083333009303467_);" d="M487.646,688.696
								c-17.335,0.001-29.912-4.32-38.025-12.979c-23.715-25.31-3.711-84.334,13.938-136.409
								c13.841-40.838,26.913-79.41,17.682-96.576c-2.367-4.402-6.04-7.206-11.228-8.571c-5.074-1.335-8.686-4.182-10.734-8.463
								c-8.219-17.172,9.158-56,27.555-97.107c22.621-50.546,48.261-107.835,27.455-130.649
								c-14.418-15.81-49.039-14.074-105.839,5.305c-47.819,16.316-82.949,14.878-104.409-4.271
								c-47.715-42.577-20.988-164.895-1.473-254.209c11.44-52.356,20.476-93.71,12.357-104.92
								c-1.222-1.688-2.787-2.607-4.784-2.811l0.102-0.995c2.266,0.232,4.113,1.315,5.493,3.22
								c8.381,11.573-0.697,53.12-12.19,105.72c-19.463,89.073-46.118,211.061,1.162,253.249
								c21.172,18.892,55.968,20.261,103.421,4.071c57.216-19.521,92.184-21.167,106.9-5.032
								c21.247,23.298-3.424,78.422-27.281,131.731c-18.3,40.891-35.585,79.513-27.566,96.268c1.943,4.061,5.242,6.653,10.087,7.928
								c5.396,1.419,9.384,4.469,11.855,9.064c9.438,17.549-3.703,56.321-17.615,97.37c-17.559,51.81-37.46,110.532-14.155,135.405
								c14.096,15.044,42.151,16.678,85.771,4.994l0.258,0.967C517.217,686.126,501.017,688.696,487.646,688.696z"/>
						</g>
					</g>
					<g>
						<g>
							
								<linearGradient id="SVGID_00000062887962965205113120000017410002754174660017_" gradientUnits="userSpaceOnUse" x1="281.2269" y1="261.4006" x2="541.668" y2="261.4006">
								<stop  offset="0" style="stop-color:#FF25B6"/>
								<stop  offset="0.013" style="stop-color:#F720C0"/>
								<stop  offset="0.0526" style="stop-color:#E112DB"/>
								<stop  offset="0.093" style="stop-color:#D208EE"/>
								<stop  offset="0.1345" style="stop-color:#C902F9"/>
								<stop  offset="0.1787" style="stop-color:#C600FD"/>
								<stop  offset="0.475" style="stop-color:#432AF3"/>
								<stop  offset="0.6457" style="stop-color:#2747ED"/>
								<stop  offset="1" style="stop-color:#000422"/>
							</linearGradient>
							<path style="fill:url(#SVGID_00000062887962965205113120000017410002754174660017_);" d="M494.854,696.17
								c-17.147,0-29.693-4.31-37.939-12.949c-24.473-25.645-5.234-86.031,11.739-139.31c13.239-41.555,25.744-80.805,16.325-98.3
								c-2.377-4.416-5.989-7.254-11.042-8.678c-4.951-1.396-8.507-4.282-10.57-8.581c-8.391-17.485,8.343-56.918,26.059-98.666
								c21.908-51.629,46.74-110.147,25.198-133.247c-14.612-15.667-48.467-14.074-103.497,4.87
								c-46.001,15.834-80.153,14.382-101.509-4.317c-48.927-42.837-23.639-168.229-5.174-259.786
								c10.754-53.325,19.249-95.444,11.018-106.778c-1.208-1.664-2.73-2.581-4.653-2.804l0.115-0.993
								c2.186,0.254,3.984,1.333,5.347,3.21c8.488,11.688-0.045,53.998-10.847,107.563c-18.416,91.317-43.638,216.38,4.852,258.835
								c21.068,18.446,54.89,19.833,100.525,4.125c55.446-19.087,89.646-20.594,104.555-4.607
								c21.984,23.575-1.905,79.875-25.01,134.32c-17.624,41.534-34.271,80.765-26.077,97.843c1.961,4.085,5.212,6.719,9.94,8.051
								c5.253,1.48,9.173,4.564,11.65,9.166c9.62,17.869-2.947,57.315-16.252,99.078c-16.89,53.014-36.032,113.101-11.969,138.315
								c14.193,14.873,41.595,16.61,83.771,5.314l0.258,0.967C523.362,693.713,507.797,696.169,494.854,696.17z"/>
						</g>
					</g>
					<g>
						<g>
							
								<linearGradient id="SVGID_00000021082884849656961070000016172864197788804015_" gradientUnits="userSpaceOnUse" x1="285.0451" y1="260.45" x2="546.9443" y2="260.45">
								<stop  offset="0" style="stop-color:#FF25B6"/>
								<stop  offset="0.013" style="stop-color:#F720C0"/>
								<stop  offset="0.0526" style="stop-color:#E112DB"/>
								<stop  offset="0.093" style="stop-color:#D208EE"/>
								<stop  offset="0.1345" style="stop-color:#C902F9"/>
								<stop  offset="0.1787" style="stop-color:#C600FD"/>
								<stop  offset="0.475" style="stop-color:#432AF3"/>
								<stop  offset="0.6457" style="stop-color:#2747ED"/>
								<stop  offset="1" style="stop-color:#000422"/>
							</linearGradient>
							<path style="fill:url(#SVGID_00000021082884849656961070000016172864197788804015_);" d="M501.991,703.84
								c-16.94,0-29.442-4.293-37.807-12.901c-25.237-25.973-6.769-87.771,9.526-142.296c15.523-51.94,30.186-101,4.117-108.847
								c-4.83-1.454-8.332-4.38-10.408-8.697c-8.56-17.803,7.532-57.857,24.569-100.264
								c21.195-52.757,45.218-112.553,22.926-135.935c-14.788-15.509-47.883-14.049-101.177,4.465
								c-44.22,15.364-77.404,13.907-98.628-4.33c-50.121-43.067-26.294-171.625-8.896-265.494
								c10.068-54.324,18.021-97.232,9.683-108.693c-1.194-1.641-2.675-2.556-4.526-2.797l0.129-0.991
								c2.109,0.274,3.86,1.351,5.206,3.2c8.592,11.808,0.604,54.903-9.508,109.463c-17.354,93.63-41.121,221.862,8.564,264.554
								c20.935,17.988,53.789,19.383,97.648,4.144c53.702-18.656,87.142-20.033,102.228-4.211
								c22.736,23.847-0.373,81.369-22.722,136.998c-16.952,42.195-32.965,82.052-24.596,99.457
								c1.977,4.111,5.181,6.784,9.796,8.174c27.022,8.134,12.222,57.658-3.448,110.09c-16.216,54.261-34.596,115.761-9.767,141.313
								c14.273,14.688,41.023,16.521,81.784,5.602l0.259,0.967C529.459,701.493,514.513,703.839,501.991,703.84z"/>
						</g>
					</g>
					<g>
						<g>
							
								<linearGradient id="SVGID_00000060005845509039815450000001426479599487138192_" gradientUnits="userSpaceOnUse" x1="288.7114" y1="259.5219" x2="552.2139" y2="259.5219">
								<stop  offset="0" style="stop-color:#FF25B6"/>
								<stop  offset="0.013" style="stop-color:#F720C0"/>
								<stop  offset="0.0526" style="stop-color:#E112DB"/>
								<stop  offset="0.093" style="stop-color:#D208EE"/>
								<stop  offset="0.1345" style="stop-color:#C902F9"/>
								<stop  offset="0.1787" style="stop-color:#C600FD"/>
								<stop  offset="0.475" style="stop-color:#432AF3"/>
								<stop  offset="0.6457" style="stop-color:#2747ED"/>
								<stop  offset="1" style="stop-color:#000422"/>
							</linearGradient>
							<path style="fill:url(#SVGID_00000060005845509039815450000001426479599487138192_);" d="M509.067,711.72
								c-16.717,0.001-29.16-4.271-37.632-12.836c-26.009-26.297-8.315-89.561,7.296-145.379
								c14.743-52.716,28.669-102.508,2.954-110.759c-4.715-1.512-8.164-4.478-10.251-8.814
								c-8.73-18.13,6.725-58.828,23.086-101.915c20.479-53.928,43.689-115.05,20.635-138.7
								c-14.945-15.333-47.284-13.993-98.865,4.099c-42.489,14.902-74.713,13.45-95.777-4.316
								c-51.299-43.27-28.954-175.093-12.638-271.347c9.381-55.346,16.792-99.061,8.35-110.65c-1.179-1.619-2.619-2.531-4.401-2.788
								l0.144-0.99c2.034,0.295,3.739,1.368,5.066,3.19c8.689,11.93,1.248,55.829-8.173,111.406
								c-16.275,96.016-38.566,227.513,12.297,270.415c20.772,17.522,52.668,18.913,94.802,4.137
								c51.984-18.234,84.666-19.495,99.912-3.854c23.498,24.107,1.173,82.899-20.417,139.754
								c-16.283,42.88-31.663,83.383-23.12,101.126c1.992,4.137,5.15,6.85,9.655,8.296c26.632,8.544,12.581,58.787-2.296,111.98
								c-15.537,55.556-33.147,118.522-7.548,144.406c14.331,14.491,40.438,16.406,79.808,5.86l0.26,0.967
								C535.519,709.479,521.172,711.719,509.067,711.72z"/>
						</g>
					</g>
					<g>
						<g>
							
								<linearGradient id="SVGID_00000120554720103306705810000007326030426861232041_" gradientUnits="userSpaceOnUse" x1="292.2267" y1="258.6189" x2="557.4707" y2="258.6189">
								<stop  offset="0" style="stop-color:#FF25B6"/>
								<stop  offset="0.013" style="stop-color:#F720C0"/>
								<stop  offset="0.0526" style="stop-color:#E112DB"/>
								<stop  offset="0.093" style="stop-color:#D208EE"/>
								<stop  offset="0.1345" style="stop-color:#C902F9"/>
								<stop  offset="0.1787" style="stop-color:#C600FD"/>
								<stop  offset="0.475" style="stop-color:#432AF3"/>
								<stop  offset="0.6457" style="stop-color:#2747ED"/>
								<stop  offset="1" style="stop-color:#000422"/>
							</linearGradient>
							<path style="fill:url(#SVGID_00000120554720103306705810000007326030426861232041_);" d="M516.084,719.813
								c-16.478,0.001-28.85-4.243-37.416-12.755c-26.783-26.614-9.873-91.397,5.047-148.553
								c13.969-53.514,27.163-104.06,1.788-112.716c-4.602-1.57-7.998-4.574-10.096-8.929c-8.897-18.465,5.923-59.823,21.612-103.61
								c19.759-55.146,42.153-117.648,18.328-141.561c-15.086-15.142-46.674-13.914-96.573,3.76
								c-40.804,14.453-72.076,13.016-92.947-4.269c-52.454-43.439-31.612-178.626-16.394-277.335
								c9.74-63.181,17.434-113.084,2.743-115.432l0.158-0.987c15.672,2.504,8.296,50.351-1.913,116.572
								c-15.181,98.472-35.973,233.334,16.044,276.412c20.582,17.046,51.527,18.424,91.975,4.097
								c50.298-17.815,82.229-18.967,97.615-3.523c24.272,24.361,2.734,84.472-18.095,142.604
								c-15.617,43.585-30.367,84.752-21.653,102.839c2.006,4.162,5.119,6.915,9.518,8.416c26.255,8.957,12.946,59.94-1.144,113.916
								c-14.852,56.896-31.684,121.381-5.309,147.59c14.371,14.281,39.833,16.274,77.84,6.094l0.258,0.967
								C541.539,717.675,527.777,719.813,516.084,719.813z"/>
						</g>
					</g>
					<g>
						<g>
							
								<linearGradient id="SVGID_00000105396151779904047760000008571536400530118307_" gradientUnits="userSpaceOnUse" x1="295.5854" y1="257.7346" x2="562.7275" y2="257.7346">
								<stop  offset="0" style="stop-color:#FF25B6"/>
								<stop  offset="0.013" style="stop-color:#F720C0"/>
								<stop  offset="0.0526" style="stop-color:#E112DB"/>
								<stop  offset="0.093" style="stop-color:#D208EE"/>
								<stop  offset="0.1345" style="stop-color:#C902F9"/>
								<stop  offset="0.1787" style="stop-color:#C600FD"/>
								<stop  offset="0.475" style="stop-color:#432AF3"/>
								<stop  offset="0.6457" style="stop-color:#2747ED"/>
								<stop  offset="1" style="stop-color:#000422"/>
							</linearGradient>
							<path style="fill:url(#SVGID_00000105396151779904047760000008571536400530118307_);" d="M523.036,728.117
								c-16.224,0.001-28.508-4.21-37.155-12.657c-27.56-26.923-11.44-93.272,2.782-151.81
								c13.2-54.335,25.669-105.657,0.622-114.727c-25.306-9.164-8.057-60.275,10.205-114.389
								c19.037-56.411,40.614-120.348,16.008-144.512c-15.208-14.936-46.052-13.805-94.296,3.456
								c-39.163,14.013-69.494,12.599-90.149-4.2c-53.584-43.581-34.27-182.23-20.167-283.468
								c8.945-64.215,16.011-114.936,1.538-117.474l0.173-0.985c15.424,2.705,8.652,51.317-0.72,118.598
								c-14.07,101.002-33.339,239.33,19.808,282.554c20.366,16.564,50.37,17.92,89.182,4.034
								c48.639-17.402,79.824-18.46,95.333-3.229c11.228,11.025,14.115,30.79,8.827,60.423
								c-4.643,26.019-14.782,56.065-24.588,85.122c-18.101,53.637-35.198,104.299-10.813,113.13
								c25.891,9.373,13.319,61.119,0.01,115.902c-14.159,58.278-30.207,124.333-3.055,150.857
								c14.392,14.059,39.213,16.119,75.889,6.295l0.259,0.967C547.526,726.077,534.326,728.117,523.036,728.117z"/>
						</g>
					</g>
					<g>
						<g>
							
								<linearGradient id="SVGID_00000054946054447976391520000012615986280886587282_" gradientUnits="userSpaceOnUse" x1="298.7819" y1="256.8691" x2="567.9756" y2="256.8691">
								<stop  offset="0" style="stop-color:#FF25B6"/>
								<stop  offset="0.013" style="stop-color:#F720C0"/>
								<stop  offset="0.0526" style="stop-color:#E112DB"/>
								<stop  offset="0.093" style="stop-color:#D208EE"/>
								<stop  offset="0.1345" style="stop-color:#C902F9"/>
								<stop  offset="0.1787" style="stop-color:#C600FD"/>
								<stop  offset="0.475" style="stop-color:#432AF3"/>
								<stop  offset="0.6457" style="stop-color:#2747ED"/>
								<stop  offset="1" style="stop-color:#000422"/>
							</linearGradient>
							<path style="fill:url(#SVGID_00000054946054447976391520000012615986280886587282_);" d="M529.929,736.637
								c-15.953,0.001-28.137-4.172-36.852-12.545c-28.336-27.224-13.017-95.192,0.5-155.16
								c12.436-55.178,24.183-107.296-0.543-116.78c-24.956-9.575-8.514-61.411,8.896-116.291
								c18.31-57.72,39.063-123.142,13.669-147.546c-15.312-14.714-45.416-13.671-92.032,3.182
								c-37.568,13.582-66.967,12.2-87.381-4.107C281.498,143.7,299.26,1.486,312.229-102.354
								c8.152-65.274,14.592-116.832,0.331-119.562l0.188-0.982c15.182,2.906,9.012,52.302,0.474,120.668
								C300.282,1.375,282.56,143.269,336.81,186.608c20.122,16.077,49.196,17.404,86.417,3.948
								c47.014-16.997,77.454-17.965,93.064-2.962c11.579,11.128,14.856,31.253,10.019,61.526
								c-4.248,26.582-13.998,57.318-23.427,87.043c-17.262,54.417-33.566,105.817-9.491,115.055
								c25.534,9.795,13.695,62.322,1.161,117.934c-13.458,59.71-28.712,127.387-0.782,154.22
								c14.391,13.827,38.578,15.943,73.946,6.469l0.259,0.967C553.476,734.69,540.822,736.636,529.929,736.637z"/>
						</g>
					</g>
					<g>
						<g>
							
								<linearGradient id="SVGID_00000030446114126650257860000001473486706479624340_" gradientUnits="userSpaceOnUse" x1="301.8172" y1="256.0276" x2="573.2285" y2="256.0276">
								<stop  offset="0" style="stop-color:#FF25B6"/>
								<stop  offset="0.013" style="stop-color:#F720C0"/>
								<stop  offset="0.0526" style="stop-color:#E112DB"/>
								<stop  offset="0.093" style="stop-color:#D208EE"/>
								<stop  offset="0.1345" style="stop-color:#C902F9"/>
								<stop  offset="0.1787" style="stop-color:#C600FD"/>
								<stop  offset="0.475" style="stop-color:#432AF3"/>
								<stop  offset="0.6457" style="stop-color:#2747ED"/>
								<stop  offset="1" style="stop-color:#000422"/>
							</linearGradient>
							<path style="fill:url(#SVGID_00000030446114126650257860000001473486706479624340_);" d="M536.774,745.382
								c-15.671,0-27.742-4.13-36.511-12.417c-29.112-27.517-14.603-97.162-1.802-158.607c11.676-56.044,22.704-108.98-1.71-118.886
								c-24.613-9.987-8.971-62.566,7.591-118.232c17.576-59.081,37.499-126.045,11.31-150.677
								c-15.392-14.476-44.761-13.514-89.782,2.941c-36.021,13.163-64.498,11.821-84.644-3.992
								c-55.758-43.765-39.572-189.643-27.753-296.159c7.364-66.362,13.18-118.779-0.875-121.701l0.204-0.979
								c14.945,3.107,9.375,53.309,1.665,122.79c-11.793,106.282-27.944,251.841,27.376,295.262
								c19.855,15.585,48.009,16.876,83.683,3.839c45.412-16.597,75.118-17.491,90.812-2.73
								c26.637,25.054,6.621,92.332-11.038,151.69c-16.428,55.219-31.944,107.375-8.173,117.021
								c25.187,10.22,14.587,61.101,2.313,120.016c-12.748,61.189-27.197,130.543,1.51,157.676
								c14.371,13.585,37.93,15.751,72.02,6.618l0.258,0.967C559.403,743.525,547.279,745.382,536.774,745.382z"/>
						</g>
					</g>
					<g>
						<g>
							
								<linearGradient id="SVGID_00000114045637989555021640000013320200162021661833_" gradientUnits="userSpaceOnUse" x1="304.6803" y1="255.201" x2="578.4844" y2="255.201">
								<stop  offset="0" style="stop-color:#FF25B6"/>
								<stop  offset="0.013" style="stop-color:#F720C0"/>
								<stop  offset="0.0526" style="stop-color:#E112DB"/>
								<stop  offset="0.093" style="stop-color:#D208EE"/>
								<stop  offset="0.1345" style="stop-color:#C902F9"/>
								<stop  offset="0.1787" style="stop-color:#C600FD"/>
								<stop  offset="0.475" style="stop-color:#432AF3"/>
								<stop  offset="0.6457" style="stop-color:#2747ED"/>
								<stop  offset="1" style="stop-color:#000422"/>
							</linearGradient>
							<path style="fill:url(#SVGID_00000114045637989555021640000013320200162021661833_);" d="M543.573,754.346
								c-15.38,0-27.325-4.082-36.134-12.277c-29.886-27.802-16.196-99.176-4.118-162.147c10.919-56.93,21.232-110.701-2.88-121.031
								c-24.286-10.407-9.435-63.754,6.286-120.233c16.838-60.485,35.923-129.042,8.939-153.887
								c-15.451-14.227-44.088-13.335-87.55,2.726c-34.516,12.756-62.085,11.458-81.94-3.855
								c-56.796-43.805-42.212-193.449-31.564-302.714c6.576-67.479,11.771-120.778-2.085-123.895l0.22-0.975
								c14.717,3.31,9.744,54.34,2.861,124.967c-10.626,109.033-25.178,258.359,31.179,301.826
								c19.565,15.09,46.813,16.337,80.983,3.709c43.847-16.204,72.82-17.029,88.574-2.523
								c27.433,25.259,8.263,94.128-8.652,154.891c-15.602,56.046-30.338,108.983-6.855,119.045
								c24.852,10.647,14.941,62.315,3.467,122.139c-12.028,62.717-25.663,133.802,3.817,161.227
								c14.333,13.334,37.264,15.542,70.106,6.744l0.258,0.967C565.308,752.576,553.695,754.345,543.573,754.346z"/>
						</g>
					</g>
					<g>
						<g>
							
								<linearGradient id="SVGID_00000012466747226823493690000014223798670915591050_" gradientUnits="userSpaceOnUse" x1="307.3652" y1="254.3963" x2="583.7363" y2="254.3963">
								<stop  offset="0" style="stop-color:#FF25B6"/>
								<stop  offset="0.013" style="stop-color:#F720C0"/>
								<stop  offset="0.0526" style="stop-color:#E112DB"/>
								<stop  offset="0.093" style="stop-color:#D208EE"/>
								<stop  offset="0.1345" style="stop-color:#C902F9"/>
								<stop  offset="0.1787" style="stop-color:#C600FD"/>
								<stop  offset="0.475" style="stop-color:#432AF3"/>
								<stop  offset="0.6457" style="stop-color:#2747ED"/>
								<stop  offset="1" style="stop-color:#000422"/>
							</linearGradient>
							<path style="fill:url(#SVGID_00000012466747226823493690000014223798670915591050_);" d="M550.316,763.537
								c-15.075,0-26.885-4.031-35.719-12.123c-30.653-28.076-17.794-101.233-6.448-165.779
								c10.167-57.838,19.77-112.469-4.047-123.229c-23.964-10.827-9.902-64.96,4.986-122.272
								c16.091-61.944,34.329-132.154,6.546-157.199c-15.49-13.963-43.399-13.133-85.331,2.542
								c-33.059,12.357-59.732,11.112-79.276-3.703c-57.797-43.813-44.84-197.328-35.38-309.419
								c5.792-68.618,10.366-122.816-3.293-126.128l0.235-0.972c14.492,3.514,10.114,55.388,4.054,127.184
								c-9.441,111.86-22.371,265.058,34.987,308.538c19.254,14.597,45.605,15.793,78.322,3.563
								c42.313-15.817,70.558-16.583,86.351-2.348c28.234,25.452,9.915,95.973-6.248,158.194
								c-14.779,56.892-28.738,110.628-5.542,121.107c24.524,11.08,15.301,63.554,4.62,124.314
								c-11.302,64.293-24.11,137.163,6.138,164.869c14.275,13.075,36.587,15.314,68.205,6.845l0.259,0.967
								C571.18,761.852,560.065,763.537,550.316,763.537z"/>
						</g>
					</g>
					<g>
						<g>
							
								<linearGradient id="SVGID_00000119815969163722000570000015287981072120805816_" gradientUnits="userSpaceOnUse" x1="309.8618" y1="253.6072" x2="588.998" y2="253.6072">
								<stop  offset="0" style="stop-color:#FF25B6"/>
								<stop  offset="0.013" style="stop-color:#F720C0"/>
								<stop  offset="0.0526" style="stop-color:#E112DB"/>
								<stop  offset="0.093" style="stop-color:#D208EE"/>
								<stop  offset="0.1345" style="stop-color:#C902F9"/>
								<stop  offset="0.1787" style="stop-color:#C600FD"/>
								<stop  offset="0.475" style="stop-color:#432AF3"/>
								<stop  offset="0.6457" style="stop-color:#2747ED"/>
								<stop  offset="1" style="stop-color:#000422"/>
							</linearGradient>
							<path style="fill:url(#SVGID_00000119815969163722000570000015287981072120805816_);" d="M557.016,772.955
								c-14.762,0-26.421-3.975-35.267-11.955c-31.413-28.339-19.396-103.332-8.793-169.498
								c9.418-58.773,18.313-114.286-5.222-125.482c-23.654-11.254-10.373-66.197,3.689-124.367
								c15.338-63.449,32.722-135.365,4.141-160.594c-15.508-13.687-42.697-12.908-83.127,2.386
								c-31.649,11.971-57.439,10.782-76.652-3.536c-58.759-43.787-47.458-201.275-39.207-316.268
								c5.007-69.785,8.963-124.905-4.505-128.414l0.252-0.968c14.273,3.719,10.488,56.459,5.25,129.454
								c-8.235,114.762-19.513,271.934,38.807,315.394c18.921,14.1,44.39,15.246,75.701,3.402
								c40.808-15.437,68.331-16.156,84.142-2.2c29.033,25.627,11.574,97.854-3.83,161.579
								c-13.963,57.764-27.152,112.324-4.23,123.229c24.211,11.516,15.669,64.82,5.779,126.542
								c-10.562,65.914-22.534,140.623,8.476,168.598c14.197,12.808,35.892,15.073,66.32,6.92l0.259,0.967
								C577.036,771.349,566.398,772.954,557.016,772.955z"/>
						</g>
					</g>
					<g>
						<g>
							
								<linearGradient id="SVGID_00000055699168576071424230000011596875584523907508_" gradientUnits="userSpaceOnUse" x1="311.6841" y1="252.8403" x2="594.2627" y2="252.8403">
								<stop  offset="0" style="stop-color:#FF25B6"/>
								<stop  offset="0.013" style="stop-color:#F720C0"/>
								<stop  offset="0.0526" style="stop-color:#E112DB"/>
								<stop  offset="0.093" style="stop-color:#D208EE"/>
								<stop  offset="0.1345" style="stop-color:#C902F9"/>
								<stop  offset="0.1787" style="stop-color:#C600FD"/>
								<stop  offset="0.475" style="stop-color:#432AF3"/>
								<stop  offset="0.6457" style="stop-color:#2747ED"/>
								<stop  offset="1" style="stop-color:#000422"/>
							</linearGradient>
							<path style="fill:url(#SVGID_00000055699168576071424230000011596875584523907508_);" d="M563.675,782.614
								c-14.439,0.001-25.938-3.914-34.782-11.775c-32.165-28.592-21.002-105.483-11.153-173.321
								c8.672-59.73,16.863-116.149-6.396-127.782c-23.354-11.685-10.851-67.46,2.388-126.511
								c14.574-65.007,31.093-138.688,1.714-164.084c-15.504-13.401-41.977-12.665-80.938,2.253
								c-30.283,11.595-55.2,10.467-74.061-3.351c-59.676-43.72-50.06-205.279-43.039-323.245
								c4.226-70.989,7.563-127.061-5.723-130.769l0.269-0.963c14.063,3.924,10.871,57.559,6.453,131.791
								c-7.008,117.736-16.605,278.98,42.631,322.378c18.571,13.604,43.17,14.69,73.113,3.224
								c39.335-15.062,66.142-15.742,81.949-2.076c29.831,25.788,13.243,99.779-1.392,165.06
								c-13.15,58.658-25.571,114.063-2.916,125.397c23.905,11.957,16.043,66.113,6.939,128.821
								c-9.813,67.589-20.935,144.195,10.827,172.429c14.103,12.535,35.183,14.816,64.447,6.978l0.259,0.967
								C582.872,781.085,572.698,782.614,563.675,782.614z"/>
						</g>
					</g>
					<g>
						<g>
							
								<linearGradient id="SVGID_00000147220320760534542350000014151050358278240399_" gradientUnits="userSpaceOnUse" x1="311.1948" y1="252.0876" x2="599.541" y2="252.0876">
								<stop  offset="0" style="stop-color:#FF25B6"/>
								<stop  offset="0.013" style="stop-color:#F720C0"/>
								<stop  offset="0.0526" style="stop-color:#E112DB"/>
								<stop  offset="0.093" style="stop-color:#D208EE"/>
								<stop  offset="0.1345" style="stop-color:#C902F9"/>
								<stop  offset="0.1787" style="stop-color:#C600FD"/>
								<stop  offset="0.475" style="stop-color:#432AF3"/>
								<stop  offset="0.6457" style="stop-color:#2747ED"/>
								<stop  offset="1" style="stop-color:#000422"/>
							</linearGradient>
							<path style="fill:url(#SVGID_00000147220320760534542350000014151050358278240399_);" d="M570.292,792.505
								c-14.11,0.001-25.437-3.851-34.265-11.585c-32.907-28.832-22.609-107.674-13.524-177.235
								c7.929-60.71,15.419-118.054-7.571-130.132c-23.066-12.117-11.333-68.749,1.089-128.705
								c13.802-66.615,29.444-142.118-0.727-167.665c-15.478-13.105-41.243-12.404-78.766,2.146
								c-28.96,11.23-53.022,10.169-71.52-3.156c-60.551-43.62-52.646-209.361-46.874-330.38
								c3.444-72.214,6.165-129.254-6.94-133.164l0.286-0.958c13.855,4.134,11.253,58.678,7.653,134.17
								c-5.761,120.79-13.652,286.218,46.46,329.521c18.204,13.113,41.948,14.134,70.574,3.034
								c37.896-14.693,63.992-15.339,79.773-1.977c30.625,25.932,14.918,101.744,1.06,168.631
								c-12.344,59.577-24.002,115.85-1.604,127.617c23.606,12.401,16.42,67.43,8.098,131.147
								c-9.053,69.313-19.313,147.874,13.191,176.352c13.987,12.254,34.461,14.547,62.598,7.011l0.258,0.966
								C588.697,791.049,578.968,792.505,570.292,792.505z"/>
						</g>
					</g>
					<g>
						<g>
							
								<linearGradient id="SVGID_00000132795797730555006420000004746218804203772350_" gradientUnits="userSpaceOnUse" x1="310.5947" y1="251.3531" x2="604.835" y2="251.3531">
								<stop  offset="0" style="stop-color:#FF25B6"/>
								<stop  offset="0.013" style="stop-color:#F720C0"/>
								<stop  offset="0.0526" style="stop-color:#E112DB"/>
								<stop  offset="0.093" style="stop-color:#D208EE"/>
								<stop  offset="0.1345" style="stop-color:#C902F9"/>
								<stop  offset="0.1787" style="stop-color:#C600FD"/>
								<stop  offset="0.475" style="stop-color:#432AF3"/>
								<stop  offset="0.6457" style="stop-color:#2747ED"/>
								<stop  offset="1" style="stop-color:#000422"/>
							</linearGradient>
							<path style="fill:url(#SVGID_00000132795797730555006420000004746218804203772350_);" d="M576.877,802.639
								c-13.775,0-24.921-3.784-33.72-11.386c-33.636-29.058-24.219-109.907-15.911-181.238
								c7.188-61.718,13.977-120.014-8.757-132.541c-22.782-12.557-11.815-70.063-0.205-130.947
								c13.021-68.276,27.778-145.662-3.179-171.342c-15.43-12.799-40.49-12.123-76.612,2.064
								c-27.686,10.875-50.908,9.881-69.022-2.951c-61.38-43.485-55.215-213.509-50.714-337.655
								c2.664-73.474,4.768-131.507-8.163-135.621l0.303-0.953c13.656,4.343,11.644,59.823,8.859,136.61
								c-4.493,123.918-10.646,293.63,50.292,336.803c17.822,12.625,40.726,13.581,68.079,2.836
								c36.493-14.333,61.882-14.955,77.615-1.902c31.413,26.058,16.597,103.751,3.523,172.299
								c-11.541,60.517-22.441,117.678-0.295,129.885c23.323,12.851,16.81,68.776,9.268,133.531
								c-8.279,71.085-17.663,151.654,15.572,180.366c13.854,11.969,33.732,14.268,60.764,7.025l0.26,0.967
								C594.513,801.253,585.214,802.639,576.877,802.639z"/>
						</g>
					</g>
					<g>
						<g>
							
								<linearGradient id="SVGID_00000113331008994337439470000003601615875515203238_" gradientUnits="userSpaceOnUse" x1="309.8965" y1="250.5928" x2="610.1416" y2="250.5928">
								<stop  offset="0" style="stop-color:#FF25B6"/>
								<stop  offset="0.013" style="stop-color:#F720C0"/>
								<stop  offset="0.0526" style="stop-color:#E112DB"/>
								<stop  offset="0.093" style="stop-color:#D208EE"/>
								<stop  offset="0.1345" style="stop-color:#C902F9"/>
								<stop  offset="0.1787" style="stop-color:#C600FD"/>
								<stop  offset="0.475" style="stop-color:#432AF3"/>
								<stop  offset="0.6457" style="stop-color:#2747ED"/>
								<stop  offset="1" style="stop-color:#000422"/>
							</linearGradient>
							<path style="fill:url(#SVGID_00000113331008994337439470000003601615875515203238_);" d="M583.702,812.932
								c-13.565,0-24.75-3.702-33.42-11.091c-34.352-29.274-25.828-112.191-18.307-185.349
								c6.45-62.746,12.543-122.012-9.938-134.994c-22.515-13.001-12.311-71.413-1.508-133.255
								c12.226-69.984,26.083-149.306-5.651-175.099c-15.361-12.485-39.723-11.828-74.475,2.004
								c-26.451,10.53-48.85,9.609-66.57-2.738c-62.162-43.315-57.763-217.734-54.551-345.089
								c1.885-74.756,3.374-133.802-9.386-138.121l0.32-0.947c13.458,4.555,12.035,60.987,10.065,139.093
								c-3.206,127.128-7.597,301.236,54.124,344.244c17.426,12.142,39.505,13.028,65.629,2.63
								c35.121-13.981,59.81-14.585,75.474-1.852c32.19,26.162,18.279,105.791,6.007,176.047
								c-10.741,61.487-20.888,119.565,1.023,132.217c23.043,13.306,17.199,70.146,10.433,135.962
								c-7.495,72.912-15.991,155.552,17.961,184.485c13.704,11.679,32.988,13.977,58.951,7.022l0.26,0.967
								C600.521,811.644,591.697,812.932,583.702,812.932z"/>
						</g>
					</g>
				</g>
			</g>
		</g>
	</g>
</g>
<g id="Layer_1">
</g>
</svg>
