<?xml version="1.0" encoding="utf-8"?>
<!-- Generator: Adobe Illustrator 27.5.0, SVG Export Plug-In . SVG Version: 6.00 Build 0)  -->
<svg version="1.1" xmlns="http://www.w3.org/2000/svg" xmlns:xlink="http://www.w3.org/1999/xlink" x="0px" y="0px"
	 viewBox="0 0 800 500" style="enable-background:new 0 0 800 500;" xml:space="preserve">
<g id="_x36_">
	<g>
		<g>
			<defs>
				<rect id="SVGID_1_" width="800" height="500"/>
			</defs>
			<use xlink:href="#SVGID_1_"  style="overflow:visible;fill:#000422;"/>
			<clipPath id="SVGID_00000024709532571338604270000011083433876768903081_">
				<use xlink:href="#SVGID_1_"  style="overflow:visible;"/>
			</clipPath>
			<g style="clip-path:url(#SVGID_00000024709532571338604270000011083433876768903081_);">
				<g>
					<g>
						<g>
							
								<linearGradient id="SVGID_00000005253855624055288260000010832492527861652408_" gradientUnits="userSpaceOnUse" x1="144.125" y1="312.6952" x2="505.9321" y2="312.6952">
								<stop  offset="0" style="stop-color:#FF25B6"/>
								<stop  offset="0.013" style="stop-color:#F720C0"/>
								<stop  offset="0.0526" style="stop-color:#E112DB"/>
								<stop  offset="0.093" style="stop-color:#D208EE"/>
								<stop  offset="0.1345" style="stop-color:#C902F9"/>
								<stop  offset="0.1787" style="stop-color:#C600FD"/>
								<stop  offset="0.475" style="stop-color:#432AF3"/>
								<stop  offset="0.6457" style="stop-color:#2747ED"/>
								<stop  offset="1" style="stop-color:#000422"/>
							</linearGradient>
							<path style="fill:url(#SVGID_00000005253855624055288260000010832492527861652408_);" d="M277.51,662.241
								c-5.747,0.001-9.198-1.162-10.477-3.455c-6.218-11.145,40.78-47.44,95.2-89.466c36.355-28.076,73.948-57.108,101.987-83.171
								c31.905-29.657,44.853-49.599,39.584-60.964c-7.51-16.191-53.571-15.361-136.909,2.468
								c-123.612,26.449-193.307,25.448-207.15-2.975c-8.824-18.116,5.015-47.199,41.131-86.44
								c29.327-31.864,65.664-62.203,85.186-78.502c5.022-4.193,9.289-7.756,11.444-9.712c-3.159,1.818-9.671,6.003-16.492,10.429
								c-13.974,9.065-17.052,9.006-18.219,7.753c-2.939-3.15,8.043-18.062,31.158-48.793
								c24.484-32.549,58.015-77.127,81.031-119.957c27.062-50.358,33.122-87.054,18.009-109.067
								c-25.05-36.489-108.689-34.798-248.595,5.026l-0.273-0.962c74.234-21.131,133.23-31.625,175.286-31.295
								c37.449,0.325,62.483,9.296,74.406,26.665c15.558,22.662,9.685,58.678-17.953,110.107
								c-23.052,42.897-56.61,87.51-81.113,120.085c-18.095,24.057-33.723,44.833-31.226,47.51c0.669,0.716,3.76,0.643,16.944-7.91
								c18.754-12.167,18.91-11.95,19.388-11.305c0.49,0.665,0.554,0.75-13.155,12.196c-19.504,16.284-55.808,46.596-85.09,78.411
								c-35.81,38.908-49.594,67.616-40.968,85.326c13.615,27.957,82.938,28.774,206.042,2.434
								c85.038-18.191,130.184-18.815,138.025-1.91c12.219,26.352-69.643,89.57-141.867,145.347
								c-51.805,40.007-100.736,77.795-94.938,88.188c5.854,10.5,68.232-6.815,190.691-52.927l0.352,0.936
								C358.164,644.259,300.106,662.24,277.51,662.241z"/>
						</g>
					</g>
					<g>
						<g>
							
								<linearGradient id="SVGID_00000111887423004018718060000014482560512578149560_" gradientUnits="userSpaceOnUse" x1="145.3086" y1="310.5037" x2="510.1584" y2="310.5037">
								<stop  offset="0" style="stop-color:#FF25B6"/>
								<stop  offset="0.013" style="stop-color:#F720C0"/>
								<stop  offset="0.0526" style="stop-color:#E112DB"/>
								<stop  offset="0.093" style="stop-color:#D208EE"/>
								<stop  offset="0.1345" style="stop-color:#C902F9"/>
								<stop  offset="0.1787" style="stop-color:#C600FD"/>
								<stop  offset="0.475" style="stop-color:#432AF3"/>
								<stop  offset="0.6457" style="stop-color:#2747ED"/>
								<stop  offset="1" style="stop-color:#000422"/>
							</linearGradient>
							<path style="fill:url(#SVGID_00000111887423004018718060000014482560512578149560_);" d="M288.757,663.944
								c-6.094,0.001-9.752-1.23-11.111-3.659c-6.356-11.359,39.538-47.337,92.679-88.996
								c35.472-27.808,72.152-56.562,99.447-82.471c31.06-29.483,43.553-49.456,38.193-61.06
								c-7.643-16.551-53.185-16.476-135.354,0.224c-121.848,24.766-190.781,22.607-204.886-6.411
								c-8.982-18.477,4.244-47.679,39.311-86.791c28.475-31.761,63.898-61.861,82.927-78.033c4.955-4.21,9.154-7.779,11.228-9.708
								c-3.063,1.763-9.482,5.925-16.208,10.327c-13.622,8.918-16.682,8.837-17.875,7.584c-3.019-3.173,7.608-18.102,29.996-48.869
								c23.737-32.622,56.247-77.299,78.311-120.354C401.361,45.094,406.63,8.03,391.073-14.438
								c-25.624-37.009-108.223-36.552-245.498,1.359l-0.266-0.964c72.826-20.112,130.833-29.81,172.416-28.827
								c37.022,0.876,61.977,10.25,74.171,27.862c8.524,12.311,10.991,28.914,7.331,49.347
								c-3.127,17.457-10.839,38.263-22.922,61.842c-22.1,43.125-54.636,87.839-78.393,120.487
								c-18.246,25.076-32.658,44.882-30.08,47.591c0.84,0.883,4.402,0.256,16.604-7.73c18.346-12.008,18.507-11.789,18.991-11.143
								c0.516,0.69,0.191,1.07-12.815,12.122c-19.012,16.156-54.401,46.229-82.83,77.939c-34.769,38.78-47.943,67.609-39.156,85.686
								c13.881,28.556,82.443,30.531,203.788,5.868c83.849-17.041,128.487-16.931,136.461,0.337
								c12.415,26.878-67.459,89.493-137.931,144.737c-50.583,39.654-98.361,77.108-92.423,87.721
								c5.993,10.709,67.383-5.796,187.682-50.455l0.348,0.938C368.528,646.668,311.578,663.943,288.757,663.944z"/>
						</g>
					</g>
					<g>
						<g>
							
								<linearGradient id="SVGID_00000151544331099070374920000005387343959728524457_" gradientUnits="userSpaceOnUse" x1="146.3491" y1="308.333" x2="514.3876" y2="308.333">
								<stop  offset="0" style="stop-color:#FF25B6"/>
								<stop  offset="0.013" style="stop-color:#F720C0"/>
								<stop  offset="0.0526" style="stop-color:#E112DB"/>
								<stop  offset="0.093" style="stop-color:#D208EE"/>
								<stop  offset="0.1345" style="stop-color:#C902F9"/>
								<stop  offset="0.1787" style="stop-color:#C600FD"/>
								<stop  offset="0.475" style="stop-color:#432AF3"/>
								<stop  offset="0.6457" style="stop-color:#2747ED"/>
								<stop  offset="1" style="stop-color:#000422"/>
							</linearGradient>
							<path style="fill:url(#SVGID_00000151544331099070374920000005387343959728524457_);" d="M299.951,665.854
								c-6.465,0.001-10.341-1.304-11.785-3.876c-6.499-11.577,38.309-47.252,90.192-88.56
								c34.603-27.55,70.385-56.038,96.946-81.805c30.227-29.32,42.271-49.333,36.821-61.181
								c-7.783-16.918-52.815-17.603-133.852-2.03c-52.56,10.102-95.191,15.149-127.71,15.15
								c-41.811,0.002-66.916-8.339-75.001-25.006c-9.141-18.847,3.48-48.177,37.513-87.176
								c27.638-31.671,62.159-61.544,80.705-77.593c4.869-4.214,8.99-7.78,10.988-9.685c-3.556,2.052-11.603,7.367-15.908,10.211
								c-13.281,8.774-16.318,8.676-17.539,7.418c-3.104-3.194,7.177-18.154,28.85-48.981
								c22.999-32.713,54.496-77.514,75.611-120.817c24.834-50.931,29.306-88.381,13.291-111.311
								c-26.207-37.522-107.784-38.286-242.466-2.269l-0.258-0.966c71.436-19.102,128.498-27.981,169.588-26.384
								c36.604,1.421,61.487,11.194,73.956,29.047c8.77,12.556,11.583,29.383,8.363,50.013
								c-2.752,17.629-10.011,38.592-21.575,62.309c-21.15,43.374-52.674,88.214-75.692,120.954
								c-17.663,25.124-31.614,44.968-28.95,47.71c0.863,0.885,4.385,0.297,16.271-7.556c17.938-11.849,18.121-11.615,18.6-10.984
								c0.525,0.692,0.21,1.07-12.475,12.048c-18.527,16.033-53.014,45.877-80.606,77.494
								c-33.745,38.668-46.316,67.631-37.367,86.082c14.15,29.173,81.986,32.306,201.623,9.31
								c82.694-15.891,126.836-15.041,134.949,2.595c12.611,27.416-65.308,89.452-134.053,144.186
								c-49.382,39.316-96.025,76.452-89.943,87.288c6.132,10.921,66.563-4.779,184.747-48.002l0.344,0.94
								C378.845,649.274,322.99,665.852,299.951,665.854z"/>
						</g>
					</g>
					<g>
						<g>
							
								<linearGradient id="SVGID_00000000203423427260626630000004068475257720046489_" gradientUnits="userSpaceOnUse" x1="147.2285" y1="306.1791" x2="518.6171" y2="306.1791">
								<stop  offset="0" style="stop-color:#FF25B6"/>
								<stop  offset="0.013" style="stop-color:#F720C0"/>
								<stop  offset="0.0526" style="stop-color:#E112DB"/>
								<stop  offset="0.093" style="stop-color:#D208EE"/>
								<stop  offset="0.1345" style="stop-color:#C902F9"/>
								<stop  offset="0.1787" style="stop-color:#C600FD"/>
								<stop  offset="0.475" style="stop-color:#432AF3"/>
								<stop  offset="0.6457" style="stop-color:#2747ED"/>
								<stop  offset="1" style="stop-color:#000422"/>
							</linearGradient>
							<path style="fill:url(#SVGID_00000000203423427260626630000004068475257720046489_);" d="M311.094,667.967
								c-6.853,0.001-10.965-1.381-12.499-4.104c-6.645-11.799,37.093-47.184,87.737-88.156
								c33.748-27.303,68.644-55.534,94.485-81.167c29.405-29.169,41.007-49.229,35.466-61.324
								c-7.923-17.298-52.472-18.739-132.407-4.289c-118.474,21.421-185.97,16.943-200.614-13.313
								c-9.303-19.222,2.718-48.691,35.729-87.59c26.81-31.591,60.442-61.248,78.511-77.18c4.797-4.231,8.849-7.803,10.767-9.68
								c-3.445,1.988-11.389,7.287-15.625,10.111c-12.942,8.63-15.962,8.51-17.207,7.256c-3.19-3.216,6.747-18.212,27.712-49.112
								c22.269-32.822,52.767-77.773,72.938-121.348c23.727-51.26,27.397-89.119,10.908-112.524
								c-26.794-38.032-107.378-40.006-239.516-5.867l-0.25-0.968c70.071-18.104,126.197-26.169,166.819-23.964
								c36.2,1.962,61.018,12.131,73.765,30.224c9.023,12.808,12.189,29.868,9.41,50.708c-2.375,17.811-9.181,38.943-20.229,62.811
								c-20.204,43.65-50.729,88.64-73.017,121.489c-17.085,25.183-30.581,45.073-27.83,47.847
								c0.882,0.889,4.368,0.333,15.942-7.384c17.547-11.703,17.727-11.464,18.217-10.831c0.525,0.684,0.17,1.123-12.143,11.981
								c-18.05,15.916-51.647,45.542-78.41,77.077c-32.732,38.569-44.706,67.675-35.591,86.508
								c14.424,29.8,81.558,34.096,199.536,12.764c81.572-14.746,125.241-13.159,133.494,4.857
								c12.809,27.964-63.184,89.443-130.231,143.685c-48.199,38.994-93.725,75.826-87.495,86.889
								c6.275,11.136,65.771-3.768,181.888-45.573l0.338,0.941C389.102,652.075,334.337,667.967,311.094,667.967z"/>
						</g>
					</g>
					<g>
						<g>
							
								<linearGradient id="SVGID_00000075147903175958219540000013269467631841222833_" gradientUnits="userSpaceOnUse" x1="147.9653" y1="304.0265" x2="522.8481" y2="304.0265">
								<stop  offset="0" style="stop-color:#FF25B6"/>
								<stop  offset="0.013" style="stop-color:#F720C0"/>
								<stop  offset="0.0526" style="stop-color:#E112DB"/>
								<stop  offset="0.093" style="stop-color:#D208EE"/>
								<stop  offset="0.1345" style="stop-color:#C902F9"/>
								<stop  offset="0.1787" style="stop-color:#C600FD"/>
								<stop  offset="0.475" style="stop-color:#432AF3"/>
								<stop  offset="0.6457" style="stop-color:#2747ED"/>
								<stop  offset="1" style="stop-color:#000422"/>
							</linearGradient>
							<path style="fill:url(#SVGID_00000075147903175958219540000013269467631841222833_);" d="M322.099,670.25
								c-7.183,0-11.537-1.435-13.159-4.307c-6.796-12.026,35.892-47.139,85.319-87.795c32.903-27.064,66.927-55.051,92.055-80.559
								c28.595-29.027,39.758-49.14,34.126-61.487c-8.065-17.684-52.146-19.887-131.018-6.553
								c-116.859,19.757-183.676,14.113-198.597-16.78c-9.467-19.603,1.956-49.219,33.951-88.026
								c25.987-31.521,58.745-60.976,76.344-76.8c4.733-4.256,8.722-7.842,10.56-9.692c-3.332,1.922-11.18,7.206-15.348,10.013
								c-12.68,8.541-15.683,8.284-16.879,7.101c-3.277-3.232,6.317-18.27,26.58-49.254c21.547-32.949,51.058-78.075,70.29-121.95
								c22.628-51.622,25.492-89.912,8.511-113.804c-27.388-38.538-107.002-41.709-236.628-9.426l-0.241-0.971
								c68.724-17.115,123.93-24.373,164.093-21.571c35.804,2.497,60.564,13.058,73.591,31.389
								c9.286,13.066,12.81,30.37,10.475,51.433c-1.996,18.004-8.35,39.318-18.885,63.352
								c-19.266,43.952-48.802,89.118-70.369,122.096c-16.513,25.249-29.555,45.193-26.715,47.995
								c0.91,0.896,4.354,0.368,15.618-7.218c17.158-11.555,17.344-11.319,17.842-10.679c0.536,0.686,0.192,1.124-11.827,11.931
								c-17.58,15.807-50.302,45.23-76.241,76.692c-31.725,38.48-43.104,67.736-33.822,86.956
								c14.704,30.443,81.163,35.903,197.529,16.229c80.492-13.609,123.701-11.279,132.094,7.124
								c13.008,28.519-61.084,89.463-126.455,143.233c-47.038,38.69-91.466,75.235-85.084,86.531
								c6.421,11.362,65.002-2.755,179.095-43.158l0.334,0.943c-60.874,21.557-104.885,35.344-134.548,42.148
								C340.556,668.629,329.73,670.25,322.099,670.25z"/>
						</g>
					</g>
					<g>
						<g>
							
								<linearGradient id="SVGID_00000133507320833831019220000009221396417892400513_" gradientUnits="userSpaceOnUse" x1="148.5498" y1="301.9022" x2="527.0923" y2="301.9022">
								<stop  offset="0" style="stop-color:#FF25B6"/>
								<stop  offset="0.013" style="stop-color:#F720C0"/>
								<stop  offset="0.0526" style="stop-color:#E112DB"/>
								<stop  offset="0.093" style="stop-color:#D208EE"/>
								<stop  offset="0.1345" style="stop-color:#C902F9"/>
								<stop  offset="0.1787" style="stop-color:#C600FD"/>
								<stop  offset="0.475" style="stop-color:#432AF3"/>
								<stop  offset="0.6457" style="stop-color:#2747ED"/>
								<stop  offset="1" style="stop-color:#000422"/>
							</linearGradient>
							<path style="fill:url(#SVGID_00000133507320833831019220000009221396417892400513_);" d="M333.16,672.774
								c-7.619,0-12.234-1.518-13.958-4.558c-6.951-12.259,34.703-47.112,82.935-87.469
								c63.447-53.09,135.359-113.262,122.467-141.654c-8.209-18.079-51.839-21.05-129.682-8.826
								c-115.293,18.105-181.462,11.288-196.665-20.261c-9.634-19.992,1.201-49.772,32.203-88.511
								c25.182-31.466,57.077-60.726,74.211-76.445c4.654-4.27,8.568-7.86,10.328-9.683c-3.226,1.861-10.966,7.127-15.064,9.916
								c-12.352,8.404-15.335,8.127-16.557,6.949c-3.368-3.25,5.89-18.34,25.461-49.431c20.833-33.096,49.364-78.423,67.659-122.622
								c21.529-52.013,23.578-90.753,6.091-115.146c-27.986-39.036-106.649-43.393-233.806-12.952l-0.233-0.973
								c67.399-16.135,121.704-22.596,161.414-19.202c35.419,3.028,60.127,13.977,73.438,32.543
								c17.702,24.692,15.69,63.757-5.98,116.11c-18.327,44.278-46.885,89.646-67.736,122.772
								c-15.949,25.336-28.546,45.349-25.613,48.18c0.929,0.895,4.337,0.402,15.3-7.057c16.775-11.413,16.977-11.158,17.472-10.535
								c0.545,0.688,0.212,1.124-11.498,11.867c-17.115,15.701-48.974,44.927-74.107,76.333
								c-30.741,38.412-41.536,67.836-32.083,87.452c14.988,31.104,80.801,37.732,195.609,19.706
								c79.444-12.474,122.211-9.399,130.749,9.401c13.207,29.084-59.016,89.516-122.736,142.834
								c-45.896,38.402-89.246,74.676-82.706,86.209c6.571,11.59,64.262-1.744,176.371-40.759l0.328,0.945
								c-59.816,20.815-103.097,34.049-132.316,40.455C351.051,671.305,340.653,672.774,333.16,672.774z"/>
						</g>
					</g>
					<g>
						<g>
							
								<linearGradient id="SVGID_00000134238921446079015340000015916881889457670072_" gradientUnits="userSpaceOnUse" x1="148.98" y1="299.7899" x2="531.3395" y2="299.7899">
								<stop  offset="0" style="stop-color:#FF25B6"/>
								<stop  offset="0.013" style="stop-color:#F720C0"/>
								<stop  offset="0.0526" style="stop-color:#E112DB"/>
								<stop  offset="0.093" style="stop-color:#D208EE"/>
								<stop  offset="0.1345" style="stop-color:#C902F9"/>
								<stop  offset="0.1787" style="stop-color:#C600FD"/>
								<stop  offset="0.475" style="stop-color:#432AF3"/>
								<stop  offset="0.6457" style="stop-color:#2747ED"/>
								<stop  offset="1" style="stop-color:#000422"/>
							</linearGradient>
							<path style="fill:url(#SVGID_00000134238921446079015340000015916881889457670072_);" d="M344.193,675.507
								c-8.082,0-12.976-1.607-14.807-4.824c-7.11-12.494,33.526-47.104,80.579-87.177
								c61.826-52.656,131.901-112.339,118.804-141.314c-8.356-18.487-51.558-22.226-128.4-11.113
								c-113.779,16.455-179.323,8.463-194.813-23.755c-9.803-20.389,0.447-50.339,30.464-89.02
								c24.383-31.42,55.428-60.497,72.106-76.118c4.58-4.289,8.423-7.89,10.105-9.685c-3.121,1.799-10.756,7.049-14.785,9.819
								c-9.379,6.45-14.388,8.548-16.238,6.804c-3.461-3.265,5.462-18.411,24.345-49.62c20.125-33.262,47.686-78.816,65.048-123.367
								c20.434-52.438,21.662-91.654,3.65-116.56c-28.587-39.529-106.324-45.06-231.049-16.439l-0.224-0.975
								c66.093-15.166,119.514-20.838,158.78-16.857c35.044,3.552,59.707,14.886,73.302,33.685
								c18.224,25.199,17.037,64.734-3.529,117.509c-17.393,44.632-44.98,90.229-65.124,123.522
								c-15.387,25.432-27.541,45.52-24.514,48.374c0.952,0.899,4.324,0.431,14.985-6.9c16.397-11.276,16.605-11.021,17.11-10.395
								c0.555,0.69,0.234,1.124-11.181,11.815c-16.658,15.602-47.665,44.644-72,76.001c-29.766,38.355-39.978,67.954-30.353,87.973
								c15.279,31.779,80.474,39.583,193.768,23.198c78.427-11.341,120.772-7.518,129.455,11.691
								c13.408,29.66-56.972,89.601-119.066,142.486c-44.77,38.131-87.059,74.146-80.358,85.922
								c6.82,11.983,62.021-0.214,173.725-38.38l0.324,0.945c-58.785,20.085-101.355,32.771-130.144,38.782
								C361.488,674.183,351.528,675.507,344.193,675.507z"/>
						</g>
					</g>
					<g>
						<g>
							
								<linearGradient id="SVGID_00000066495926469277627710000008240604882309062560_" gradientUnits="userSpaceOnUse" x1="149.2603" y1="297.6886" x2="535.5971" y2="297.6886">
								<stop  offset="0" style="stop-color:#FF25B6"/>
								<stop  offset="0.013" style="stop-color:#F720C0"/>
								<stop  offset="0.0526" style="stop-color:#E112DB"/>
								<stop  offset="0.093" style="stop-color:#D208EE"/>
								<stop  offset="0.1345" style="stop-color:#C902F9"/>
								<stop  offset="0.1787" style="stop-color:#C600FD"/>
								<stop  offset="0.475" style="stop-color:#432AF3"/>
								<stop  offset="0.6457" style="stop-color:#2747ED"/>
								<stop  offset="1" style="stop-color:#000422"/>
							</linearGradient>
							<path style="fill:url(#SVGID_00000066495926469277627710000008240604882309062560_);" d="M355.206,678.45
								c-8.574,0.001-13.764-1.699-15.709-5.104c-7.273-12.735,32.36-47.113,78.252-86.92
								c60.229-52.242,128.494-111.455,115.191-141.023c-8.505-18.903-51.29-23.416-127.173-13.408
								c-34.727,4.579-64.939,6.865-90.556,6.866c-57.231,0.002-91.582-11.404-102.484-34.134
								c-9.974-20.792-0.304-50.924,28.74-89.56c23.594-31.387,53.799-60.291,70.027-75.819c4.503-4.31,8.275-7.919,9.881-9.688
								c-3.018,1.738-10.546,6.971-14.505,9.724c-9.126,6.343-14.037,8.398-15.921,6.661c-3.555-3.277,5.036-18.489,23.237-49.832
								c19.423-33.447,46.024-79.255,62.453-124.185c19.341-52.894,19.741-92.609,1.188-118.042
								c-29.192-40.016-106.021-46.708-228.353-19.891l-0.214-0.976c64.808-14.207,117.359-19.098,156.192-14.538
								c34.678,4.072,59.3,15.786,73.183,34.816c18.762,25.719,18.406,65.748-1.056,118.975
								c-16.46,45.013-43.086,90.864-62.528,124.344c-14.832,25.542-26.547,45.716-23.424,48.594
								c0.976,0.898,4.311,0.456,14.672-6.747c16.027-11.143,16.239-10.885,16.753-10.259c0.557,0.681,0.202,1.175-10.866,11.767
								c-16.207,15.509-46.374,44.376-69.919,75.698c-28.802,38.313-38.437,68.098-28.638,88.526
								c15.574,32.471,80.177,41.455,192.007,26.708c77.446-10.213,119.385-5.636,128.216,13.99
								c13.609,30.246-54.955,89.719-115.447,142.189c-43.664,37.873-84.905,73.646-78.039,85.668
								c6.976,12.217,61.357,0.771,171.137-36.018l0.318,0.948c-57.772,19.36-99.645,31.503-128.013,37.122
								C371.869,677.267,362.359,678.45,355.206,678.45z"/>
						</g>
					</g>
					<g>
						<g>
							
								<linearGradient id="SVGID_00000151503921263918506070000000095994245784860326_" gradientUnits="userSpaceOnUse" x1="149.3921" y1="295.5973" x2="539.8695" y2="295.5973">
								<stop  offset="0" style="stop-color:#FF25B6"/>
								<stop  offset="0.013" style="stop-color:#F720C0"/>
								<stop  offset="0.0526" style="stop-color:#E112DB"/>
								<stop  offset="0.093" style="stop-color:#D208EE"/>
								<stop  offset="0.1345" style="stop-color:#C902F9"/>
								<stop  offset="0.1787" style="stop-color:#C600FD"/>
								<stop  offset="0.475" style="stop-color:#432AF3"/>
								<stop  offset="0.6457" style="stop-color:#2747ED"/>
								<stop  offset="1" style="stop-color:#000422"/>
							</linearGradient>
							<path style="fill:url(#SVGID_00000151503921263918506070000000095994245784860326_);" d="M366.212,681.614
								c-9.099,0-14.605-1.798-16.672-5.403c-7.442-12.981,31.205-47.142,75.954-86.698
								c58.656-51.849,125.139-110.614,111.627-140.787c-8.657-19.333-51.044-24.624-126.002-15.726
								c-31.078,3.691-58.518,5.534-82.25,5.535c-60.943,0.002-97.521-12.144-109.095-36.329
								c-10.146-21.201-1.054-51.523,27.026-90.126c22.813-31.362,52.191-60.107,67.974-75.549c4.43-4.335,8.133-7.958,9.662-9.7
								c-2.918,1.677-10.34,6.895-14.23,9.631c-8.875,6.241-13.689,8.253-15.608,6.526c-3.651-3.286,4.611-18.569,22.134-50.06
								c18.728-33.653,44.376-79.743,59.875-125.082c18.25-53.386,17.812-93.627-1.301-119.602
								c-29.796-40.495-105.735-48.335-225.709-23.302l-0.204-0.979c63.539-13.258,115.231-17.378,153.642-12.246
								c34.32,4.586,58.906,16.676,73.077,35.935c19.318,26.255,19.803,66.803,1.441,120.518
								c-15.528,45.423-41.201,91.558-59.947,125.245c-14.28,25.662-25.56,45.931-22.339,48.83c0.995,0.895,4.294,0.48,14.364-6.601
								c15.67-11.018,15.895-10.735,16.403-10.126c0.592,0.712-0.197,1.589-10.56,11.729
								c-15.762,15.422-45.101,44.128-67.865,75.423c-27.847,38.282-36.908,68.262-26.933,89.105
								c15.877,33.176,79.914,43.347,190.326,30.233c76.499-9.084,118.051-3.748,127.032,16.309
								c13.812,30.845-52.963,89.869-111.878,141.945c-42.573,37.632-82.785,73.178-75.748,85.451
								c7.143,12.458,60.722,1.759,168.617-33.668l0.313,0.949c-56.779,18.644-97.972,30.248-125.931,35.476
								C382.205,680.565,373.161,681.614,366.212,681.614z"/>
						</g>
					</g>
					<g>
						<g>
							
								<linearGradient id="SVGID_00000142138089089124494330000017068674646149576076_" gradientUnits="userSpaceOnUse" x1="149.3755" y1="293.5153" x2="544.1523" y2="293.5153">
								<stop  offset="0" style="stop-color:#FF25B6"/>
								<stop  offset="0.013" style="stop-color:#F720C0"/>
								<stop  offset="0.0526" style="stop-color:#E112DB"/>
								<stop  offset="0.093" style="stop-color:#D208EE"/>
								<stop  offset="0.1345" style="stop-color:#C902F9"/>
								<stop  offset="0.1787" style="stop-color:#C600FD"/>
								<stop  offset="0.475" style="stop-color:#432AF3"/>
								<stop  offset="0.6457" style="stop-color:#2747ED"/>
								<stop  offset="1" style="stop-color:#000422"/>
							</linearGradient>
							<path style="fill:url(#SVGID_00000142138089089124494330000017068674646149576076_);" d="M377.215,684.998
								c-9.657,0-15.501-1.903-17.698-5.721c-7.616-13.233,30.06-47.194,73.686-86.518
								c57.103-51.473,121.826-109.813,108.106-140.599c-8.813-19.771-50.826-25.844-124.878-18.05
								c-109.513,11.533-173.349-0.025-189.734-34.348c-10.322-21.619-1.799-52.145,25.33-90.728
								c22.044-31.352,50.605-59.944,65.95-75.306c4.352-4.357,7.983-7.991,9.437-9.707c-2.82,1.617-10.133,6.82-13.954,9.538
								c-8.628,6.138-13.346,8.111-15.301,6.394c-3.749-3.294,4.186-18.659,21.041-50.319
								c18.037-33.879,42.738-80.279,57.306-126.051c17.157-53.909,15.874-94.696-3.815-121.228
								c-30.399-40.965-105.47-49.938-223.122-26.67l-0.194-0.981c62.292-12.319,113.141-15.678,151.136-9.981
								c33.97,5.093,58.525,17.554,72.983,37.037c19.891,26.804,21.225,67.894,3.964,122.126
								c-14.595,45.859-39.322,92.305-57.376,126.218c-13.736,25.801-24.585,46.18-21.264,49.098
								c1.018,0.895,4.284,0.498,14.061-6.458c15.308-10.89,15.542-10.609,16.059-10c0.603,0.714-0.163,1.588-10.254,11.69
								c-15.323,15.34-43.846,43.893-65.84,75.174c-26.906,38.267-35.4,68.454-25.246,89.723
								c16.185,33.9,79.683,45.264,188.727,33.784c75.585-7.957,116.763-1.86,125.896,18.637
								c14.016,31.449-50.993,90.048-108.35,141.748c-41.502,37.41-80.703,72.745-73.49,85.277
								c7.31,12.702,60.111,2.743,166.168-31.336l0.307,0.952c-55.812,17.934-96.34,29.005-123.901,33.845
								C392.495,684.077,383.932,684.998,377.215,684.998z"/>
						</g>
					</g>
					<g>
						<g>
							
								<linearGradient id="SVGID_00000049212713937011107450000017221002450182719621_" gradientUnits="userSpaceOnUse" x1="149.2051" y1="291.3951" x2="548.4481" y2="291.3951">
								<stop  offset="0" style="stop-color:#FF25B6"/>
								<stop  offset="0.013" style="stop-color:#F720C0"/>
								<stop  offset="0.0526" style="stop-color:#E112DB"/>
								<stop  offset="0.093" style="stop-color:#D208EE"/>
								<stop  offset="0.1345" style="stop-color:#C902F9"/>
								<stop  offset="0.1787" style="stop-color:#C600FD"/>
								<stop  offset="0.475" style="stop-color:#432AF3"/>
								<stop  offset="0.6457" style="stop-color:#2747ED"/>
								<stop  offset="1" style="stop-color:#000422"/>
							</linearGradient>
							<path style="fill:url(#SVGID_00000049212713937011107450000017221002450182719621_);" d="M388.227,688.511
								c-10.303,0-16.5-2.001-18.794-5.971c-7.795-13.489,28.925-47.264,71.443-86.371
								c55.571-51.113,118.558-109.046,104.629-140.455c-4.276-9.645-15.955-16.319-34.71-19.841
								c-20.672-3.881-50.65-4.067-89.105-0.551c-108.183,9.893-171.496-2.865-188.193-37.921
								c-10.499-22.043-2.544-52.78,23.643-91.357c21.281-31.35,49.039-59.803,63.951-75.09c4.277-4.385,7.838-8.035,9.218-9.725
								c-2.725,1.558-9.93,6.746-13.683,9.448c-8.383,6.038-13.007,7.971-14.993,6.268c-3.85-3.298,3.761-18.75,19.95-50.59
								c17.35-34.126,41.111-80.862,54.749-127.1c16.065-54.47,13.926-95.831-6.357-122.936
								c-31.002-41.428-105.216-51.521-220.585-29.999l-0.184-0.983c61.062-11.392,111.08-13.997,148.668-7.744
								c33.629,5.595,58.156,18.423,72.901,38.127c20.482,27.371,22.675,69.029,6.516,123.817
								c-13.663,46.326-37.449,93.11-54.816,127.27c-13.193,25.949-23.613,46.445-20.19,49.378c1.04,0.889,4.27,0.514,13.758-6.32
								c14.956-10.769,15.197-10.488,15.722-9.876c0.616,0.715-0.128,1.587-9.957,11.662
								c-14.891,15.264-42.608,43.678-63.839,74.953c-25.974,38.263-33.903,68.666-23.568,90.365
								c16.499,34.64,79.484,47.21,187.199,37.355c74.7-6.827,115.532,0.034,124.821,20.982
								c14.22,32.064-49.047,90.256-104.866,141.597c-42.202,38.816-78.648,72.339-71.254,85.135
								c7.482,12.949,59.522,3.729,163.78-29.015l0.299,0.953C460.586,677.155,412.766,688.511,388.227,688.511z"/>
						</g>
					</g>
					<g>
						<g>
							
								<linearGradient id="SVGID_00000109013494559330398960000012951197059238241976_" gradientUnits="userSpaceOnUse" x1="148.8901" y1="289.3237" x2="552.7679" y2="289.3237">
								<stop  offset="0" style="stop-color:#FF25B6"/>
								<stop  offset="0.013" style="stop-color:#F720C0"/>
								<stop  offset="0.0526" style="stop-color:#E112DB"/>
								<stop  offset="0.093" style="stop-color:#D208EE"/>
								<stop  offset="0.1345" style="stop-color:#C902F9"/>
								<stop  offset="0.1787" style="stop-color:#C600FD"/>
								<stop  offset="0.475" style="stop-color:#432AF3"/>
								<stop  offset="0.6457" style="stop-color:#2747ED"/>
								<stop  offset="1" style="stop-color:#000422"/>
							</linearGradient>
							<path style="fill:url(#SVGID_00000109013494559330398960000012951197059238241976_);" d="M399.273,692.34
								c-10.955,0.001-17.54-2.121-19.982-6.329c-7.979-13.752,27.801-47.354,69.23-86.264
								c54.063-50.773,115.338-108.32,101.2-140.359c-9.255-20.975-49.429-28.412-122.801-22.747
								c-19.879,1.536-38.247,2.303-55.066,2.303c-73.624,0.002-117.82-14.678-131.67-43.83
								c-10.679-22.477-3.286-53.439,21.975-92.026c20.529-31.36,47.492-59.683,61.977-74.898c4.194-4.406,7.68-8.068,8.987-9.731
								c-2.633,1.501-9.726,6.674-13.409,9.359c-8.142,5.937-12.673,7.832-14.693,6.145c-4.127-3.449,4.528-21.31,18.868-50.901
								c16.667-34.393,39.493-81.496,52.197-128.227c14.968-55.062,11.964-97.021-8.931-124.713
								c-31.602-41.882-104.978-53.079-218.093-33.284l-0.172-0.985c59.85-10.475,109.049-12.338,146.237-5.534
								c33.292,6.09,57.795,19.28,72.827,39.202c21.09,27.951,24.151,70.202,9.097,125.578
								c-12.728,46.82-35.578,93.972-52.262,128.4c-12.658,26.119-22.655,46.75-19.127,49.698c1.541,1.288,6.07-0.793,13.463-6.185
								c14.61-10.654,14.853-10.372,15.389-9.758c0.622,0.708-0.19,1.686-9.654,11.627c-14.463,15.192-41.385,43.471-61.865,74.756
								c-25.056,38.275-32.427,68.909-21.908,91.05c16.818,35.399,79.311,49.178,185.757,40.96
								c73.848-5.705,114.344,1.93,123.792,23.339c14.424,32.688-47.126,90.492-101.431,141.492
								c-41.119,38.617-76.631,71.969-69.05,85.033c7.66,13.2,58.964,4.712,161.457-26.712l0.293,0.957
								C470.607,681.613,423.901,692.34,399.273,692.34z"/>
						</g>
					</g>
					<g>
						<g>
							
								<linearGradient id="SVGID_00000045601091432791373390000013143393072640455587_" gradientUnits="userSpaceOnUse" x1="148.4194" y1="287.2566" x2="557.1063" y2="287.2566">
								<stop  offset="0" style="stop-color:#FF25B6"/>
								<stop  offset="0.013" style="stop-color:#F720C0"/>
								<stop  offset="0.0526" style="stop-color:#E112DB"/>
								<stop  offset="0.093" style="stop-color:#D208EE"/>
								<stop  offset="0.1345" style="stop-color:#C902F9"/>
								<stop  offset="0.1787" style="stop-color:#C600FD"/>
								<stop  offset="0.475" style="stop-color:#432AF3"/>
								<stop  offset="0.6457" style="stop-color:#2747ED"/>
								<stop  offset="1" style="stop-color:#000422"/>
							</linearGradient>
							<path style="fill:url(#SVGID_00000045601091432791373390000013143393072640455587_);" d="M410.35,696.393
								c-11.65,0.001-18.65-2.249-21.25-6.711c-8.169-14.019,26.684-47.465,67.04-86.19
								c52.573-50.45,112.161-107.631,97.812-140.313c-9.418-21.454-49.267-29.675-121.84-25.127
								c-105.661,6.617-168.022-8.57-185.359-45.153c-10.861-22.916-4.025-54.112,20.316-92.722
								c19.786-31.382,45.965-59.584,60.029-74.736c4.115-4.433,7.528-8.11,8.762-9.747c-2.542,1.444-9.523,6.602-13.137,9.271
								c-7.903,5.838-12.341,7.698-14.393,6.028c-4.235-3.448,4.054-21.429,17.787-51.22
								c15.987-34.681,37.883-82.178,49.652-129.433c13.871-55.693,9.991-98.279-11.534-126.577
								c-32.197-42.329-104.755-54.618-215.654-36.526l-0.161-0.987c58.659-9.568,107.056-10.697,143.849-3.354
								c32.965,6.58,57.446,20.126,72.763,40.263c21.717,28.55,25.656,71.422,11.708,127.423
								c-11.793,47.345-33.711,94.893-49.714,129.61c-12.123,26.297-21.697,47.068-18.064,50.026
								c1.569,1.277,5.999-0.761,13.168-6.058c14.256-10.533,14.528-10.241,15.061-9.642c0.634,0.709-0.153,1.686-9.359,11.604
								c-14.043,15.127-40.18,43.285-59.916,74.588c-24.147,38.301-30.963,69.174-20.259,91.76
								c17.145,36.177,79.184,51.179,184.393,44.584c73.038-4.577,113.21,3.837,122.818,25.723
								c14.629,33.322-45.227,90.76-98.036,141.436c-40.051,38.434-74.641,71.627-66.868,84.967
								c7.841,13.454,58.426,5.696,159.194-24.416l0.287,0.959C480.628,686.285,435.045,696.393,410.35,696.393z"/>
						</g>
					</g>
					<g>
						<g>
							
								<linearGradient id="SVGID_00000161610510015963389080000016758352111500269237_" gradientUnits="userSpaceOnUse" x1="147.8003" y1="285.1842" x2="561.4662" y2="285.1842">
								<stop  offset="0" style="stop-color:#FF25B6"/>
								<stop  offset="0.013" style="stop-color:#F720C0"/>
								<stop  offset="0.0526" style="stop-color:#E112DB"/>
								<stop  offset="0.093" style="stop-color:#D208EE"/>
								<stop  offset="0.1345" style="stop-color:#C902F9"/>
								<stop  offset="0.1787" style="stop-color:#C600FD"/>
								<stop  offset="0.475" style="stop-color:#432AF3"/>
								<stop  offset="0.6457" style="stop-color:#2747ED"/>
								<stop  offset="1" style="stop-color:#000422"/>
							</linearGradient>
							<path style="fill:url(#SVGID_00000161610510015963389080000016758352111500269237_);" d="M421.457,700.674
								c-12.393,0.001-19.834-2.384-22.602-7.114c-8.364-14.293,25.575-47.594,64.872-86.153
								c51.106-50.145,109.029-106.979,94.47-140.313c-9.586-21.949-49.147-30.952-120.936-27.528
								c-104.454,4.993-166.383-11.435-184.052-48.809c-11.046-23.363-4.766-54.803,18.667-93.447
								c19.048-31.414,44.453-59.507,58.101-74.6c4.035-4.462,7.375-8.155,8.539-9.768c-2.455,1.388-9.323,6.531-12.868,9.186
								c-7.668,5.74-12.015,7.566-14.097,5.917c-4.345-3.444,3.581-21.558,16.71-51.567c15.31-34.991,36.278-82.913,47.109-130.722
								c12.769-56.361,8.001-99.602-14.17-128.523c-32.787-42.767-104.536-56.133-213.251-39.729l-0.149-0.988
								c57.483-8.673,105.088-9.077,141.491-1.2c32.643,7.063,57.103,20.961,72.702,41.309
								c22.361,29.168,27.189,72.689,14.352,129.352c-10.853,47.902-31.842,95.875-47.168,130.902
								c-11.591,26.492-20.747,47.417-17.005,50.382c1.596,1.264,5.929-0.731,12.876-5.934c13.928-10.428,14.199-10.126,14.74-9.531
								c0.647,0.71-0.116,1.684-9.069,11.585c-13.626,15.068-38.989,43.115-57.988,74.447
								c-23.247,38.339-29.511,69.461-18.618,92.501c17.48,36.972,79.089,53.203,183.101,48.238
								c72.252-3.453,112.126,5.752,121.899,28.126c14.835,33.965-43.351,91.057-94.687,141.427
								c-38.999,38.267-72.68,71.313-64.71,84.935c8.026,13.712,57.912,6.681,156.998-22.137l0.279,0.961
								C490.645,691.175,446.191,700.674,421.457,700.674z"/>
						</g>
					</g>
					<g>
						<g>
							
								<linearGradient id="SVGID_00000122717304614530597070000000927346105372145586_" gradientUnits="userSpaceOnUse" x1="147.0293" y1="283.1166" x2="565.8528" y2="283.1166">
								<stop  offset="0" style="stop-color:#FF25B6"/>
								<stop  offset="0.013" style="stop-color:#F720C0"/>
								<stop  offset="0.0526" style="stop-color:#E112DB"/>
								<stop  offset="0.093" style="stop-color:#D208EE"/>
								<stop  offset="0.1345" style="stop-color:#C902F9"/>
								<stop  offset="0.1787" style="stop-color:#C600FD"/>
								<stop  offset="0.475" style="stop-color:#432AF3"/>
								<stop  offset="0.6457" style="stop-color:#2747ED"/>
								<stop  offset="1" style="stop-color:#000422"/>
							</linearGradient>
							<path style="fill:url(#SVGID_00000122717304614530597070000000927346105372145586_);" d="M432.614,705.191
								c-13.187,0-21.099-2.527-24.048-7.544c-8.565-14.573,24.475-47.744,62.73-86.154
								c49.656-49.856,105.939-106.363,91.168-140.358c-9.756-22.454-49.031-32.254-120.079-29.95
								c-103.315,3.346-164.827-14.315-182.834-52.499c-11.233-23.818-5.502-55.516,17.034-94.21
								c18.322-31.459,42.963-59.451,56.201-74.489c3.951-4.488,7.214-8.195,8.308-9.782c-2.371,1.335-9.122,6.461-12.598,9.1
								c-7.436,5.646-11.693,7.438-13.802,5.81c-4.456-3.438,3.107-21.693,15.638-51.938
								c14.635-35.323,34.677-83.699,44.567-132.094c11.662-57.065,5.996-100.989-16.84-130.551
								c-33.368-43.196-104.324-57.622-210.894-42.88l-0.137-0.99c56.326-7.792,103.152-7.482,139.175,0.919
								c32.327,7.539,56.768,21.784,72.647,42.339c23.022,29.803,28.751,74,17.029,131.363
								c-9.91,48.489-29.973,96.917-44.623,132.277c-11.063,26.702-19.801,47.793-15.952,50.763
								c1.624,1.251,5.857-0.705,12.587-5.814c13.591-10.319,13.868-10.021,14.421-9.425c0.66,0.71-0.078,1.682-8.777,11.564
								c-13.216,15.012-37.815,42.957-56.088,74.331c-22.36,38.393-28.078,69.777-16.994,93.281
								c17.821,37.788,79.027,55.262,181.896,51.925c71.509-2.31,111.091,7.678,121.03,30.552
								c15.041,34.617-41.496,91.381-91.378,141.462c-37.964,38.116-70.75,71.034-62.576,84.941
								c8.215,13.976,57.422,7.663,154.861-19.866l0.271,0.963C500.668,696.29,457.358,705.19,432.614,705.191z"/>
						</g>
					</g>
					<g>
						<g>
							
								<linearGradient id="SVGID_00000031173507983289571850000003522461468886158512_" gradientUnits="userSpaceOnUse" x1="146.1079" y1="281.0437" x2="572.1377" y2="281.0437">
								<stop  offset="0" style="stop-color:#FF25B6"/>
								<stop  offset="0.013" style="stop-color:#F720C0"/>
								<stop  offset="0.0526" style="stop-color:#E112DB"/>
								<stop  offset="0.093" style="stop-color:#D208EE"/>
								<stop  offset="0.1345" style="stop-color:#C902F9"/>
								<stop  offset="0.1787" style="stop-color:#C600FD"/>
								<stop  offset="0.475" style="stop-color:#432AF3"/>
								<stop  offset="0.6457" style="stop-color:#2747ED"/>
								<stop  offset="1" style="stop-color:#000422"/>
							</linearGradient>
							<path style="fill:url(#SVGID_00000031173507983289571850000003522461468886158512_);" d="M443.827,709.944
								c-14.033,0-22.448-2.679-25.589-7.999c-8.773-14.858,23.379-47.916,60.607-86.193
								c48.228-49.587,102.892-105.789,87.907-140.456c-9.932-22.976-48.942-33.578-119.281-32.399
								c-102.234,1.7-163.332-17.205-181.684-56.215c-11.423-24.28-6.238-56.241,15.408-94.995
								c17.601-31.512,41.488-59.412,54.32-74.401c3.868-4.518,7.057-8.243,8.083-9.804c-2.289,1.282-8.926,6.395-12.333,9.018
								c-7.107,5.476-11.399,7.292-13.509,5.707c-4.567-3.426,2.635-21.832,14.568-52.326c13.96-35.677,33.08-84.538,42.025-133.552
								c10.55-57.81,3.975-102.447-19.544-132.671c-33.938-43.615-104.111-59.09-208.575-45.993l-0.124-0.992
								c55.19-6.919,101.247-5.906,136.894,3.013c32.016,8.01,56.44,22.598,72.594,43.358
								c23.701,30.458,30.342,75.363,19.738,133.465c-8.962,49.109-28.102,98.022-42.078,133.737
								c-10.536,26.925-18.858,48.191-14.899,51.162c1.647,1.237,5.785-0.682,12.298-5.699c12.759-9.828,13.509-9.957,14.111-9.323
								c0.667,0.702-0.127,1.782-8.491,11.551c-12.81,14.963-36.654,42.814-54.207,74.238c-21.48,38.457-26.654,70.11-15.376,94.082
								c18.17,38.622,79.006,57.351,180.762,55.641c70.787-1.177,110.107,9.614,120.217,33.003
								c15.249,35.281-39.661,91.738-88.108,141.55c-36.942,37.983-68.848,70.787-60.464,84.987
								c8.411,14.243,56.958,8.648,152.775-17.606l0.264,0.965C510.696,701.63,468.547,709.944,443.827,709.944z"/>
						</g>
					</g>
					<g>
						<g>
							
								<linearGradient id="SVGID_00000075863547797968485830000014007552424851239064_" gradientUnits="userSpaceOnUse" x1="145.0303" y1="278.9706" x2="579.7451" y2="278.9706">
								<stop  offset="0" style="stop-color:#FF25B6"/>
								<stop  offset="0.013" style="stop-color:#F720C0"/>
								<stop  offset="0.0526" style="stop-color:#E112DB"/>
								<stop  offset="0.093" style="stop-color:#D208EE"/>
								<stop  offset="0.1345" style="stop-color:#C902F9"/>
								<stop  offset="0.1787" style="stop-color:#C600FD"/>
								<stop  offset="0.475" style="stop-color:#432AF3"/>
								<stop  offset="0.6457" style="stop-color:#2747ED"/>
								<stop  offset="1" style="stop-color:#000422"/>
							</linearGradient>
							<path style="fill:url(#SVGID_00000075863547797968485830000014007552424851239064_);" d="M455.116,714.938
								c-14.944,0.001-23.895-2.84-27.242-8.483c-8.987-15.151,22.292-48.11,58.51-86.273
								c46.816-49.331,99.879-105.244,84.682-140.587c-10.088-23.461-48.736-34.868-118.129-34.868c-0.288,0.001-0.58,0.001-0.872,0
								c-100.868,0.002-161.471-20.177-180.149-59.977c-11.615-24.75-6.975-56.986,13.792-95.814
								c16.888-31.575,40.029-59.396,52.462-74.342c3.782-4.546,6.896-8.289,7.855-9.828c-2.251,1.26-8.985,6.525-12.066,8.934
								c-6.886,5.384-11.087,7.165-13.22,5.609c-4.68-3.413,2.163-21.982,13.501-52.745c13.287-36.053,31.483-85.428,39.478-135.092
								c9.431-58.59,1.935-103.968-22.282-134.872c-34.5-44.027-103.907-60.534-206.293-49.054l-0.111-0.994
								c54.069-6.062,99.373-4.355,134.65,5.072c31.71,8.474,56.117,23.398,72.542,44.358
								c24.395,31.132,31.96,76.771,22.482,135.648c-8.009,49.759-26.226,99.187-39.526,135.278
								c-10.403,28.228-17.92,48.624-13.85,51.591c1.668,1.217,5.712-0.662,12.014-5.589c12.411-9.703,13.203-9.842,13.805-9.224
								c0.68,0.702-0.087,1.781-8.209,11.545c-12.41,14.919-35.509,42.689-52.349,74.174
								c-20.609,38.534-25.242,70.469-13.769,94.917c18.498,39.416,78.808,59.401,179.244,59.401c0.29,0,0.578,0,0.87,0
								c69.844,0,108.786,11.604,119.05,35.473c15.457,35.949-37.847,92.115-84.876,141.67
								c-35.939,37.869-66.976,70.573-58.375,85.074c8.611,14.515,56.516,9.635,150.756-15.354l0.256,0.967
								C520.752,707.198,479.777,714.937,455.116,714.938z"/>
						</g>
					</g>
					<g>
						<g>
							
								<linearGradient id="SVGID_00000119818806222370743710000017960631162804932257_" gradientUnits="userSpaceOnUse" x1="143.8047" y1="276.892" x2="587.3779" y2="276.892">
								<stop  offset="0" style="stop-color:#FF25B6"/>
								<stop  offset="0.013" style="stop-color:#F720C0"/>
								<stop  offset="0.0526" style="stop-color:#E112DB"/>
								<stop  offset="0.093" style="stop-color:#D208EE"/>
								<stop  offset="0.1345" style="stop-color:#C902F9"/>
								<stop  offset="0.1787" style="stop-color:#C600FD"/>
								<stop  offset="0.475" style="stop-color:#432AF3"/>
								<stop  offset="0.6457" style="stop-color:#2747ED"/>
								<stop  offset="1" style="stop-color:#000422"/>
							</linearGradient>
							<path style="fill:url(#SVGID_00000119818806222370743710000017960631162804932257_);" d="M466.488,720.175
								c-15.915,0.001-25.441-3.011-29.01-8.998c-9.207-15.45,21.209-48.323,56.429-86.387
								c45.424-49.092,96.908-104.734,81.496-140.766c-10.289-24.055-48.834-36.279-117.839-37.372
								c-100.123-1.586-160.557-23.041-179.625-63.77c-11.81-25.225-7.71-57.745,12.184-96.657
								c16.181-31.649,38.586-59.4,50.624-74.309c3.561-4.411,6.709-8.31,7.629-9.859c-2.177,1.211-8.787,6.46-11.804,8.855
								c-6.664,5.292-10.772,7.049-12.93,5.518c-4.791-3.394,1.693-22.131,12.435-53.174c12.614-36.45,29.889-86.371,36.929-136.719
								c8.307-59.415-0.122-105.566-25.055-137.174c-35.049-44.433-103.699-61.955-204.05-52.075l-0.098-0.995
								c52.97-5.214,97.532-2.825,132.444,7.102c31.41,8.932,55.799,24.189,72.489,45.349c25.107,31.83,33.606,78.237,25.26,137.932
								c-7.053,50.445-24.347,100.418-36.974,136.907c-9.859,28.488-16.981,49.071-12.803,52.031
								c1.689,1.198,5.637-0.647,11.729-5.485c12.108-9.613,12.893-9.749,13.506-9.13c0.719,0.725-0.326,2.127-7.931,11.546
								c-12.015,14.88-34.378,42.579-50.512,74.135c-19.747,38.623-23.841,70.848-12.169,95.778
								c18.892,40.353,79.027,61.614,178.735,63.193c69.441,1.1,108.282,13.522,118.743,37.979
								c15.666,36.628-36.052,92.523-81.682,141.839c-34.947,37.769-65.128,70.388-56.304,85.195
								c8.813,14.788,56.094,10.622,148.792-13.112l0.248,0.969C530.827,713.001,491.051,720.175,466.488,720.175z"/>
						</g>
					</g>
					<g>
						<g>
							
								<linearGradient id="SVGID_00000156564443382435975250000006481998803431138731_" gradientUnits="userSpaceOnUse" x1="142.4189" y1="274.8081" x2="595.0361" y2="274.8081">
								<stop  offset="0" style="stop-color:#FF25B6"/>
								<stop  offset="0.013" style="stop-color:#F720C0"/>
								<stop  offset="0.0526" style="stop-color:#E112DB"/>
								<stop  offset="0.093" style="stop-color:#D208EE"/>
								<stop  offset="0.1345" style="stop-color:#C902F9"/>
								<stop  offset="0.1787" style="stop-color:#C600FD"/>
								<stop  offset="0.475" style="stop-color:#432AF3"/>
								<stop  offset="0.6457" style="stop-color:#2747ED"/>
								<stop  offset="1" style="stop-color:#000422"/>
							</linearGradient>
							<path style="fill:url(#SVGID_00000156564443382435975250000006481998803431138731_);" d="M477.956,725.663
								c-16.959,0-27.098-3.192-30.902-9.546c-9.435-15.757,20.133-48.561,54.368-86.544
								c44.048-48.87,93.974-104.261,78.346-140.987c-10.474-24.616-48.809-37.667-117.196-39.9
								c-99.148-3.24-159.276-25.986-178.714-67.607c-12.008-25.712-8.444-58.531,10.593-97.546
								c15.485-31.735,37.164-59.421,48.81-74.295c3.474-4.437,6.542-8.355,7.396-9.878c-2.101,1.163-8.588,6.396-11.54,8.778
								c-6.448,5.202-10.464,6.928-12.644,5.428c-4.905-3.374,1.222-22.296,11.372-53.645
								c11.939-36.871,28.289-87.367,34.365-138.431c7.172-60.274-2.204-107.228-27.867-139.558
								c-35.585-44.831-103.494-63.348-201.84-55.05l-0.084-0.996c98.7-8.332,166.9,10.316,202.707,55.425
								c25.834,32.546,35.281,79.749,28.077,140.298c-6.087,51.161-22.455,101.711-34.406,138.621
								c-9.316,28.773-16.048,49.561-11.757,52.513c1.708,1.174,5.563-0.634,11.449-5.383c11.805-9.524,12.582-9.657,13.206-9.042
								c0.734,0.723-0.277,2.123-7.647,11.536c-11.624,14.845-33.26,42.477-48.699,74.118
								c-18.898,38.729-22.46,71.259-10.586,96.684c19.266,41.253,79.1,63.805,177.841,67.031
								c68.816,2.248,107.441,15.498,118.084,40.509c15.877,37.314-34.275,92.956-78.524,142.049
								c-33.97,37.688-63.308,70.237-54.252,85.36c9.021,15.067,55.695,11.612,146.884-10.878l0.24,0.971
								C540.932,719.04,502.376,725.662,477.956,725.663z"/>
						</g>
					</g>
					<g>
						<g>
							
								<linearGradient id="SVGID_00000155104857175658824000000013910411934207486609_" gradientUnits="userSpaceOnUse" x1="140.8867" y1="272.7181" x2="602.7227" y2="272.7181">
								<stop  offset="0" style="stop-color:#FF25B6"/>
								<stop  offset="0.013" style="stop-color:#F720C0"/>
								<stop  offset="0.0526" style="stop-color:#E112DB"/>
								<stop  offset="0.093" style="stop-color:#D208EE"/>
								<stop  offset="0.1345" style="stop-color:#C902F9"/>
								<stop  offset="0.1787" style="stop-color:#C600FD"/>
								<stop  offset="0.475" style="stop-color:#432AF3"/>
								<stop  offset="0.6457" style="stop-color:#2747ED"/>
								<stop  offset="1" style="stop-color:#000422"/>
							</linearGradient>
							<path style="fill:url(#SVGID_00000155104857175658824000000013910411934207486609_);" d="M489.529,731.404
								c-18.073,0-28.869-3.385-32.925-10.125c-9.669-16.069,19.06-48.816,52.323-86.734
								c42.693-48.666,91.083-103.825,75.237-141.259c-10.664-25.192-48.808-39.084-116.61-42.467
								c-98.211-4.897-158.058-28.946-177.875-71.478c-12.209-26.202-9.181-59.325,9-98.45
								c14.792-31.83,35.752-59.466,47.013-74.313c3.393-4.475,6.388-8.422,7.175-9.919c-2.027,1.112-8.395,6.334-11.284,8.704
								c-6.234,5.113-10.162,6.811-12.359,5.345c-5.018-3.349,0.752-22.463,10.311-54.129
								c11.263-37.314,26.688-88.416,31.795-140.23c6.03-61.175-4.303-108.964-30.711-142.039
								c-36.105-45.22-103.282-64.724-199.664-57.976l-0.07-0.997c96.729-6.777,164.193,12.857,200.516,58.349
								c26.576,33.285,36.98,81.317,30.924,142.761c-5.117,51.912-20.559,103.068-31.833,140.421
								c-8.774,29.068-15.114,50.07-10.712,53.008c1.728,1.153,5.486-0.625,11.17-5.287c11.511-9.441,12.278-9.567,12.915-8.954
								c0.745,0.717-0.332,2.26-7.376,11.547c-11.238,14.817-32.157,42.398-46.903,74.131c-18.051,38.845-21.08,71.684-9.001,97.606
								c19.648,42.168,79.207,66.023,177.02,70.901c68.224,3.403,106.652,17.493,117.48,43.075
								c16.09,38.011-32.519,93.421-75.406,142.308c-33.006,37.624-61.511,70.116-52.219,85.56
								c9.236,15.351,55.319,12.599,145.031-8.656l0.23,0.973C551.063,725.32,513.758,731.404,489.529,731.404z"/>
						</g>
					</g>
					<g>
						<g>
							
								<linearGradient id="SVGID_00000065779353783159458770000005567289626586690977_" gradientUnits="userSpaceOnUse" x1="139.2012" y1="270.6194" x2="610.4463" y2="270.6194">
								<stop  offset="0" style="stop-color:#FF25B6"/>
								<stop  offset="0.013" style="stop-color:#F720C0"/>
								<stop  offset="0.0526" style="stop-color:#E112DB"/>
								<stop  offset="0.093" style="stop-color:#D208EE"/>
								<stop  offset="0.1345" style="stop-color:#C902F9"/>
								<stop  offset="0.1787" style="stop-color:#C600FD"/>
								<stop  offset="0.475" style="stop-color:#432AF3"/>
								<stop  offset="0.6457" style="stop-color:#2747ED"/>
								<stop  offset="1" style="stop-color:#000422"/>
							</linearGradient>
							<path style="fill:url(#SVGID_00000065779353783159458770000005567289626586690977_);" d="M501.234,737.403
								c-19.274,0-30.773-3.59-35.1-10.744c-9.91-16.39,17.99-49.097,50.297-86.968c41.354-48.476,88.224-103.42,72.16-141.564
								c-10.857-25.783-48.827-40.523-116.076-45.06c-97.319-6.565-156.909-31.932-177.115-75.396
								c-12.413-26.7-9.916-60.138,7.419-99.386c14.106-31.935,34.358-59.531,45.238-74.356c3.313-4.513,6.232-8.491,6.954-9.962
								c-1.956,1.063-8.203,6.273-11.029,8.631c-6.024,5.026-9.863,6.699-12.075,5.266c-5.13-3.319,0.282-22.635,9.249-54.636
								c10.585-37.779,25.082-89.519,29.212-142.118c4.877-62.118-6.425-110.775-33.593-144.619
								c-36.61-45.605-103.067-66.081-197.52-60.86l-0.055-0.999c94.794-5.243,161.531,15.362,198.354,61.233
								c27.332,34.049,38.708,82.942,33.81,145.323c-4.138,52.696-18.65,104.491-29.247,142.309
								c-8.232,29.38-14.18,50.607-9.668,53.526c1.741,1.127,5.406-0.619,10.891-5.194c11.191-9.337,11.992-9.466,12.628-8.871
								c0.76,0.715-0.28,2.26-7.106,11.561c-10.858,14.795-31.068,42.333-45.129,74.169c-17.214,38.973-19.713,72.133-7.427,98.561
								c20.041,43.107,79.348,68.28,176.274,74.818c67.664,4.565,105.913,19.504,116.932,45.67
								c16.303,38.713-30.78,93.905-72.321,142.6c-32.055,37.577-59.739,70.029-50.202,85.803
								c9.454,15.634,54.967,13.59,143.235-6.438l0.221,0.975C561.241,731.844,525.22,737.402,501.234,737.403z"/>
						</g>
					</g>
					<g>
						<g>
							
								<linearGradient id="SVGID_00000168076971108125186480000008139964835674702223_" gradientUnits="userSpaceOnUse" x1="137.3589" y1="268.5129" x2="618.2012" y2="268.5129">
								<stop  offset="0" style="stop-color:#FF25B6"/>
								<stop  offset="0.013" style="stop-color:#F720C0"/>
								<stop  offset="0.0526" style="stop-color:#E112DB"/>
								<stop  offset="0.093" style="stop-color:#D208EE"/>
								<stop  offset="0.1345" style="stop-color:#C902F9"/>
								<stop  offset="0.1787" style="stop-color:#C600FD"/>
								<stop  offset="0.475" style="stop-color:#432AF3"/>
								<stop  offset="0.6457" style="stop-color:#2747ED"/>
								<stop  offset="1" style="stop-color:#000422"/>
							</linearGradient>
							<path style="fill:url(#SVGID_00000168076971108125186480000008139964835674702223_);" d="M513.073,743.666
								c-20.564,0-32.813-3.806-37.428-11.399c-10.159-16.719,16.926-49.398,48.287-87.239
								c40.031-48.303,85.405-103.051,69.121-141.917c-11.058-26.39-48.868-41.989-115.593-47.691
								c-96.47-8.241-155.831-34.944-176.436-79.367c-12.62-27.208-10.652-60.974,5.849-100.358
								c13.428-32.051,32.978-59.611,43.482-74.417c3.225-4.546,6.063-8.548,6.725-9.994c-1.89,1.018-8.011,6.215-10.774,8.561
								c-5.815,4.938-9.561,6.587-11.792,5.19c-5.241-3.287-0.186-22.816,8.188-55.171c9.905-38.268,23.469-90.677,26.614-144.095
								c3.715-63.102-8.569-112.659-36.511-147.295c-37.097-45.984-102.842-67.42-195.406-63.7l-0.04-0.999
								c92.9-3.731,158.918,17.827,196.225,64.071c28.103,34.836,40.461,84.624,36.731,147.982
								c-3.15,53.515-16.729,105.98-26.644,144.287c-7.689,29.71-13.245,51.176-8.624,54.073c1.753,1.1,5.327-0.617,10.612-5.105
								c10.908-9.261,11.698-9.385,12.344-8.794c0.776,0.711-0.228,2.258-6.832,11.568c-10.48,14.775-29.989,42.276-43.375,74.226
								c-16.388,39.115-18.361,72.608-5.864,99.552c20.443,44.073,79.528,70.582,175.615,78.791
								c67.13,5.735,105.215,21.534,116.429,48.301c16.518,39.424-29.061,94.419-69.273,142.94
								c-31.117,37.547-57.991,69.973-48.202,86.082c9.678,15.924,54.634,14.581,141.49-4.231l0.211,0.977
								C571.462,738.616,536.755,743.665,513.073,743.666z"/>
						</g>
					</g>
					<g>
						<g>
							
								<linearGradient id="SVGID_00000096760780196939430190000010791299473514575005_" gradientUnits="userSpaceOnUse" x1="135.3589" y1="266.3996" x2="626.001" y2="266.3996">
								<stop  offset="0" style="stop-color:#FF25B6"/>
								<stop  offset="0.013" style="stop-color:#F720C0"/>
								<stop  offset="0.0526" style="stop-color:#E112DB"/>
								<stop  offset="0.093" style="stop-color:#D208EE"/>
								<stop  offset="0.1345" style="stop-color:#C902F9"/>
								<stop  offset="0.1787" style="stop-color:#C600FD"/>
								<stop  offset="0.475" style="stop-color:#432AF3"/>
								<stop  offset="0.6457" style="stop-color:#2747ED"/>
								<stop  offset="1" style="stop-color:#000422"/>
							</linearGradient>
							<path style="fill:url(#SVGID_00000096760780196939430190000010791299473514575005_);" d="M525.079,750.203
								c-21.948,0-35.008-4.035-39.933-12.099c-10.416-17.055,15.863-49.726,46.291-87.556
								c38.727-48.147,82.621-102.719,66.113-142.313c-11.262-27.012-48.932-43.484-115.163-50.358
								c-95.66-9.926-154.819-37.978-175.832-83.38c-12.83-27.721-11.389-61.821,4.284-101.353
								c12.756-32.177,31.614-59.714,41.745-74.508c3.141-4.586,5.904-8.621,6.502-10.041c-1.824,0.971-7.823,6.158-10.523,8.493
								c-5.614,4.853-9.27,6.479-11.512,5.119c-5.352-3.25-0.655-23.003,7.126-55.731c9.22-38.778,21.847-91.888,23.998-146.158
								c2.542-64.125-10.736-114.616-39.464-150.069c-37.566-46.361-102.612-68.739-193.328-66.501l-0.024-1
								c91.043-2.238,156.357,20.257,194.129,66.872c28.885,35.647,42.238,86.363,39.687,150.738
								c-2.155,54.368-14.795,107.532-24.024,146.35c-7.146,30.057-12.31,51.773-7.58,54.645c1.767,1.072,5.245-0.618,10.339-5.021
								c10.622-9.184,11.407-9.306,12.066-8.719c0.792,0.708-0.175,2.257-6.565,11.588c-10.109,14.762-28.926,42.239-41.641,74.311
								c-15.567,39.268-17.016,73.103-4.306,100.565c20.855,45.059,79.742,72.918,175.028,82.806
								c66.629,6.914,104.567,23.586,115.983,50.967c16.736,40.143-27.356,94.961-66.258,143.325
								c-30.191,37.535-56.267,69.952-46.217,86.407c9.905,16.22,54.328,15.573,139.8-2.029l0.201,0.979
								C581.734,745.649,548.393,750.203,525.079,750.203z"/>
						</g>
					</g>
					<g>
						<g>
							
								<linearGradient id="SVGID_00000046318247306223699080000005573147603182309781_" gradientUnits="userSpaceOnUse" x1="133.2007" y1="264.2776" x2="633.8457" y2="264.2776">
								<stop  offset="0" style="stop-color:#FF25B6"/>
								<stop  offset="0.013" style="stop-color:#F720C0"/>
								<stop  offset="0.0526" style="stop-color:#E112DB"/>
								<stop  offset="0.093" style="stop-color:#D208EE"/>
								<stop  offset="0.1345" style="stop-color:#C902F9"/>
								<stop  offset="0.1787" style="stop-color:#C600FD"/>
								<stop  offset="0.475" style="stop-color:#432AF3"/>
								<stop  offset="0.6457" style="stop-color:#2747ED"/>
								<stop  offset="1" style="stop-color:#000422"/>
							</linearGradient>
							<path style="fill:url(#SVGID_00000046318247306223699080000005573147603182309781_);" d="M537.274,757.01
								c-23.449,0.001-37.374-4.279-42.631-12.845c-10.681-17.4,14.802-50.076,44.308-87.911
								c37.437-48.005,79.868-102.415,63.136-142.744c-11.473-27.65-49.022-45.008-114.79-53.063
								c-94.886-11.617-153.866-41.034-175.3-87.435c-13.046-28.241-12.132-62.686,2.716-102.38
								c12.087-32.312,30.26-59.84,40.023-74.628c3.058-4.632,5.745-8.702,6.282-10.096c-1.76,0.924-7.636,6.101-10.274,8.425
								c-5.413,4.769-8.983,6.376-11.233,5.054c-5.461-3.208-1.122-23.196,6.065-56.311
								c16.485-75.957,47.171-217.344-21.086-301.251c-38.017-46.733-102.341-70.038-191.281-69.259l-0.009-1
								c89.224-0.803,153.847,22.647,192.065,69.628c29.679,36.484,44.037,88.161,42.675,153.595
								c-1.15,55.254-12.847,109.148-21.388,148.499c-6.602,30.419-11.372,52.396-6.535,55.237c1.772,1.042,5.16-0.62,10.065-4.941
								c10.339-9.109,11.12-9.229,11.79-8.646c0.81,0.705-0.123,2.258-6.302,11.619c-19.95,30.22-72.944,110.495-42.667,176.038
								c21.279,46.065,79.994,75.29,174.513,86.862c66.159,8.102,103.97,25.659,115.593,53.672
								c16.956,40.867-25.666,95.521-63.271,143.741c-29.276,37.542-54.562,69.964-44.243,86.773
								c10.137,16.519,54.04,16.569,138.158,0.169l0.191,0.982C592.08,752.935,560.146,757.009,537.274,757.01z"/>
						</g>
					</g>
					<g>
						<g>
							
								<linearGradient id="SVGID_00000119075985934366702620000008229246921373454492_" gradientUnits="userSpaceOnUse" x1="130.8809" y1="262.1548" x2="641.7256" y2="262.1548">
								<stop  offset="0" style="stop-color:#FF25B6"/>
								<stop  offset="0.013" style="stop-color:#F720C0"/>
								<stop  offset="0.0526" style="stop-color:#E112DB"/>
								<stop  offset="0.093" style="stop-color:#D208EE"/>
								<stop  offset="0.1345" style="stop-color:#C902F9"/>
								<stop  offset="0.1787" style="stop-color:#C600FD"/>
								<stop  offset="0.475" style="stop-color:#432AF3"/>
								<stop  offset="0.6457" style="stop-color:#2747ED"/>
								<stop  offset="1" style="stop-color:#000422"/>
							</linearGradient>
							<path style="fill:url(#SVGID_00000119075985934366702620000008229246921373454492_);" d="M549.658,764.101
								c-25.06,0.001-39.918-4.539-45.531-13.638c-10.952-17.754,13.744-50.449,42.341-88.308
								c36.166-47.878,77.157-102.145,60.195-143.215c-11.688-28.305-49.133-46.559-114.472-55.805
								c-94.154-13.325-152.981-44.13-174.846-91.557c-13.264-28.771-12.873-63.571,1.162-103.438
								c11.426-32.459,28.922-59.982,38.321-74.769c2.972-4.675,5.581-8.779,6.059-10.148c-1.701,0.882-7.453,6.049-10.029,8.363
								c-5.216,4.686-8.698,6.271-10.954,4.99c-5.567-3.162-1.588-23.395,5.004-56.915c15.159-77.08,43.374-220.554-26.753-306.474
								c-38.449-47.107-102.13-71.325-189.273-71.98l0.008-1c87.455,0.658,151.393,24.999,190.04,72.348
								c30.483,37.348,45.857,90.021,45.694,156.558c-0.137,56.177-10.886,110.833-18.734,150.741
								c-6.057,30.796-10.432,53.047-5.492,55.853c1.782,1.012,5.075-0.626,9.792-4.865c9.559-8.587,10.804-9.188,11.521-8.581
								c0.827,0.7-0.071,2.258-6.039,11.647c-19.203,30.209-70.213,110.457-39.419,177.25
								c21.714,47.099,80.282,77.711,174.079,90.985c65.719,9.3,103.42,27.753,115.256,56.413
								c17.18,41.599-23.995,96.107-60.322,144.199c-28.375,37.565-52.881,70.008-42.287,87.18
								c10.374,16.818,53.769,17.567,136.566,2.357l0.181,0.984C602.476,760.488,572.009,764.101,549.658,764.101z"/>
						</g>
					</g>
					<g>
						<g>
							
								<linearGradient id="SVGID_00000171695872342469617030000013776220259645039766_" gradientUnits="userSpaceOnUse" x1="128.3862" y1="260.0811" x2="649.667" y2="260.0811">
								<stop  offset="0" style="stop-color:#FF25B6"/>
								<stop  offset="0.013" style="stop-color:#F720C0"/>
								<stop  offset="0.0526" style="stop-color:#E112DB"/>
								<stop  offset="0.093" style="stop-color:#D208EE"/>
								<stop  offset="0.1345" style="stop-color:#C902F9"/>
								<stop  offset="0.1787" style="stop-color:#C600FD"/>
								<stop  offset="0.475" style="stop-color:#432AF3"/>
								<stop  offset="0.6457" style="stop-color:#2747ED"/>
								<stop  offset="1" style="stop-color:#000422"/>
							</linearGradient>
							<path style="fill:url(#SVGID_00000171695872342469617030000013776220259645039766_);" d="M562.277,771.479
								c-26.803,0-42.664-4.815-48.66-14.483c-11.233-18.117,12.685-50.848,40.381-88.746
								c34.908-47.769,74.475-101.911,57.281-143.731c-11.913-28.976-49.269-48.142-114.202-58.594
								c-93.468-15.042-152.171-47.25-174.479-95.727c-13.486-29.308-13.615-64.476-0.385-104.529
								c10.774-32.615,27.601-60.142,36.64-74.93c2.883-4.716,5.412-8.853,5.834-10.196c-1.645,0.843-7.27,5.998-9.783,8.301
								c-5.024,4.604-8.419,6.173-10.679,4.931c-5.673-3.113-2.054-23.604,3.941-57.551c13.819-78.245,39.54-223.888-32.48-311.878
								c-38.862-47.48-101.879-72.601-187.301-74.664l0.024-1c85.726,2.071,148.995,27.315,188.05,75.031
								c31.297,38.237,47.698,91.94,48.748,159.619c0.887,57.132-8.906,112.581-16.056,153.067
								c-5.509,31.194-9.489,53.732-4.445,56.5c1.782,0.976,4.986-0.634,9.522-4.792c9.299-8.523,10.523-9.12,11.253-8.519
								c0.838,0.69-0.105,2.396-5.775,11.673c-18.467,30.21-67.521,110.455-36.2,178.52c22.16,48.155,80.61,80.171,173.729,95.156
								c65.307,10.512,102.913,29.877,114.969,59.201c17.406,42.338-22.335,96.721-57.398,144.701
								c-27.482,37.607-51.217,70.085-40.338,87.629c10.617,17.121,53.523,18.564,135.029,4.54l0.17,0.986
								C612.959,768.31,584.019,771.479,562.277,771.479z"/>
						</g>
					</g>
					<g>
						<g>
							
								<linearGradient id="SVGID_00000067952500803719574230000009684961368322724227_" gradientUnits="userSpaceOnUse" x1="125.7393" y1="258.0623" x2="657.6553" y2="258.0623">
								<stop  offset="0" style="stop-color:#FF25B6"/>
								<stop  offset="0.013" style="stop-color:#F720C0"/>
								<stop  offset="0.0526" style="stop-color:#E112DB"/>
								<stop  offset="0.093" style="stop-color:#D208EE"/>
								<stop  offset="0.1345" style="stop-color:#C902F9"/>
								<stop  offset="0.1787" style="stop-color:#C600FD"/>
								<stop  offset="0.475" style="stop-color:#432AF3"/>
								<stop  offset="0.6457" style="stop-color:#2747ED"/>
								<stop  offset="1" style="stop-color:#000422"/>
							</linearGradient>
							<path style="fill:url(#SVGID_00000067952500803719574230000009684961368322724227_);" d="M575.147,779.154
								c-28.691,0.001-45.632-5.106-52.038-15.387c-11.523-18.488,11.627-51.27,38.433-89.227
								c33.668-47.674,71.829-101.708,54.399-144.285c-12.143-29.664-49.43-49.757-113.989-61.426
								c-92.813-16.773-151.415-50.402-174.18-99.953c-13.713-29.849-14.364-65.392-1.936-105.642
								c10.122-32.781,26.286-60.324,34.97-75.121c2.797-4.766,5.249-8.943,5.613-10.261c-1.59,0.801-7.09,5.947-9.541,8.241
								c-4.834,4.524-8.139,6.074-10.402,4.876c-5.772-3.058-2.516-23.811,2.879-58.195
								c12.468-79.457,35.676-227.357-38.259-317.489c-39.254-47.855-101.618-73.868-185.357-77.317l0.041-0.999
								c84.037,3.462,146.646,29.598,186.089,77.682c32.119,39.156,49.558,93.928,51.832,162.794
								c1.919,58.126-6.911,114.396-13.357,155.483c-4.958,31.601-8.542,54.433-3.399,57.156c1.778,0.943,4.894-0.646,9.25-4.723
								c9.044-8.461,10.244-9.058,10.991-8.458c0.856,0.685-0.049,2.398-5.518,11.716c-17.735,30.22-64.845,110.496-32.988,179.839
								c22.62,49.235,80.976,82.674,173.449,99.386c64.923,11.735,102.454,32.025,114.737,62.031
								c17.637,43.084-20.691,97.357-54.508,145.241c-26.601,37.666-49.573,70.195-38.401,88.121
								c10.863,17.43,53.298,19.564,133.539,6.718l0.158,0.988C623.525,776.409,596.179,779.154,575.147,779.154z"/>
						</g>
					</g>
					<g>
						<g>
							
								<linearGradient id="SVGID_00000038394461728651821960000009737157353649410481_" gradientUnits="userSpaceOnUse" x1="122.9316" y1="256.1108" x2="665.6982" y2="256.1108">
								<stop  offset="0" style="stop-color:#FF25B6"/>
								<stop  offset="0.013" style="stop-color:#F720C0"/>
								<stop  offset="0.0526" style="stop-color:#E112DB"/>
								<stop  offset="0.093" style="stop-color:#D208EE"/>
								<stop  offset="0.1345" style="stop-color:#C902F9"/>
								<stop  offset="0.1787" style="stop-color:#C600FD"/>
								<stop  offset="0.475" style="stop-color:#432AF3"/>
								<stop  offset="0.6457" style="stop-color:#2747ED"/>
								<stop  offset="1" style="stop-color:#000422"/>
							</linearGradient>
							<path style="fill:url(#SVGID_00000038394461728651821960000009737157353649410481_);" d="M588.313,787.143
								c-30.745,0.001-48.854-5.418-55.704-16.353c-11.821-18.873,10.57-51.722,36.497-89.758
								c32.443-47.595,69.216-101.54,51.546-144.878c-12.381-30.368-49.616-51.4-113.834-64.299
								c-92.199-18.518-150.728-53.588-173.961-104.238c-13.945-30.402-15.115-66.334-3.477-106.798
								c9.479-32.959,24.99-60.528,33.323-75.338c2.708-4.813,5.079-9.028,5.39-10.321c-1.539,0.765-6.91,5.899-9.299,8.184
								c-4.65,4.447-7.869,5.979-10.129,4.825c-5.872-2.999-2.979-24.031,1.815-58.874c11.103-80.711,31.771-230.945-44.092-323.279
								c-39.627-48.232-101.351-75.127-183.455-79.938l0.059-0.998c82.394,4.828,144.357,31.845,184.169,80.302
								c76.14,92.672,55.434,243.188,44.309,324.05c-4.406,32.029-7.59,55.171-2.351,57.847c1.778,0.908,4.8-0.658,8.983-4.657
								c8.785-8.397,9.97-8.997,10.731-8.404c0.874,0.678,0.006,2.397-5.258,11.754c-17.016,30.243-62.215,110.578-29.809,181.23
								c23.091,50.342,81.38,85.223,173.249,103.674c64.571,12.97,102.045,34.199,114.563,64.901
								c17.872,43.835-19.06,98.017-51.646,145.819c-25.729,37.746-47.95,70.345-36.475,88.663
								c11.115,17.744,53.091,20.569,132.096,8.898l0.146,0.988C634.188,784.801,608.519,787.143,588.313,787.143z"/>
						</g>
					</g>
					<g>
						<g>
							
								<linearGradient id="SVGID_00000021811042200885162230000007349089660166693252_" gradientUnits="userSpaceOnUse" x1="119.958" y1="254.2156" x2="673.8076" y2="254.2156">
								<stop  offset="0" style="stop-color:#FF25B6"/>
								<stop  offset="0.013" style="stop-color:#F720C0"/>
								<stop  offset="0.0526" style="stop-color:#E112DB"/>
								<stop  offset="0.093" style="stop-color:#D208EE"/>
								<stop  offset="0.1345" style="stop-color:#C902F9"/>
								<stop  offset="0.1787" style="stop-color:#C600FD"/>
								<stop  offset="0.475" style="stop-color:#432AF3"/>
								<stop  offset="0.6457" style="stop-color:#2747ED"/>
								<stop  offset="1" style="stop-color:#000422"/>
							</linearGradient>
							<path style="fill:url(#SVGID_00000021811042200885162230000007349089660166693252_);" d="M601.796,795.433
								c-32.976,0.001-52.348-5.749-59.673-17.386c-12.129-19.267,9.511-52.198,34.567-90.331
								c31.233-47.53,66.632-101.402,48.718-145.506c-12.628-31.088-49.828-53.074-113.728-67.214
								c-91.627-20.278-150.11-56.811-173.823-108.587c-14.181-30.963-15.869-67.293-5.015-107.982
								c8.842-33.147,23.707-60.747,31.692-75.576c2.617-4.858,4.907-9.11,5.166-10.381c-1.511,0.748-6.932,6.047-9.06,8.127
								c-4.471,4.37-7.604,5.889-9.859,4.776c-5.968-2.937-3.44-24.259,0.749-59.583c9.724-82.011,27.823-234.666-49.982-329.267
								c-39.981-48.613-101.078-76.38-181.59-82.528l0.076-0.997c80.795,6.17,142.125,34.059,182.287,82.89
								c78.076,94.931,59.943,247.861,50.203,330.02c-3.851,32.478-6.633,55.943-1.3,58.568c1.772,0.874,4.706-0.673,8.718-4.594
								c8.536-8.343,9.7-8.94,10.474-8.352c0.891,0.67,0.062,2.397-5,11.796c-16.304,30.274-59.613,110.692-26.648,182.667
								c23.576,51.475,81.825,87.82,173.131,108.026c64.243,14.217,101.677,36.398,114.438,67.814
								c18.111,44.591-17.441,98.696-48.809,146.433c-24.867,37.844-46.344,70.526-34.558,89.249
								c11.371,18.061,52.901,21.578,130.705,11.068l0.134,0.99C644.96,793.471,621.057,795.433,601.796,795.433z"/>
						</g>
					</g>
					<g>
						<g>
							
								<linearGradient id="SVGID_00000141455474945069311000000017002941134639136915_" gradientUnits="userSpaceOnUse" x1="116.8145" y1="252.3855" x2="681.9746" y2="252.3855">
								<stop  offset="0" style="stop-color:#FF25B6"/>
								<stop  offset="0.013" style="stop-color:#F720C0"/>
								<stop  offset="0.0526" style="stop-color:#E112DB"/>
								<stop  offset="0.093" style="stop-color:#D208EE"/>
								<stop  offset="0.1345" style="stop-color:#C902F9"/>
								<stop  offset="0.1787" style="stop-color:#C600FD"/>
								<stop  offset="0.475" style="stop-color:#432AF3"/>
								<stop  offset="0.6457" style="stop-color:#2747ED"/>
								<stop  offset="1" style="stop-color:#000422"/>
							</linearGradient>
							<path style="fill:url(#SVGID_00000141455474945069311000000017002941134639136915_);" d="M615.637,804.048
								c-35.403,0-56.144-6.102-63.982-18.49c-12.445-19.67,8.45-52.699,32.644-90.945c30.038-47.482,64.083-101.301,45.918-146.18
								c-12.883-31.827-50.068-54.785-113.68-70.185c-91.085-22.052-149.544-60.065-173.754-112.986
								c-14.423-31.529-16.63-68.266-6.558-109.189c8.207-33.345,22.431-60.993,30.072-75.846c2.529-4.915,4.74-9.212,4.946-10.458
								c-1.462,0.712-6.754,6.003-8.826,8.075c-4.294,4.294-7.343,5.795-9.589,4.73c-6.059-2.871-3.898-24.492-0.318-60.312
								c8.331-83.354,23.838-238.507-55.919-335.445c-40.319-49.003-100.804-77.635-179.777-85.098l0.094-0.996
								c79.248,7.49,139.961,36.242,180.455,85.458c80.022,97.259,64.488,252.682,56.143,336.18
								c-3.293,32.941-5.671,56.74-0.249,59.309c1.764,0.838,4.609-0.688,8.454-4.534c8.253-8.252,9.456-8.869,10.223-8.305
								c0.946,0.691-0.112,2.843-4.747,11.853c-15.598,30.318-57.031,110.851-23.494,184.162
								c24.076,52.628,82.308,90.455,173.08,112.43c63.947,15.481,101.358,38.635,114.371,70.782
								c18.358,45.354-15.833,99.403-46,147.09c-24.013,37.958-44.751,70.74-32.645,89.875
								c11.63,18.384,52.733,22.586,129.354,13.235l0.121,0.992C655.842,802.44,633.808,804.048,615.637,804.048z"/>
						</g>
					</g>
					<g>
						<g>
							
								<linearGradient id="SVGID_00000139271329546415697170000017703244206926538431_" gradientUnits="userSpaceOnUse" x1="113.522" y1="250.6211" x2="690.208" y2="250.6211">
								<stop  offset="0" style="stop-color:#FF25B6"/>
								<stop  offset="0.013" style="stop-color:#F720C0"/>
								<stop  offset="0.0526" style="stop-color:#E112DB"/>
								<stop  offset="0.093" style="stop-color:#D208EE"/>
								<stop  offset="0.1345" style="stop-color:#C902F9"/>
								<stop  offset="0.1787" style="stop-color:#C600FD"/>
								<stop  offset="0.475" style="stop-color:#432AF3"/>
								<stop  offset="0.6457" style="stop-color:#2747ED"/>
								<stop  offset="1" style="stop-color:#000422"/>
							</linearGradient>
							<path style="fill:url(#SVGID_00000139271329546415697170000017703244206926538431_);" d="M629.874,812.992
								c-38.063,0.001-60.28-6.475-68.672-19.672c-12.77-20.085,7.388-53.229,30.729-91.608
								c28.859-47.451,61.568-101.233,43.146-146.893c-13.146-32.582-50.332-56.525-113.68-73.199
								c-90.585-23.842-149.049-63.36-173.769-117.456c-14.671-32.105-17.395-69.263-8.095-110.438
								c7.578-33.555,21.17-61.255,28.472-76.137c2.437-4.967,4.567-9.308,4.724-10.529c-1.417,0.68-6.574,5.96-8.59,8.024
								c-4.122,4.218-7.083,5.708-9.324,4.689c-6.147-2.801-4.356-24.735-1.388-61.073c4.947-60.562,13.226-161.924-13.984-249.914
								c-32.746-105.891-108.757-166.297-225.921-179.541l0.112-0.994c63.555,7.185,115.506,28.321,154.41,62.822
								c32.954,29.225,57.297,68.729,72.353,117.417c27.268,88.175,18.979,189.658,14.026,250.291
								c-2.73,33.423-4.703,57.572,0.806,60.082c1.752,0.799,4.511-0.706,8.193-4.477c8.011-8.202,9.19-8.812,9.972-8.261
								c0.965,0.682-0.048,2.846-4.493,11.905C354,208.4,314.415,289.077,348.537,363.748
								c24.589,53.811,82.833,93.143,173.113,116.905c63.675,16.759,101.08,40.897,114.352,73.791
								c18.611,46.125-14.236,100.136-43.218,147.788c-23.167,38.093-43.175,70.991-30.739,90.552
								c11.894,18.706,52.582,23.599,128.055,15.395l0.107,0.994C666.853,811.712,646.794,812.992,629.874,812.992z"/>
						</g>
					</g>
				</g>
			</g>
		</g>
	</g>
</g>
<g id="Layer_1">
</g>
</svg>
